<?xml version="1.0" encoding="UTF-8"?>
<svg version="1.1" viewBox="0 0 1068 1600" width="408" height="611" xmlns="http://www.w3.org/2000/svg">
<path transform="translate(460,161)" d="m0 0h7l12 2v1h-13v-2l-9 3-10 6-5 5 5-2 12-5 9-2h24l18 6 5 4 3 5 44 22 9 8 8 11v2l4 2 3 6 2 5 6 9 1 3v13l1 2v25l1 10v16l-1 13 2 4 1 14 9 31 1 4 1 26 2 12 3 14v13l-3 26-6 18-9 17-5 9-1-4-3 1-2 9-7 8 2 4 19 13 21 16 11 9 1 3v19l-4 10v6l12 19 17 29 26 39 12 23 14 31 11 30 20 62 9 30 10 33 16 45 6 22 3 15 5 57 7 47 6 48 6 59 1 14v43l-3 26-6 28-6 18-10 23-7 20-5-1-7-10-10-14-9-10-9-11-16-16-7-1v-2l-2 1-3 8-3 29-3 54-6 21-10 25-8 17-8 22-7 23-7 34-5 13-8 14-7 11-8 21h-318l-2-4-1-21-3-8-6-9-6-15-10-29-6-3-5-2-4-9-6-38-5-42-4-22-1-10 1-23 4-22 10-48 2-9v-11l-10-21-8-10-8-8-11-16-5-10-7-28-10-43-8-23-3-16-1-15v-15l2-19 1-8 2-40 1-12 1-46 2-21 7-30 1-22-3-11v-19l2-15v-24l-4-33v-28l3-21 5-22 8-23 8-15 12-16 10-11 8-7 27-27 22-12 9-8 9-7 15-14 12-13 3-5 3-8 9-17 7-19 8-6 2-6v-11l-5-16-2-9-4-9-13-19-8-15-3-13v-18l3-11-2-14-4-17-2-7-1-1-1-10-2-4 1-11v-22l1-10v-9l5-26 4-9 4-6 12-14 7-6 16-5 11-3 3-1v3l11 1-3-3-9-3 1-2 12 4v2l5-2 7-8 3-5 4-5 11-7zm-55 31-1 2h2zm174 37 1 3 2-1z" fill="#201A1B"/>
<path transform="translate(460,161)" d="m0 0h7l12 2v1h-13v-2l-9 3-10 6-5 5 5-2 12-5 9-2h24l18 6 5 4 3 5 44 22 9 8 8 11v2l4 2 3 6 2 5 6 9 1 3v13l1 2v25l1 10v16l-1 13 2 4 1 14 9 31 1 4 1 26 2 12 3 14v13l-3 26-6 18-9 17-5 9-1-4-3 1-2 9-7 8 2 4 19 13 21 16 11 9 1 3v19l-4 10-2 7h-2l-2 6-4 6-10 7-1 3 4 2 15 16 11 13 13 18 12 16 9 14 8 16 5 9 2 5 4 8 4 13v3h2l4 11 4 19 1 15v26l-1 6v78l-2 39-2 10v11l6 37 3 12 4 20 2 12v25l-1 3-1 42-2 24-4 15-2 4 1 9 7 19 5 12 6 15 2 10v9l-4 7-8 7-12 3-16 7-3-1 4-20 3-11 2-26 4 3v2l4 2 5 1 4-1 4 4 2 1-2-12-3-7v-3l-2-1-1-5h-2l-1-6h-2l-5-12-1-14 1-12h-2l-2-45-3-33-2-24v-18l2 2-3-7-3-20-3-17-5-30-1-3 1 11 1 17-2-1-5-13-4-8-12-39-8-31-3-8-8-29-3-13-3-8-4-14-3-8-6-15-4-11-7-15-11-23-6-10-7-14-6-10-6-11-15-24-10-15-7-10-10-14-3-5v-2h-2v-3h-2v-5l5 1 5 3 9 2 7-1 3-1 7 3 2-3 5 1 6 4 6 5 2-5h-2v2h-2l-2-5v-3h-2l-3-5-2-1v-2h-10l-8-5-5-2v-2l-5-2-6-7v-2l-5 3-13 13-4-2-7-8-6-6v-2l-4-2-9-10-7-8v-2l-4-2-41-41-14-12-8-7-2-1v-2l-4-2-3-2v-2l-4-2-9-9v-4l-2-1 4-3 2-6v-11l-5-16-2-9-4-9-13-19-8-15-3-13v-18l3-11-2-14-4-17-2-7-1-1-1-10-2-4 1-11v-22l1-10v-9l5-26 4-9 4-6 12-14 7-6 16-5 11-3 3-1v3l11 1-3-3-9-3 1-2 12 4v2l5-2 7-8 3-5 4-5 11-7zm-55 31-1 2h2zm174 37 1 3 2-1z" fill="#B68575"/>
<path transform="translate(383,495)" d="m0 0h4l2 5 4 5 7 5v2l4 2 3 2v2l4 2 3 2v2l4 2 15 13 46 46 8 9 7 8 15 15 2 3 4-2 7-8 6-5h3l4 6 5 4 3 3 7 3 5 3h8l2 1v2l3 1 2 5h2l2 5v3h2v-2h2l-1 7-7-6-7-5-4-1-2 4-9-3-3 2-9-1-9-3-6-3v5h2v3h2l10 16 6 8 7 10 13 20-1 6 2 10 3 10-1 2h-3l-1 3-7 2-1 4-2 1-2 7-3 5-4 1-3-2v-2l-4-2-4-6v-2h-2v-3h-2l-3-5-7-10-5-7v-2h-2l-6-9-6-7-4-5-4-4-2-4-2-1v-3l-3-1-2-4-3-3v-3l-3-1v-2l-4-2-5-5-4-6-2-1v-2l-3 1-6-5-5-5v-2l-5-2v-2h-4l-1 3 8 4v2h2l1 4 3 1v2h2l8 10 6 12h2l4 7v3h2l5 6v2h2l2 4 4 4 6 11 1 7h2l4 11 7 9-2 1 1 3-7-1v2l-4-2h-8l-2 1v-2h-7l-9 2h-8l-3-3-4 1-5-1v6h-2l-2-4-1-6-6 1-3-1-2 4h-2l1 5 4-2v5h-2l1 9 3 14v7l-2-1-4-16v8l1 3 2 12v8h-1l-1-8-2-1v-9l-3-1 1-2-4-10-1-8-2 1 4 24v6l-2-3-3-12-3-9-4-17v-2l-6-3-1-1-1 2-3-1-6-16v-4l2-1-3-5-3-3-4-9-9-15-2-1 4 9 3 5-1 6 4 2 3 10 1 18-1 3 2 1v5h1l2-16 2 2 1 15v13l-4-2 1-9h-3v23l-2 22-2 4-1-13-1-18-1-6-1 7v12l-1 3v8l-1 5h-2l-1-9-3 1-2 8h-2l-2-9v-4h-2l-1 7-1 4h-2l-1-7h-2l-2 12v21l-1 11-2 1-1-13v-10l1-8-2-4-2 11-1 10h-3l-1-5-1-4h2l-1-9-2 1-1 5 2 1h-3v11l-2 3-1-3-1-24v-5h-2l-2 24-1 18v7l1 1 3-11 3 1 1 2v27l-1 4-1 22h-2l-1-16-1-20-3 4 2 1h-2v9l-2 2-1-1-1-17h-2l-1 13-1 12-2 3-3-10 1-9-2 1-1 18 2 1-2 5 4-3v-2l3 1v6l-1 3 1 4-1 6 2 1-1 6v6l1 2h-2l1 8h-3v-15l-1-5 1-6-1-1v4h-3l-1 7-2 4-5 1-1 10 1 9-2 5-1 22-1 7h-3l-3-2 1 7h-2l1 6-1 5-4-3v-3h-2l1 4 2 1v2l2 1h-3v-2h-3l-1 11-2 2-2-5-2 1-1 13-1 9-1 1h-6l-1 17h-2l-3-6-2-1v11l-1 5h-5l-2 13v17l-1 12-2-1v-18l-2-17v-8h-2l-1 43v8l-1 3h-2l-1-26-1-19-1 11-1 6v9l-2 7-2-3v-32l1-35-1-2-1 16-1 60v22l-1 8h-2l-1-33-1-14h-1l-1 20-1 5h-2l-1-44 1-5h-2v21l-1 25-1 11-2 3 1 1 1 5v7l-2 3-1-7-2 14-3-1-1 2h-2v2h-2v10l-1 2-1 7-3 1-5-14-2-13-1-15v-15l2-19 1-8 2-40 1-12 1-46 2-21 7-30 1-22-3-11v-19l2-15v-24l-4-33v-28l3-21 5-22 8-23 8-15 12-16 10-11 8-7 27-27 22-12 9-8 9-7 15-14 12-13 3-5 3-8 9-17 7-19z" fill="#352B2E"/>
<path transform="translate(653,1312)" d="m0 0 4 1 5 5 5 17 1 11 4-1 3-3v-2l9-5 5-4 9-4 9-1 1 1v10l-1 8-3 54-6 21-10 25-8 17-8 22-7 23-7 34-5 13-8 14-7 11-8 21h-318l-2-4-1-21-3-8-6-9-6-15-9-27 24-1 18-2 21-6 25-7 15-8h2l2-6 4 1 3-5 2-6 10-1 9 9 9 4 11 4h13l16-5 20-7 8-6 3-2 1-4 12-11 1-2h2l1-4 10-18 6-10 7-14 7-17 2-7 4 2 6 9 1 13h2l1-5 12-6 6-4 5-3-15-2h-4l1-9 9-24 2-2 3 1-1 1 6 1 7 5 9 6 2 3-1 10 3-7v-7l-3-7 1-3h2v-2l8-5 3 2 4-1 8-1 5 3 6 1 1 4 7 1 1 5-1 6 2 3 9-1 1-19 2-7v-8l-5-15-3-7z" fill="#161927"/>
<path transform="translate(392,477)" d="m0 0 7 6 11 11 7 10 10 10 9 6 5 6 5 3 2 5 12 3 10 5 9 3v2l4 2 6 4v2l5 2 1 3 4 1 8 7 4 5 10 8 20 20-1 4 5 1 2 4 4 2 12 7 5 5v2l8-5 8-3 3-2 1-3h2l2-9 3-4-7-4-3-4 1-15v-23l-3-3-3-9-2-9 11 7 16 12 19 14 8 7 1 3v19l-4 10-2 7h-2l-2 6-4 6-10 7-1 3 4 2 15 16 11 13 13 18 12 16 9 14 8 16 5 9 2 5 4 8 4 13v3h2l4 11 4 19 1 15v26l-1 6v78l-2 39-2 10v11l6 37 3 12 4 20 2 12v25l-1 3-1 42-2 24-4 15-2 4 1 9 7 19 5 12 6 15 2 10v9l-4 7-8 7-12 3-16 7-3-1 4-20 3-11 2-26 4 3v2l4 2 5 1 4-1 4 4 2 1-2-12-3-7v-3l-2-1-1-5h-2l-1-6h-2l-5-12-1-14 1-12h-2l-2-45-3-33-2-24v-18l2 2-3-7-3-20-3-17-5-30-1-3 1 11 1 17-2-1-5-13-4-8-12-39-8-31-3-8-8-29-3-13-3-8-4-14-3-8-6-15-4-11-7-15-11-23-6-10-7-14-6-10-6-11-15-24-10-15-7-10-10-14-3-5v-2h-2v-3h-2v-5l5 1 5 3 9 2 7-1 3-1 7 3 2-3 5 1 6 4 6 5 2-5h-2v2h-2l-2-5v-3h-2l-3-5-2-1v-2h-10l-8-5-5-2v-2l-5-2-6-7v-2l-5 3-13 13-4-2-7-8-6-6v-2l-4-2-9-10-7-8v-2l-4-2-41-41-14-12-8-7-2-1v-2l-4-2-3-2v-2l-4-2-9-9v-4l-2-1 4-3 2-6z" fill="#B0ADAF"/>
<path transform="translate(460,161)" d="m0 0h7l12 2v1h-13v-2l-9 3-10 6-5 5 5-2 12-5 9-2h24l18 6 5 4 3 5 44 22 9 8 8 11v2l4 2 3 6 2 5 6 9 1 3v13l1 2v25l1 10-2 22-3-3-5-19-6-3-7-5-7-8v-2l-3-1-5-5v-2l-20-10h-20l-7 4-4 3h-7l-4-4v-2l-5 1-9 1h-5l-7-2-9 2-2-1h-23l-9 1-12 5-9 7-3 1-2 4-4 10-1 12h-3l2 6-1 4 4 2 4 3 2 5 2 7 1 1v6l-6 11-2 8-1 38-1 7h-2v2h-3l-6-7-2-11-3-7-4 1-5-9-2-1v-2l-4-2-1-3-5-1v-6h-2l-4-17-4-15-1-1-1-10-2-4 1-11v-22l1-10v-9l5-26 4-9 4-6 12-14 7-6 16-5 11-3 3-1v3l11 1-3-3-9-3 1-2 12 4v2l5-2 7-8 3-5 4-5 11-7zm-55 31-1 2h2zm174 37 1 3 2-1z" fill="#483D3E"/>
<path transform="translate(398,416)" d="m0 0 2 1 2 13 3 6 1 7 5 6 3 8v5l4 1 1-19h2l4 7 5 8 7 2 2 4h2l2-2 5 7 1 5 3 1v2l3-1 2 1 1-2h4l1 2 8 2v3h2l1-5 4 1 3 3 4 1 2-4v-7l-2-2-2-9 3-8 2-4v-7l2-3h2l2-5 5-8h2l-3 9-4 6-1 3 7-3h6l2-2 6-2 1-4-1-3 7-3 4-1h7l7 2 17-1 2-2h3l1-4 9-3 1 4h2l2 5 2 2v2l12 11v2h2l3 7v5l3-1 2 1 1-4h2l3-10 3-11 2-1-1 6 2-1 2-4 1 9-1 18-2 15-6 18-9 17-5 9-1-4-3 1-2 9-7 8 1 8 3 10 4 5v26l-1 12 5 5 5 3-3 4-3 9h-2l-1 4-7 4-7 3-5 2-6-7-11-6-7-7-4-1-1-5-21-21-10-8-4-5-6-5-3-1-4-4-2-1v-2l-4-2-6-4v-2l-6-1-9-4-6-3-10-2-4-7-5-3-5-6-9-6-3-3-2-5-4-5-3-9-1-10-4-16-1-10h-2l-3-5v-13l-3-7-2-12z" fill="#5D4B49"/>
<path transform="translate(471,269)" d="m0 0 9 2h7l5-1 3 2 15 3 10-3 8 2 6 3 3 2v2h2l3 7 2 7 5 7 5 9 3 5v6l-4 2-2 5-5 5-3 1-5 5-6 3-6-1-7 5h-11l-10 1-12-1h-9l-7 1-7-1h-8l-14 7-8 3-8 4-1 4v10l2 4 4 2 11 2 11 1v-2l13-1 1 1 11 1 1 2h-2v2l-2 1-11 1-3 1v2h19l14-3 16-9 8-5 1-6 1-5h2l2-4 7 1 6 10 5 10v2h2l1 5h2v3h2l6 12v2l2 1 1 8-3 3-1 3-5 5-3 2-12-1h-19l-5-8-2-4-7 1-2 4-8 11-4 2-1 3-10 7-4 6-2 1 1 4 6 5 5 3 1 5v7l-4 2-3-4-4-1-1 3-4-1v-2l-4-1-8-3-2-1-1-6-3 1-4-4-6-2-4-4-7-6-6-9-7-13-6-9-2-5-3-24-1-4v-13l4-10 4-8h2v-2h2l1-7-1-7-2-7-4-10-2-2v-3h-2l-3-7 1-8 3-6 4-5h2l2-4 9-6 7-3 9-1 1-1h5l4 1h17z" fill="#CA9282"/>
<path transform="translate(383,495)" d="m0 0h4l2 5 4 5 7 5v2l4 2 3 3-2 1-1 9-3 6-3 9-5 6h-2l-2 4h-3l-1 3h-4l3 2-1 5-6 4h-2l-2 9-2 10-3 5-4 5-6 10-3 3h-2l-2 4-3 1v2l-6 5h-2l-2 4-7 3-3 3-4 2-3 8-5 2-1 3-6 3-1 2-5 2-3 3-8 2-10 3-14 12-8 7-1 2h-2v3h-2l-2 4-4 7 1 5 5 5 4 2-1 7h2l-1 6-3 13-1 13-6 16v9l-1 3-1 9-2 4-1 15-2 5-1 5-3 2v10l1 1-1 7-4 8-3 7-6 18-2 11-2 13h-2v2h-3v-19l-3-11v-19l2-15v-24l-4-33v-28l3-21 5-22 8-23 8-15 12-16 10-11 8-7 27-27 22-12 9-8 9-7 15-14 12-13 3-5 3-8 9-17 7-19z" fill="#463C3D"/>
<path transform="translate(602,480)" d="m0 0h1l1 11-2 8-6 10-4 8-1-4-3 1-2 9-7 8 1 8 3 10 4 5v26l-1 12 5 5 5 3-3 4-3 9h-2l-1 4-7 4-7 3-5 2-6-7-11-6-7-7-4-1-1-5-21-21-10-8-4-5-6-5-3-1-4-4-2-1v-2l-4-2-6-4 4-2-9-4-16-8-7-2-4-1-4-6-5-5-2-8-4-1-3-10 1-5h6l5 4h4l3 2 1 3 2 1 1-2 3 3 5 1 1-5 3-1 3 4 2-5h2l1 4 2 1v-9l3-1 1 6-1 6 1 3 3-6 2-7h4l1 3v7l3 5 2-3 2 5 2 1 1-4h2l1 9 4-3h6l2 3 3 2v2l5 2v-2h6l2 4v5l2-1 2-14 3-3 1 7 2 1 2-5 3 1 1-4 4-4 3 2 1-4h2l1-6 2 2 2 3v8l-2-1-1-3v9l1 5h2l1-4h1l1-7 2-2-1-7-2-4 2-2 4 6 1 4h2v2l5 1 4 3-3-9h2v-2l6-4 1-3h2v-2l3-3 3-7 5-1v-2h2z" fill="#382D30"/>
<path transform="translate(440,547)" d="m0 0 7 6 32 32 8 9 7 8 15 15 2 3 4-2 7-8 6-5h3l4 6 5 4 3 3 7 3 5 3h8l2 1v2l3 1 2 5h2l2 5v3h2v-2h2l-1 7-7-6-7-5-4-1-2 4-9-3-3 2-9-1-9-3-6-3v5h2v3h2l10 16 6 8 7 10 13 20-1 6 2 10 3 10-1 2h-3l-1 3-7 2-1 4-2 1-2 7-3 5-4 1-3-2v-2l-4-2-4-6v-2h-2v-3h-2l-3-5-7-10-5-7v-2h-2l-6-9-6-7-4-5-4-4-2-4-2-1v-3l-3-1-2-4-3-3v-3l-3-1v-2l-4-2-5-5-4-6-2-1v-2l-3 1-6-5-5-5v-2l-5-2v-2h-3v-2h-2l2-5 7-6-4-5-9-5-10-3-4-3v-2h-2v-2l-2-1-3-6 1-2 8 10v2l5 2 18 6 6 5 2-3h2l1-4-8-1-3-2h7l2-2 1-7 4-10-3-10h-2v-3h-2v-3l-3-1-6-11z" fill="#362C2F"/>
<path transform="translate(460,161)" d="m0 0h7l12 2v1h-13v-2l-9 3-10 6-5 5 5-2 12-5 9-2h24l13 4v2l-5-1-2-1-12-1-8 1-5-1-11 3-4 2v3l-4 4h-2l-1-2-4 3h-2v2l-3 1-3 3-5 1v5l-6 2h-6l-2 4-9-3-8-1v2l-2 1h8v2l-12 3-7 1-1 2-6 1-5 5v2l7-3 10-5 3 1-5 4-9 5-4 2v5l-7 10h-2l-2 6-2 1-1-6-3-1 3-3 2-5h-2v2l-2 2-3 6-2 9-4 20v9l-2 2 2 7 1 3v7h3l1-3 1 5 2 1v8l2 6-1-5 1-2 4 1 1 5 2 1v2h2l2-4v6l-1 3 2 1 1-3 2 1 1-7-1-5 3-11h2l1 2 5-10 4-6h2l2-6 5-6 11-7 9-4 7-1 2-1h11l1-2v2l10 1-1-2 9 2 5-1 1-2h4l1-3-3-6 1-4 10 2 1 8 3 1 3 3 4-7 4 5 6 10 2 1 1-4 4-1 7-3h25l11 2 9 5v2l4 2 2 4h2l8 12 4 4 3-3 1 2 5-3 1-8 1-3-2-10 1-3-1-10 2-3 2 5v13l1 2v25l1 10-2 22-3-3-5-19-6-3-7-5-7-8v-2l-3-1-5-5v-2l-20-10h-20l-7 4-4 3h-7l-4-4v-2l-5 1-9 1h-5l-7-2-9 2-2-1h-23l-9 1-12 5-9 7-3 1-2 4-4 10-1 12h-3l2 6-1 4 4 2 4 3 2 5 2 7 1 1v6l-6 11-2 8-1 38-1 7h-2v2h-3l-6-7-2-11-3-7-4 1-5-9-2-1v-2l-4-2-1-3-5-1v-6h-2l-4-17-4-15-1-1-1-10-2-4 1-11v-22l1-10v-9l5-26 4-9 4-6 12-14 7-6 16-5 11-3 3-1v3l11 1-3-3-9-3 1-2 12 4v2l5-2 7-8 3-5 4-5 11-7zm-55 31-1 2h2z" fill="#5C4A48"/>
<path transform="translate(678,728)" d="m0 0 4 4 5 11 4 8 4 13v3h2l4 11 4 19 1 15v26l-1 6v78l-2 39-2 10v11l6 37 3 12 4 20 2 12v25l-1 3-1 42-2 24-4 15-2 4 1 9 7 19 5 12 6 15 2 10v9l-4 7-8 7-12 3-16 7-3-1 4-20 3-11 2-26 4 3v2l4 2 5 1 4-1 4 4 2 1-2-12-3-7v-3l-2-1-1-5h-2l-1-6h-2l-5-12-1-14 1-12h-2l-2-45-3-33-2-24v-18l2 2-3-7-2-15 1-8h3l2 3 2 22 7-1 2-2v-7l-4-15-1-2-2-18-10-49-4-15v-6h2l-1-24-1-5 1-7 11-10 3-2 3-7 2-3v-33l-1-28-1-10-3-5-4-16-5-12-8-19-2-5z" fill="#8B8280"/>
<path transform="translate(519,263)" d="m0 0h20l16 8 9 8 6 7v2l4 2v2l4 2 4 3 5 2 1 4-1-2-6 1-6-3-5-3-2-6-5-1-8-4-4-3v-2h-3l-4-7v-2l-7-1-6-2h-8l-7 2-6 3h-7l-9-4h-7l-1 1-10-1-8-1-7 2-6-1h-12l-6-1-13 4-8 4-5 4h-2v2l-5 4-4 10-1 12 6 11 5 12 1 10-6 12h-2l-1 6v53l2 3 1 9 3 5v6l3 4 2 6 3 3 1-9 2-1 4 4v3l4 2 2 7 9 3 8 5v2h2l3 5 4 1v2l4-2 10 6 4 2 2-4 1 2h2v2h7l-3-13v-11l-4-1v-3h-2l2-7 5-1v-2l5-4 7-11 6-8 4-2 3 2 2 8-5 1-6 10-1 4 9-2 6-3-2-5v-3l13-2h11l10 1 9-4h2l1-3 4-1 4-4 1-3 6 3 5 5 3 2 6 1 10-6 6 1 3 7 3 3 4-5 2 5-1 8-3 1v-5l-5 17-2 4h-2l-1 4h-5l-2-6-1-6h-2l-4-5-8-7-2-3-1-1-1-6h-2l-1-3-9 3-1 3-5 3h-7l-10 1-7-2h-7l-10 3 1 5-3 4-6 2-1 1h-7l-6 2 1-5 4-5 3-8h-2l-2 4-5 9h-2l-1 7-1 5-3 7-1 4 3 9 1 1v7l-2 5-7-2-2-3-3-1-1 5h-2v-3l-8-1-1-3h-4l-1 5-3-3h-2l-4-5-4-8h-2-4l-1-3-7-2-3-3-3-6-3-4v-3h-2v17l-1 2-4-1-2-9-6-9-2-6-2-7-1-1-2-13-1 3 2 10 3 7v13l2 5h2l2 10 4 16 1 11 4 9 4 5-1 3-7-7-7-10-15-15-6-19-2-9-4-9-13-19-8-15-3-13v-18l3-11v-6h2v6h5l3 5 2 1v2l4 2 3 6v2l4-2 4 8 3 13 4 3v2h3v-2h2l1-45 3-10 5-9v-6l-2-2-2-11-4-2-4-3-1-10h3l-1-6 3-12 5-8 12-9 12-5 9-1h23l3 1 8-2 7 1v2l14-2 2-1 3 1 4 5h7l8-6z" fill="#A67365"/>
<path transform="translate(473,169)" d="m0 0 6 1 10-1 9 1 4 2h6l7 5 3 5v2l5 2 2 5-4 1v-2l-4 1h-2-9l-4-3-9 1v2l2 3-1 2h2l-2 4-1 4-6 2 4 2h8l-1 3-9 4h-8l3-5-7 1 3-4h-10l-5-2v2l-5 2h-6v-9l-7 1-2-1v2h-2l2 5-1 4-5-3-1-2-8 1-5 1-7 1-5 2v3l3 1h12l3 4-14 2 16 2 8 2 4 2v2l-15-1-1-1h-8l-5 3-12 3-7 2-5 4-6 5h-2v-2h-2v2l-5 5-2 5 2 1-1 5-3 3-2 14-1 2h-2v9l2 12 2-2 3-12v-7l2-5 5-3-1 10 3-2 1 3 2 1v5l4-5 1-2h2l1-5 6-7h2v-2l8-6 5-1v-2l7-2-2-3-11-1-5 2-3-1v-2l5-4 9-4 10-2-1-1h-16l5-4 5-3 1-2 9-1 5 1-4 2-6 1 10 3-1 3 4 1 8 5v1h-26l17 1 4 2-2 1-1 3-7 3-8 2-12 6-4 3h-2l-2 4-5 8h-2l-2 4-2 5-4 8-2-1v-2h-2l-2 13 1 8-3 4-1-2-1 2-3-1 1-7-1 2h-2v-2l-3-1-1-5-3-1 1 9-2 2-2-12 1-6-3-1v-3l-4 1-3-16v-3l1-5 1-9 3-13v-5l4-10 2-4h2v-2l3-1-2 7-3 2h3l1 6 3-6 5-5 3-6 1-4 10-7 7-4-9 3-4 3-6 2-2-2 3-3h2l2-4 7-2 13-3 6-1v-2l-8 1-4-1 6-1v-2h8l9 3 2-3 11-2 1-5 7-2 1-3h3v-2l4-3 3-1v3l4-2 2-4-1-2 11-4z" fill="#453B3C"/>
<path transform="translate(500,187)" d="m0 0 5 2 1 1h9 4 2v2l4-1 5 2v2l4 1v3l-3 1-1 2h9v3l3 1-5 4-9 3-9-1-2 1 4 2v3l-6-1-4-2h-7-4l-8 2-2 4 9-1v2l-5 4h-2v2h2l-2 4-3 2-2 7-2 4-2-1-1-7h-4l-1-5h-6l-1 5-2 6h2l5 8-2 3-4-1-2 4-9-1h-2l-4 1-8-2-3 1h-8l4-2 1-4-6-1-16-1 3-2h24l-7-5-3-1v-2l-10-3 1-2 7-2h-11l-1 3-8 5h14l4 3-16 3-6 3h-2l-1 3h-2l2 2 5-1 3-1 9 1 2 4-7 2v2l-8 4-3 3h-2v2l-5 5-3 4-1 3h-2l-2 5-2 3-2-1 1-5-3-1-1-2-3 2v-6-3l-3 2-1 6-1 8-3 11-2 3-3-15 1-9h2l2-16 5-8-3-1 3-6 3-4h2v-2h2v2l8-6 7-5 5-1 12-3 5-3h8l1 1 15 2v-2l-16-4-12-1-1-2 11-1 2-1-2-2h-11l-4-2 1-4 5-2h7l1-2h12l1-2 1 4 4 2-1-8h2v-2h9v9l11-2v-2h5v2l4-1h7l-2 4h5l-2 4h7l8-4-1-1h-5l-6-3 3-2 6-2-2-1 4-5h-2l-1-4-2-2 2-2z" fill="#362C2F"/>
<path transform="translate(571,522)" d="m0 0 2 2 1 5h2l1-2 3 1-1 7 3 12 4 6 1 1v26l-1 12 5 5 5 3-3 4-3 9h-2l-1 4-7 4-7 3-5 2-6-7-11-6-7-7-4-1-1-5-21-21-10-8-4-5-6-5-3-1-1-3 4-1 2-3 3-1 25-1 11-5 3 2 5-3 9-3 5-3 2-2 2 1 3-3 6 1-1-8h-2z" fill="#5C4A48"/>
<path transform="translate(569,418)" d="m0 0 3 1v3h2l2 5 2 2v2l12 11v2h2l3 7v5l3-1 2 1 1-4h2l3-10 3-11 2-1-1 6 2-1 2-4 1 9h-2v-2h-3l-3 10-3 12h-2l-3 9-3 5-1 1h-5l-1 8-3 9-4 7-3 2h-7l2-2 6-2 4-12 3-12-1-4-4-2h-19l-1-2h-12l-33 2-14 3-5 4-4 8-1 1v7l8 11h4l1 2 4 2v3h2v2l10-5 6-1 2 3 1-2h2l2-5h3l2-4-8-11 2-4 6-5 6-1h11l4 2v7l-2 2v5l2 3-4-1-2-4 1-5h2l-1-4-6-2-8 1-7 3v4l7 8 2 3-1 7-1 5h-3v2l-4 1-1-4-3 1-1 6h-3l-2 4-1-6h-2l-1 3-3 1-1-6-5 3h-2v-2l-4-1v-3l-6 1-3-1v-2l-4-1-2-9-3-5-3-1-8-3-2-1-3 1 1-4 1-2h3l2 4h4 2l2-5v-10l-3-6 1-8 6-8 5-4 9-1 2-2 8-2 3-2v-7l6-2h8l8 3 13-1 5-5h2l1-4z" fill="#805448"/>
<path transform="translate(392,477)" d="m0 0 7 6 11 11 7 10 10 10 9 6 5 6 5 3 2 5 12 3 10 5 9 3v2l4 2 6 4v2l5 2 1 3 4 1 8 7 4 5 10 8 20 20-1 4h2v3h-6l-5-5-2-1-2 5-5 4-7 8-4 2-11-12-4-4v-2l-4-2-9-10-7-8v-2l-4-2-41-41-14-12-8-7-2-1v-2l-4-2-3-2v-2l-4-2-9-9v-4l-2-1 4-3 2-6z" fill="#C1C0C3"/>
<path transform="translate(472,275)" d="m0 0 6 1 3 2h13l11 5 4 6 1 4v9l-3 5-5 1-4-2-4 1-2 4v7h2l7 8 3 2 1 5-2 4-11 4h-10l-8 4-9-1-10-1-4 2h-6l-3-3v-9l-6-9v-6l3-6-3-10-3-3-4-12 1-3 7-2 8-1 5 1 5-1h7l6-3 1-2z" fill="#DBA796"/>
<path transform="translate(404,517)" d="m0 0 5 1 5 4v2l4 2 15 13 7 7 3 8 4 7 2 1v3h2v3h2l4 10-4 10-1 7-3 3h-4l8 2-1 4h-2l-2 4-6-5-18-6-5-3-8-11 4 8v2h2l4 4 10 3 9 5 1 3 4 2-5 5-4 5-2 3-2-10-11-7-8-4-7-8-4-4v-2l-4-2-1-3h-2v-2l4-1 5 1 1-5-10-9-1-4-4-2-5-4-3-3h3l1-2 4-2 1-2h2l2-4 4-6 3-9 2-7z" fill="#362C2F"/>
<path transform="translate(472,240)" d="m0 0 10 2 1 8 3 1 3 3 4-7 4 5 6 10 2 1 1-4 4-1 7-3h25l11 2 9 5v2l4 2 2 4h2l8 12 4 4 3-3 1 2 5-3 1-8 1-3-2-10 1-3-1-10 2-3 2 5v13l1 2v25l1 10-2 22-3-3-5-19-6-3-7-5-7-8v-2l-3-1-5-5v-2l-20-10h-20l-7 4-4 3h-7l-4-4v-2l-5 1-9 1h-5l-7-2-9 2-2-1h-23l-9 1-12 5-9 7-3 1-2 4-4 10-1 12h-3l2 6-1 4 4 2 4 3 2 5 2 7 1 1v6l-6 11-2 8-1 38-1 7h-2v2h-3l-6-7v-5l1 4 6 1h2l1-10 1-31 3-12-1-11-2-1-1-3-2-1v-2l-3-1-1-5v7l3 1 1 3-1 2h-4v-2l-5 1 1-5v-8l-1-2 4-4 2-16v-3h2v-2h-2l-2-5 2-2 4-7h2l2-6 5-6 11-7 9-4 7-1 2-1h11l1-2v2l10 1-1-2 9 2 5-1 1-2h4l1-3-3-6z" fill="#5D4B49"/>
<path transform="translate(625,1492)" d="m0 0h6l-1 17 1 2 2-4 4 10v19l-1 3 1 5-2 3-2 7v6h2l-1 5-2 1-4 11-3 5h-2l-2 9-5 9h-25v-9l3-18 4-20 9-25 3-12v-6l-2-4 8-8z" fill="#1F191B"/>
<path transform="translate(713,1051)" d="m0 0h1l2 12v25l-1 3-1 42-2 24-4 15-2 4 1 9 7 19 5 12 6 15 2 10v9l-4 7-8 7-12 3-16 7-3-1 4-20 3-11 2-26 4 3v2l4 2 5 1 4-1 4 4 2 1-2-12-3-7v-3l-2-1-1-5h-2l-1-6h-2l-5-12-1-14 1-12h-2l-1-20v-18l7-2 1-3 6-1v-28l1-24 1-5z" fill="#806F6A"/>
<path transform="translate(627,611)" d="m0 0 3 1 21 35 14 23 8 11 11 17 12 23 14 31 11 30 20 62 9 30 10 33 16 45 1 6-2-1-4-9-3-8-4-8-4-10-2-4-2-8-5-16-6-14v-6h-2l-4-11-2-6-3-10-4-12-5-16-4-10-5-13-5-10-5-14-3-8-9-20-9-16-4-8-3-13h-2l-1-5-2-1-4-8-5-8-6-11-9-13-1-3h-2l-10-14-7-9-9-9-1-3 6-11z" fill="#4B4041"/>
<path transform="translate(550,464)" d="m0 0h12l1 3 19-1 5 3 1 4-2 9-5 15-4 2-5 1-8-5-5-3-1-1v-5l2-2v-7l-3-1h-11l-8 2-5 5 2 5 4 5v2l2 1-2 4-4 1-2 4h-2l-1 3-2-3-7 2-6 3h-3v-2h-2l-1-3-4-2v-2l-4 1-7-9-2-3v-7l3-5 4-6 7-4 11-2z" fill="#8C6459"/>
<path transform="translate(531,213)" d="m0 0h6v2l14-1v2l-11 2v2l10 1 1 3-4 2v2l-7-1-5-1-3 2 4 2-2 3h4v-2l11-1 5 2h3l1-2 4 1v2l4 2v2l4 2 2 5v3l5 2v3h2l6 14v3h-2v4h-4l-3-9-3-8-5-5-6-3-1 6 8 5 2 6h2l4 10-1 2-6-5v-2h-2l-4-5-2-1v-2l-5-2-7-3-8-1h-25l-9 4-2-1-1 4-4-2-3-10-3-2-1-7-5 10h-2l1-9 2-3 8-1 1-6 9-3 2 3v4l2 1 2-4 10-10h2l1-3-4-3 13-1v-3h-5z" fill="#352B2E"/>
<path transform="translate(460,161)" d="m0 0h7l12 2v1h-13v-2l-9 3-10 6-5 5 5-2 12-5 9-2h24l13 4v2l-5-1-2-1-12-1-8 1-5-1-11 3-4 2v3l-4 4h-2l-1-2-4 3h-2v2l-3 1-3 3-5 1v5l-6 2h-6l-2 4-9-3-8-1v2l-2 1h8v2l-12 3-7 1-1 2-6 1-5 5v2l7-3 10-5 3 1-5 4-9 5-4 2v5l-7 10h-2l-2 6-2 1-1-6-3-1 3-3 2-5h-2v2l-2 2-3 6-2 9-4 20v9l-2 2 1 11 1 1v12l4-1v4h2v5l-1 1v7l-1 2v11l2 11-1 1 2 2-1 3v2h-2v3h2l1 4v8h-1v-6h-2l-4-17-4-15-1-1-1-10-2-4 1-11v-22l1-10v-9l5-26 4-9 4-6 12-14 7-6 16-5 11-3 3-1v3l11 1-3-3-9-3 1-2 12 4v2l5-2 7-8 3-5 4-5 11-7zm-55 31-1 2h2z" fill="#604E4C"/>
<path transform="translate(479,348)" d="m0 0 12 1v2l16 2 6 2 4 4-1 4-4 4-2 5-9 4-3 2h-3v2l2 1-4 4-4-1-1-2-19-1-11-2-10 2h-6v-5h-5l-5 1-2-1v-7l6-8 3-1 1-4 14-6 9-1h11z" fill="#87736D"/>
<path transform="translate(271,1277)" d="m0 0 2 2 1 3v9l2 14 5 8 5 7 11 1 1 5h-2l-1 4-4 6h-2l-2 6-9 13-7 10-5 9-4 10-1 10v8l-2 4h-2l-1 3-3-21 1-23 4-22 10-48 2-9z" fill="#382E30"/>
<path transform="translate(559,542)" d="m0 0h3v11l-5 24-1 8v30l-5-2-7-7-4-1-1-5-21-21-10-8-4-5-3-3h8l2 1h7v-2l6-2 20-8 8-6z" fill="#7F5347"/>
<path transform="translate(398,416)" d="m0 0 2 1 2 13 3 6 1 7 5 6 3 8v5l4 1 1-19h2l4 7 5 8 7 2 2 4h2l2-2 5 7 1 5 3 1v2l3-1 2 1 1-2h4l1 2 8 2v3h2l1-5 4 1 3 3 4 1 2-4v-7l-2-2-2-9 3-8 2-4v-7l2-3h2l2-5 5-8h2l-3 9-4 6-1 3 7-3h6l2-2 6-2 1-4-1-3 7-3 4-1h7l7 2 17-1 3-2-2 4-3 2-13 1-8-3h-8l-6 1 1 7-6 4-14 4-4 1-5 4-5 9 1 8 2 3v10l-3 6-5-1-2 1-1-5h-3l-2 9-9-1-5 1-2 4-4-2-1 4h-2l-1-8v-5l-4 2-3-5v-3l-4 1-3-4-3 1-2-4-2 11h-5l-1 3-2-1-1 6 3 5 1 5h3l4 13 1 3-5-2-4-4-2-5-4-5-3-9-1-10-4-16-1-10h-2l-3-5v-13l-3-7-2-12z" fill="#8C6459"/>
<path transform="translate(356,375)" d="m0 0 3 6 7 2v-2l4-2 6 1v3l5 2 2 5-4 4-3 2v9l1 1 1-3h2l1-4 4-1 4 9 3 5 2 7v4l-2 1 1 4 4 13v11h2l2 11 2 6 2 5v8l-4-4-1-4h-2l-2-6-3-4-4-6v-3h-2l-1 3-2-9-4-9-13-19-8-15-3-13z" fill="#CA9383"/>
<path transform="translate(549,1385)" d="m0 0 4 2 6 9v24l-3 9-4 6 1 3v3l-7 8-3 1-2 4-4 2v2l-10 6h-3l-1 2-6 3-7 1-6 1-4 1 1-4 12-11 1-2h2l1-4 10-18 6-10 7-14 7-17z" fill="#4F2F28"/>
<path transform="translate(598,692)" d="m0 0 10 1 7 5v3l2 1 1 4-3 5h-5l1 5 9 11 15 11 12 9 7 9 2 1v2h2l8 10 6 9 5 8v7l-6-1-7-7-8-7-13-13v-2l-12-6-9-4-6-5-7-12-6-15-3-10-1-2 1-7z" fill="#C3C3C6"/>
<path transform="translate(585,328)" d="m0 0 9 2 3 4v7l-3 5-5 3-1 2h2l1 7-3 3-6-1-5 5-5 2-13 2 2 5-3 2h-5v2h-3l-1 4-4-2-6-10-1-4v-11l6-8 17-9 16-6h3v-2z" fill="#5E4C4A"/>
<path transform="translate(392,477)" d="m0 0 7 6 11 11 7 10 10 10 9 6 5 6 5 3 2 5 12 3 10 5 9 3v2l4 2 6 4v2l5 2 1 3 4 1 8 7 4 5 10 8 19 19-3 2-4-2v-3l-6-3v-2l-4-2-3-2-5-1-1 2v-3l-4-2-10-10-10-8v-2l-5-1-3-4v-2l-5-2-2-1v-2l-4-1-2 1-2-5-4-1-6-5-10-4-9-6-5-3-5-5-5-2-8-4-1-2h-3l6 7 4 3 1 4h3v2l3 1-1 3-11-10-9-7v-2l-4-2-3-2v-2l-4-2-9-9v-4l-2-1 4-3 2-6z" fill="#AEABAD"/>
<path transform="translate(699,788)" d="m0 0 2 1 1 12 1 34v25l-4 6-2 5-13 11-1 8 1 6 1 13v10l-3-1v5l-2-4-12-36 1-6 2-13-1-4 5-5 5-7 8-18 9 3 1-21v-22z" fill="#9E9999"/>
<path transform="translate(604,675)" d="m0 0 4 2h9l6 2 11 6 9 2 1-1 1-9h2l7 10 7 9 1 7 3 5 5 15v9l3 8v4l-4-2-28-28-5-4v-2h-3l-4-4-2-1v-2h-3v-2h-3v-2h-2l-4-4v-2l-3-1-2-5h-2l-4-7z" fill="#C2C2C5"/>
<path transform="translate(716,1087)" d="m0 0h2l1 6v10l-1 9 2 19 3 9 3 16 2 6 3 7 1 8-3 5-5 4-2 15 2 9 4 8 7 5 5 3-1 5-8 2-3 9-2-1-3-12-5-13-5-12-7-19-1-9 4-11 2-8 2-24 1-42z" fill="#0E0B0C"/>
<path transform="translate(461,510)" d="m0 0 2 1 2 3 3 3v5l2 1 2-6 2-1 4 4 1 6h2l1-8 4-1 2 6 2-3h2l1-3 1 4 4-1v6l3-2h3l2 5 5-1v-2l4-1 3 3v2h2l4 5 1 3 4 2v-5h2v6l-6 5-17 1-3 1-2-1-20-2-9-4-21-10-1-2-3-1-3-3 2-5-2-5h2v-4h2l3 4 1-1h6z" fill="#201A1B"/>
<path transform="translate(429,538)" d="m0 0 9 6 2 2 3 8 4 7 2 1v3h2v3h2l4 10-4 10-1 7-3 3h-4l8 2-1 4h-2l-2 4-6-5-18-6-5-3-8-11 4 8v2h2l4 4 10 3 9 5 1 3 4 2-5 5-4 5-2 3-2-10-11-7-8-4-7-8-4-4v-2l-4-2-1-3h-2v-2l4-1 5 1 1-5-10-9 1-3 7 6 6 5v2l4 2 3 5v2l3 1v3l6 2 4-1-1-3v-12l5-2 3-3 5-1 2-2v-6l-1-4h-2l-2-6h-2l-3-5-4-7z" fill="#201A1B"/>
<path transform="translate(582,322)" d="m0 0 7 1 7 6 2 4-1 3-3-4v-2l-9-1-5 1v2l-21 8-15 8-5 7v11l4 10 4 5 2 1 1-4h3v-2l7-2-2-6 17-3 5-3 2-3 6 1 2-2v-7h-2l2-4 4-2 3-5h1l3 14 1 7-2 6-5 4-13 5-9 3-9 1-2 2-6 2 2 9 4 8 2 6-4 1-7-11-5-7-4-7-5-8-3-10-6-7-2-1v-2h-2l1-5h7l1-3h2v-2l10-6h3v-2l7-3 2-3 7-3 10-2z" fill="#A77466"/>
<path transform="translate(657,671)" d="m0 0 5 5 10 15 5 7 3 6 7 12 10 21 5 11 6 13 4 8 4 13 5 12 2 5 3 7 2 4 4 14 3 1 15 49 10 33 16 45 1 6-2-1-4-9-3-8-4-8-4-10-2-4-2-8-5-16-6-14v-6h-2l-4-11-2-6-3-10-4-12-5-16-4-10-5-13-5-10-5-14-3-8-9-20-9-16-4-8-3-13h-2l-1-5-2-1-4-8-5-8-6-11z" fill="#392F31"/>
<path transform="translate(522,258)" d="m0 0h19l12 4 8 5 5 4 6 8 7 10 2 1v2l5-1 1 8-6-2-7-5-7-8v-2l-3-1-5-5v-2l-20-10h-20l-7 4-4 3h-7l-4-4v-2l-5 1-9 1h-5l-7-2-9 2-2-1h-23l-9 1-12 5-9 7-3 1-2 4-4 10-1 12h-3l2 6-1 4 4 2 4 3 2 5 2 7 1 1v6l-6 11-2 8-1 38-1 7h-2v2h-3l-6-7v-5l1 4 6 1h2l1-10 1-31 2-8 4-9-2-9-2-7-4-6-2 1-1-17 3-11 2-10 7-9 7-6 9-4 13-3h18l13 2 1-2h11l2 2 3-1v-2l5 2 3 1 2-3 6 2v3h3l1 2h6v-3l4-1 6-3z" fill="#8B6257"/>
<path transform="translate(500,187)" d="m0 0 5 2 1 1h9 4 2v2l4-1 5 2v2l4 1v3l-3 1-1 2h9v3l3 1-5 4-9 3-9-1-2 1 4 2v3l-6-1-4-2h-7-4l-9 1-6 5-1 5-9 3h-3-4l-1-3-5-1-2-5-5-4-5-1 4-2h7l3 1 1-4 6-2h5l-2 5 3 1v3l6-1 13-5v-2h-5l-6-3 3-2 6-2-2-1 4-5h-2l-1-4-2-2 2-2z" fill="#352B2E"/>
<path transform="translate(430,495)" d="m0 0h6l5 4h4l3 2 1 3 2 1 1-2 3 3 5 1 1-5 3-1 3 4 2-5h2l1 4 2 1v-9l3-1 1 6-1 6 1 3 3-6 2-7h4l1 3v7l3 5 2-3 2 5 2 1 1-4h2l1 9 4-3h6l2 3 3 2v2l5 2v-2h6l2 4v5l2-1 2-13h1l1 16-1 9-6 3h-2l1-4 4-2v-6h-2v5l-5-2-3-5-1-3h-2l-4-4h-3v2l-6 2-1-6-6 2v-6l-4 1-1-2-3 2-2 3-2-3v-4l-3 1-2 8h-2l-3-8-3-1-3 6-3-1v-5l-4-3-1-3-2 5-1-2-7 2-2-5h-2v4h-2l3 6h-2l-1 4 3 1v2l4 1v2l2 1-8-2-4-6-5-5-2-8-4-1-3-10z" fill="#352B2E"/>
<path transform="translate(557,428)" d="m0 0h2l2 2 14 7 7 6v2h2l4 5v5l-3 5-1 2-9-1-8 1v-3l5-2v-2l-8-2-9-1-3-1-3 2-10 1-5-2v-2l-3 1-6-2-5 2-5-1 1-4 3-2 1-4 3-8 5-2 4-1 3 2 11 1 8-2z" fill="#362C2F"/>
<path transform="translate(517,467)" d="m0 0h26l5 1-1 2-6-1v3h-4v2l-5 2-2 5-3 3 7 5 2 4-1 5-2 4h-2v-2h-2v2l-9 3-6 3-3-2-1-3-4-1-2-2-3-1-5-8-3-2 1-5 5-9 7-5 8-1z" fill="#CA9282"/>
<path transform="translate(361,543)" d="m0 0 6 5-1 5-6 5-6 9-7 10h-2v2h-2l-2 4-6 8-5 4h-2v2l-12 5-17 5-5 4-7 5-10 3-1 3h-2v2l-7 2 6-7 19-19 22-12 9-8 9-7 15-14 12-13z" fill="#5F4D4B"/>
<path transform="translate(693,1216)" d="m0 0 4 3v2l4 2 5 1 4-1 3 4v2l3 1 1 5v17l-4 8-2 3 5-3 3-9v-14l-1-10 2-1 1 2 1 22v6l-7 8-12 3-16 7-3-1 4-20 3-11z" fill="#8B8381"/>
<path transform="translate(578,533)" d="m0 0 11 7 14 10 5 12 1 17 9 8 5 5v3l-13-9-6-3-1 9-4 8 1 2-5 1-4 11v6l-3 3h-8l-4-2 8-3 3-2 1-3h2l2-9 3-4-7-4-3-4 1-15v-23l-3-3-3-9z" fill="#8B8280"/>
<path transform="translate(558,576)" d="m0 0 8 6 4 2v2l5 1 11 8 5 2 5 3-3 4-3 9h-2l-1 4-7 4-7 3-5 2-6-7-6-3-1-14v-17l1-8z" fill="#473D3E"/>
<path transform="translate(399,237)" d="m0 0h6l1 2h-3v2l-6 4-3 1 1 2 8-4 14-5h8l4 3-16 3-6 3h-2l-1 3h-2l2 2 5-1 3-1 9 1 2 4-7 2v2l-8 4-3 3h-2v2l-5 5-3 4-1 3h-2l-2 5-2 3-2-1 1-5-3-1-1-2-3 2v-6-3l-4 3-2-1 1-8 3-5 1-5 1-3h2l1-5 3 1v-2h3v-2l4-2-1-2 4-2z" fill="#362C2F"/>
<path transform="translate(636,808)" d="m0 0 2 3 8 37 4 19 3 9 6 21 4 9 2 5v-12l3 3 2 5-1 13h-1l1 9 4 15 3 11v11l2 19-1 4-5-10-4-10-1-4 1-1-3-13-2-4-2-8-7-25-3-14v-3h-2l-3-15 1-3 5 12-2-10-4-21-5-25-5-23z" fill="#82716C"/>
<path transform="translate(447,393)" d="m0 0 6 1 7 5 16 5 1 2h2v2h8l1 3-3 3-3-2v9l-4 6-1 1-8 1h-9l-6-4-1-3-5-2-5-5-2-5-2-8v-5l4-3z" fill="#DBA796"/>
<path transform="translate(460,161)" d="m0 0h7l12 2v1h-13v-2l-9 3-10 6-5 5 5-2 12-5 9-2h24l13 4v2l-5-1-2-1-12-1-8 1-5-1-11 3-4 2v3l-4 4h-2l-1-2-4 3h-2v2l-3 1-3 3-5 1v5l-6 2h-6l-2 4-9-3-8-1v2l-2 1h8v2l-12 3-7 1-1 2-6 1-9 2-13 13-2 4-3 2 1-5 6-8 11-13 7-6 16-5 11-3 3-1v3l11 1-3-3-9-3 1-2 12 4v2l5-2 7-8 3-5 4-5 11-7zm-55 31-1 2h2z" fill="#6A5D5C"/>
<path transform="translate(474,351)" d="m0 0h13l9 2 7 5 1 3-6 2-7 2 5 4-1 4-9 3-2-1v-2l-6-1-1 2h-2l-1 4-1 1h-9l-4-4-5 1-1 1h-5l5-5 9-4 9-1v-5l-10 2-13 4h-7l2-5-5-1 2-4 3-1v4l7-3 2-3h8l5-3z" fill="#5D4B49"/>
<path transform="translate(528,605)" d="m0 0h3l4 6 5 4 3 3 7 3 5 3h8l2 1v2l3 1 2 5h2l2 5v3h2v-2h2l-1 7-7-6-7-5-4-1-2 4-9-3-3 2-9-1-9-3-6-3-1 3-2-5-3-1-3-6 13-13z" fill="#483E3F"/>
<path transform="translate(526,227)" d="m0 0 1 3 6 4h2l1 2 15-1 2 1v-2h2l1 5-4 1h7v6l-1 3 1 7-15-5-15 1-21 1-1-2h-2l-1 5h-2l-3-9-2-4 1-5 3-2 6 1-1 8 4-5 6-2 6-9z" fill="#201A1B"/>
<path transform="translate(565,411)" d="m0 0 7 3 5 5 3 2 6 1 10-6 6 1 3 7 3 3 4-5 2 5-1 8-3 1v-5l-5 17-2 4h-2l-1 4h-5l-2-6-1-6h-2l-4-5-8-7-2-3-1-1-1-6h-2l-1-3-9 3-1 3-5 3h-11l3-4 8-2 1-3 4-1 4-4z" fill="#A67365"/>
<path transform="translate(675,953)" d="m0 0 3 1 6 7 3 6 4 1v-5h1l6 31 1 12 3 10 2 7v7l-3 3-4 1-3-1-2-9-1-13-3-2-1 2h-2l-3-17-5-30z" fill="#9D9797"/>
<path transform="translate(371,334)" d="m0 0 3 2v2h3v4l4 2 1 5h2l1-9 2-1 2 5 5 3 2 1v10l-1 13 1 9-2 3-2-10-4 4-3-3-6-2v-2l-5-1-1-3h-4l-2-3h-3l-1-5h2l-2-5-1-10 2-3h2v-3z" fill="#463C3D"/>
<path transform="translate(579,1354)" d="m0 0 3 1-1 1 6 1 7 5 9 6 2 3-1 7-4 6-5 4-6 1h-22l1-9 9-24z" fill="#4F2F28"/>
<path transform="translate(532,210)" d="m0 0m-1 1m-12 0 9 1h3v2h5v3l-9 2 2 3h-2l-4 4h-2l-2 5-6 5-1 2-3-1-1-7-6 3h-3l-1 6-6 2h-2l-2 5-1 6 3-3 4-8h1v8l4 2 1 7-3-4-4-5-4 6-4-4h-3l-1-7 1-2h-6l-4-1 1 6-3-2v-2h-2v-6h2l1-5h6l1 5h4l1 7h2l3-10 5-4 1-2h-2v-2l5-4h2v-2l-9 1 1-4 3-2 9-2 2 1h8l4 3 4 1v-3l-5-1z" fill="#463C3D"/>
<path transform="translate(704,874)" d="m0 0h1v48l-2 39-3 15-2-4-7-35-2-6-2-12v-7l2-3 4-2 1-2h2v-2h2l1-6 4-11z" fill="#85736E"/>
<path transform="translate(212,906)" d="m0 0 4 2 1 4 3 2 4 11v12l-3 7-1 1-2 9-4 15-3 5-1 20-2 5h-3l1-54 2-21z" fill="#4A3F40"/>
<path transform="translate(712,1135)" d="m0 0h1v11l-2 16-4 12-1 7 6 18 5 12 8 20 2 10v9l-4 7-2-1v-15l-1-13-1-1 1 10v14l-4 10-5 2 2-4 3-7v-17l-1-5-2-1 1-2 2 1-2-12-3-7v-3l-2-1-1-5h-2l-1-6h-2l-5-12-1-14 1-12h-2v-19h1l2 18v6h3v-6h2v-3h2l1-6z" fill="#665958"/>
<path transform="translate(610,438)" d="m0 0h3l2 9-3 26-6 18-3 4v-8l-1-6-3 5-5 1-4 9h-2v2h-2l-1 4-4 3h-2v2h-2l3 9-4-2-5-2v-2l-3 1-2-12-5-3v-2l5 1 6 4v2l9-2 4-7 5-17 6-2 5-11 1-2h2l2-12z" fill="#5F4C4A"/>
<path transform="translate(695,1136)" d="m0 0h1v20h2v19l2 9 3 10h2l1 6h2l5 12 3 7v9l-5-2-1-2-6 1-7-4-3-4-1 15h-1l-1-38 1-37 2 2z" fill="#403637"/>
<path transform="translate(607,631)" d="m0 0 1 3 4 2 15 16 3 5-3 3-8 3-4-3v-2h-2l-3-3v-2l-4-1 1 5-2 5-3 3-5 1-6-3-1 4-1-1v-14l3-8 6-8z" fill="#9D9898"/>
<path transform="translate(603,551)" d="m0 0 12 8 3 5 5 3-1 14-1 6 5 7-3 11h4l-1 3-9-1-20-4-1 4h-2l1-5 4-1-2-2 2-1 3-6v-6l2-3 5 1 12 9h2l-5-4-5-6-5-4-1-18-4-8z" fill="#9C9696"/>
<path transform="translate(525,428)" d="m0 0h8l8 3h11v1l-7 1-10-1-3-2-4 1-4 2-4 9-2 4h-2v4h8l1-2 9 2v2l-9 2h-7l-11 3-1 8-8 5-5 6-3-4v-2h-2l-3-6 1-8 6-8 5-4 9-1 2-2 8-2 3-2v-7z" fill="#604B49"/>
<path transform="translate(501,469)" d="m0 0 2 1-5 4-4 8-1 1v7l8 11h4l1 2 4 2v3h2v2l10-5 6-1 2 3 1-2h2l2-5h3l2-4-8-11 2-4 6-5 6-1h11l4 2v7l-2 2v5l2 3-4-1-2-4 1-5h2l-1-4-6-2-8 1-7 3v4l7 8 2 3-1 7-1 5h-3v2l-4 1-1-4-3 1-1 6h-3l-2 4-1-6h-2l-1 3-3 1-1-6-5 3h-2v-2l-4-1v-3l-6 1-3-1v-2l-4-1-2-9-3-5-3-1-8-3-2-1-3 1 1-4 1-2h3l2 4h4 2l2-5 1-10 4 5 6-5z" fill="#805347"/>
<path transform="translate(572,338)" d="m0 0h12l1 5-15 6v1h10l5 2 1 4-7 3v-4h-8l-1 8-4 1h-10l-4-2-1 5-2 1h-6l-2-2-1-6 6-10 10-6z" fill="#392D2F"/>
<path transform="translate(451,535)" d="m0 0 9 2 10 5 9 3v2l4 2 6 4v2l5 2 1 3 4 1 8 7 4 5 10 8 19 19-3 2-4-2v-3l-6-3v-2l-4-2-3-2-5-1-1 2v-3l-4-2-10-10-10-8v-2l-5-1-3-4v-2l-5-2-2-1v-2l-4-1-2 1-2-5-4-1-6-5-4-1z" fill="#B0AEB0"/>
<path transform="translate(602,480)" d="m0 0h1l1 11-2 8-6 10-4 8-1-4-3 1-2 9-5 5-7 1-2-7h-2v-4h-2l-1 6h-2v-16l-3-6 2-2 4 6 1 4h2v2l5 1 4 3-3-9h2v-2l6-4 1-3h2v-2l3-3 3-7 5-1v-2h2z" fill="#493E3F"/>
<path transform="translate(421,458)" d="m0 0 4 2 1 2 4 4 7-1 1 9h2l2-6 2 1 1 6h3l4 6 5 3 2-5 4 2 2 2 5-1 1 5h2v3l-9-1-5 1-2 4-4-2-1 4h-2l-1-8v-5l-4 2-3-5v-3l-4 1-3-4-3 1-2-4-2 11h-5l-1 3-2-1-1 6 3 5 1 5h3l3 12-5-5-4-8v-2h-3l-1-6v-17l2-2h2z" fill="#805347"/>
<path transform="translate(627,611)" d="m0 0 3 1 21 35 7 12v3h-8l-2-4h-2l-10-14-7-9-9-9-1-3 6-11z" fill="#392F31"/>
<path transform="translate(521,630)" d="m0 0 5 1 5 3 9 2 7-1 3-1 7 3 2-3 5 1 6 4 6 5 2-3v9l-19 1-7-2-9 1-8-7-1-2-3-1 1 4-6-2-1-4h-2v-3h-2z" fill="#8B8380"/>
<path transform="translate(575,382)" d="m0 0h10l5 5 1 5-1 1-2 10-1 2h-2v2l-7 4-7-3-5-6v-7l-4-4v-5l4-2 8-1z" fill="#CB9383"/>
<path transform="translate(349,271)" d="m0 0 2 4v4l2-1 1 10 1 1v12l4-1v4h2v5l-1 1v7l-1 2v11l2 11-1 1 2 2-1 3v2h-2v3h2l1 4v8h-1v-6h-2l-4-17-4-15-1-1-1-10-2-4 1-11v-22z" fill="#6C5F5E"/>
<path transform="translate(578,533)" d="m0 0 11 7 3 3 4 11 1 5v13l-2 2-1 5 1 2-1 5-1 10-2 2-5-4-1-7 1-10v-23l-3-3-3-9z" fill="#85726D"/>
<path transform="translate(387,402)" d="m0 0 4 5 4 7 1 9v7l3 9v8l4 10 3 8 4 13 2 16 3 3v3l4 2 3 4-1 3-7-7-7-10-15-15-5-15v-7h2l4 8 2 1 1 3 2 2v5l3-1 2 7 1-1v-5l-2-5-3-12-1-3 1-2h-2l-1-11-4-13v-3l-2-2h4l-2-7-3-7-2-4z" fill="#B68675"/>
<path transform="translate(519,263)" d="m0 0h20l16 8 9 8 6 7v2l4 2v2l4 2 4 3 5 2 1 4-1-2-6 1-6-3-5-3-2-6-5-1-8-4-4-3v-2h-3l-4-7v-2l-7-1-6-2h-8l-7 2-6 3h-7l-1-2 8-2 6-5z" fill="#A67365"/>
<path transform="translate(551,580)" d="m0 0h3l1 3v30l-2 1-6-4-3-4-4-1-1-5-14-14 3-2 2-1 17 1v-2z" fill="#8D655A"/>
<path transform="translate(545,1265)" d="m0 0 2 2 1 4v9l-6 9-3 2h-34l-18 2-3-3v-3l2-1 34-3 17-3 5-4z" fill="#0D0A0B"/>
<path transform="translate(557,428)" d="m0 0h2v4l5 1 11 6 3 3v8h-11l-10-1-3-2v-6l-2-1v7l-4 1v-2l-3-1-1-7-2-1h-6l-1 7 4 1v3l-3-1-2 2-1-1 1-9 1-4 4-1 7-1 10-4z" fill="#211A1B"/>
<path transform="translate(496,239)" d="m0 0 6 12v5h2l1-5 3-1v3l5-1 23-1 8-1 13 4 1 1 2-2 9 6 2 6h2l4 10-1 2-6-5v-2h-2l-4-5-2-1v-2l-5-2-7-3-8-1h-25l-9 4-2-1-1 4-4-2-3-10-3-2-1-7-5 10h-2l1-9 2-3z" fill="#3A2F31"/>
<path transform="translate(582,322)" d="m0 0 7 1 7 6 2 4-1 3-3-4v-2l-9-1-5 1v2l-21 8-15 8-5 7-1 11-5-5-5-4v-2h-2l1-5h7l1-3h2v-2l10-6h3v-2l7-3 2-3 7-3 10-2z" fill="#A47366"/>
<path transform="translate(491,350)" d="m0 0h11l10 1 11 5-2 4-5 7-2 7-8 4h-3l-1 4-3 3-14 5-8 1-1-2 4-3h3l-2-3-16-1h-16l-7 1-12-3-4-6 2-5 5-8 4-3h2v2l-5 4-3 5-1 7h6l4-1 2 1v5l17-3 10 2 19 1 2 3 5-1v-3-2l7-4 8-3 2-5 4-4 1-3-4-2v-2l-22-4z" fill="#A67366"/>
<path transform="translate(562,537)" d="m0 0 3 3-2 8h-1v-6l-12 6-6 5-18 7-6 2h-2v2l-8 1-5-1-6-2-4-2-1-3 4-1 2-3 3-1 25-1 11-5 3 2 5-3 9-3 5-3z" fill="#5D4B49"/>
<path transform="translate(719,1226)" d="m0 0 2 2 1 22v6l-7 8-12 3-16 7-3-1 4-20 2-8 1 2 4 1v4h2v2h3v2l9-1 5 2-3 6 5-3 3-9v-14l-1-10z" fill="#82706B"/>
<path transform="translate(636,808)" d="m0 0 2 3 8 37 4 19 3 9 3 12-1 3 9 30 1 12 1 2-3 5-2-1-7-25-3-14v-3h-2l-3-15 1-3 5 12-2-10-4-21-5-25-5-23z" fill="#8B8381"/>
<path transform="translate(362,344)" d="m0 0h1v9l2 1-1 5 1 3 4 2v2h4l2 2 1 2h3v2l7 1 3 3 3-4 3 9 1-1 1-17h1v26l-1 10-3 2v-2l-6-1-3-10-3-7-4 1-5-9-2-1v-2l-4-2-1-3-4-1-1-12h-2l1-4v-3l1 1z" fill="#624D4A"/>
<path transform="translate(550,464)" d="m0 0h6l2 1-1 4-4 4-16 4-6 7 6 7 2 4 2 1-2 4-4 1-2 4h-2l-1 3-2-3-7 2-6 3h-3v-2h-2l-1-3-4-2v-2l-4 1-7-9-2-3v-7l3-5 4-6 7-4 11-2zm-33 3-3 2-10 2-6 5-5 9 1 5 5 5 3 5h3l1 2 5 1 1 4 3 1 6-4 8-2v-2h2v2h2l3-5-1-6-3-4-5-3 5-6v-2l5-2v-2h4v-3l6 1 1-2-5-1z" fill="#A77466"/>
<path transform="translate(545,619)" d="m0 0 5 2 5 3h8l2 1v2l3 1 2 5h2l2 5v3h2v-2h2l-1 7-7-6-7-5-4-1-2 4-9-3-3 2-9-1-9-3-6-3-1 3-3-5v-2l6 1v2l4 1h9l4-4 8-1 1-2-3-1z" fill="#665958"/>
<path transform="translate(423,230)" d="m0 0h10l1 2-10 2 10 3-1 3 4 1 8 5v1h-26l17 1 4 2-2 1-1 3-7 1h-7l-2-2-11-1-5 2-3-1v-2l5-4 9-4 10-2-1-1h-16l5-4 5-3 1-2z" fill="#423839"/>
<path transform="translate(636,846)" d="m0 0 1 2h2l2 3 4 14 1-5 2 4 3 17 2 7v6l-2-3-4-11 2 12v5h2l5 20 9 33 2 5 2 11-2-1-10-30-9-33-5-17-1-5 1-1-1-9-4-15-2-4z" fill="#9C9696"/>
<path transform="translate(558,576)" d="m0 0 8 6 4 2v2l4 2-2 1-2 4-4 4-1 8-2 13-5-1-2-1-1-14v-17l1-8z" fill="#211B1B"/>
<path transform="translate(574,471)" d="m0 0 6 1 2 13-1 7-5 6-5-1-5-3-5-1-1-6 2-4h2l1-3v-8h8z" fill="#A77466"/>
<path transform="translate(571,522)" d="m0 0 2 2 1 5h2l1-2 3 1-1 7 3 12 4 6 1 1v26l-1 12 2 4-5-2-5-5 2-9 1-9-2-13-6-16v-14h-2z" fill="#665958"/>
<path transform="translate(399,237)" d="m0 0h6l1 2h-3v2l-6 4-3 1 1 2 8-4 14-5h8l4 3-16 3-19 9-8 7-3 4v2h-2l-1 4-4 5-2-1 1-8 3-5 1-5 1-3h2l1-5 3 1v-2h3v-2l4-2-1-2 4-2z" fill="#201A1B"/>
<path transform="translate(265,1446)" d="m0 0h2l-1 4h4l2 9 1 3 1 12v13l-1 7 2 5 2 3-1 6h-4l-4-13-6-41v-6z" fill="#392F31"/>
<path transform="translate(692,1280)" d="m0 0 5 2 8 10v6l-3 6-5 3h-6l-6-4-2-5 3-7 3-9z" fill="#352B2E"/>
<path transform="translate(531,213)" d="m0 0h6v2l14-1v2l-11 2v2l10 1 1 3-4 2v2l-7-1-5-1-3 2 4 2-1 4h-2l-1 2-1-3-5-3v-2l-5 3-5 8-6 2-3 6-2-3 1-6-6-1-2 1 1-5 9-3 2 3v4l2 1 2-4 10-10h2l1-3-4-3 13-1v-3h-5z" fill="#362C2F"/>
<path transform="translate(471,208)" d="m0 0h5l-2 5 3 1v3l6-1 9-3h5l-2 2-5 2-5 5-1 4-9 3h-3-4l-1-3-5-1-2-5-5-4-5-1 4-2h7l3 1 1-4z" fill="#201A1B"/>
<path transform="translate(549,344)" d="m0 0 2 1-7 5-3 7 1 9 1 1h8v-5h4l1 1h15l2-7h4l-1 6 5-1-4 4-5 2-13 2 2 5-3 2h-5v2h-3l-1 4-4-2-6-10-1-4v-11l6-8z" fill="#7F5449"/>
<path transform="translate(704,903)" d="m0 0h1v19l-2 39-3 15-2-4-7-35v-5h8l3-10z" fill="#665958"/>
<path transform="translate(678,728)" d="m0 0 4 4 5 11 4 8 4 13v3h2l4 11 4 19 1 15v26l-1 6-3-3v-14l-1-28-1-10-3-5-4-16-5-12-8-19-2-5z" fill="#877B79"/>
<path transform="translate(393,194)" d="m0 0h6l1 1 10 1v1h-7v2l-2 1h8v2l-12 3-7 1-1 2-6 1-9 2-13 13-2 4-3 2 1-5 6-8 11-13 7-6z" fill="#6B5D5C"/>
<path transform="translate(429,264)" d="m0 0m-4 1 4 1-16 8-7 6h-2l-2 4-4 10-1 12h-3l2 6-1 4 4 2 4 3 2 5 2 7 1 1v6l-6 11-2 8-1 38-1 7h-2v2h-3l-6-7v-5l1 4 6 1h2l1-10 1-31 2-8 4-9-2-9-2-7-4-6-2 1-1-17 5-18 8-10 11-8 3 1v-2z" fill="#8B6358"/>
<path transform="translate(596,1365)" d="m0 0 5 1 4 5-1 7-4 6-5 4-6 1h-17l-4-2 1-3h6 3l5-2 2-4 4-3h5l1-4z" fill="#5C4A47"/>
<path transform="translate(660,1198)" d="m0 0h8l3 3 4 9-2 6-4 3h-11l-4-4-1-9 4-6z" fill="#211A1B"/>
<path transform="translate(380,1092)" d="m0 0 9 1 5 2h5l3-2-1 11-5 12-4 1-7-7-6-13z" fill="#0D0A0B"/>
<path transform="translate(603,551)" d="m0 0 12 8 3 5 5 3-1 14-1 6 2 4-4-1-6-7-5-4-1-18-4-8z" fill="#9E9999"/>
<path transform="translate(558,425)" d="m0 0v3l-4 3-13 1-8-3h-8l-6 1 1 7-6 4-14 4-4 1-5 4-5 9 1 8 2 3v10l-3 6-5-2 1-2 3 1 2-4v-7l-2-2-2-9 3-8 2-4v-7l2-3h2l2-5 5-8h2l-3 9-4 6-1 3 7-3h6l2-2 6-2 1-4-1-3 7-3 4-1h7l7 2 17-1z" fill="#8C6459"/>
<path transform="translate(498,511)" d="m0 0h2l1 9 4-3h6l2 3 3 2v2l5 2v-2h6l2 4v5l2-1 2-13h1l1 16-1 9-6 3h-2l1-4 4-2v-6h-2v5l-5-2-3-5-1-3h-2l-4-4h-3v2l-6 2-1-6-6 2z" fill="#372D30"/>
<path transform="translate(552,522)" d="m0 0h3v9h2v-2l3-1 2 2 2-3 2 7 1 3h-3l-2-2-5 4-2 3-8 1-3-1 1 4h-2l-2-9v-7l2-4 5-1v-2z" fill="#201A1B"/>
<path transform="translate(473,169)" d="m0 0h3v2l-6 2-1 2h-5v2h-2v3h-2l-1 3-5 2-2-1-2 4-7 6h-7l-2 3-8 1v3l-2 1h-11l-11 4-5-1v-1l12-2v-2l-8 1-4-1 6-1v-2h8l9 3 2-3 11-2 1-5 7-2 1-3h3v-2l4-3 3-1v3l4-2 2-4-1-2 11-4z" fill="#5D4B49"/>
<path transform="translate(395,208)" d="m0 0 3 1-5 4-9 5-4 2v5l-7 10h-2l-2 6-2 1-1-6-3-1 3-3 2-5h-2v2l-2-1 8-10 1-3-3 3h-2l-2 5-2 2-3 1v-3l13-13 8-1-1 3-4 3h3l5-2z" fill="#5C4A48"/>
<path transform="translate(439,362)" d="m0 0h6l-2 5 9-1 13-4h7v2l2 1h-2v2l-12 3-8 4-2 2 10-2 4 4h9 3l-3 3-11-1-4-1-14 1 2-5 6-5-9 2h-7l-1 2-3-2 2-5z" fill="#7E5247"/>
<path transform="translate(561,423)" d="m0 0h3l-2 5 16 8 6 4 5 6 2 5-1 7-2 5-1 3-5-2h-17l-9-3 2-2 5-2 1-2-13-2-2-1 4-2 2 1 14 2 4 2-1 3-5 2 3 1 11-1h3l3-5v-5l-3-3v-2h-2l-5-5-9-6-9-3-1-4 1-2h2z" fill="#5D4B49"/>
<path transform="translate(523,467)" d="m0 0h20l5 1-1 2-6-1v3h-4v2l-5 2-2 5-3 3 7 5 2 4-1 5-2 4h-2v-2h-2v2l-9 3-6 3-3-2-1-3-4-1-2-2-3-1-5-8-3-2 1-5 5-9 3-1-2 5-3 7h-2l5 6 4 5 3 1 1 2 5 1v3l7-2 6-3 7-2v-7l-5-1-5-4 2-4 2-1 1-3-3-1v-4l9-1v-3h-11z" fill="#B78675"/>
<path transform="translate(713,1209)" d="m0 0 4 2 8 20 2 10v9l-4 7-2-1v-15l-1-13-1-1 1 10v14l-4 10-5 2 2-4 3-7v-17l-1-5-2-1 1-2 2 1-2-12z" fill="#82706B"/>
<path transform="translate(526,260)" d="m0 0 14 1 12 4 10 7 1 3 4 2 11 13 4 4h4l1 5-6-2-7-5-7-8v-2l-3-1-5-5v-2l-20-10h-20l-7 4-4 3h-7l-4-4v-2l4 2 1 1h6l1-2 10-5z" fill="#8C6459"/>
<path transform="translate(529,429)" d="m0 0 4 1 7 2h6v2l-7 1h-4l-1 15-3 1-6-2-5 2-5-1 1-4 3-2 1-4 3-8 5-2z" fill="#3B2D2D"/>
<path transform="translate(485,545)" d="m0 0 18 1 4 2 12-1 9 1h7l-3 2-6 2-23 1-3 1-4 4-7-3v-2l-4-2-6-4v-1z" fill="#51322B"/>
<path transform="translate(522,258)" d="m0 0h19l12 4 8 5 5 4 6 8 7 10 2 1v2l5-1v3l-4 1-9-9-8-10-8-7-10-5-7-2-14-1-10 2-4 3h-3l-1 3h-6l-5-4v-3h-2l1-2 2 1v3h3l1 2h6v-3l4-1 6-3z" fill="#805347"/>
<path transform="translate(359,358)" d="m0 0h2v6h5l3 5 2 1v2l4 2 3 6v2l4-2 2 3-1 5-7-5-3-3-7 1v2l-7-1-2-3v-8l2-10z" fill="#A57365"/>
<path transform="translate(497,354)" d="m0 0 9 1 4 2v3h2l1 3h-2l-2 4-3 5-11 5-12 3h-3v-2h2l1-5 1 2 6-1 5-2v-3l-5-5 13-3-2-4z" fill="#805347"/>
<path transform="translate(607,631)" d="m0 0 1 3 4 2 14 15-2 2-8 1-6-2v-2h-2l-4-5v-2h-2l-3-6z" fill="#897F7D"/>
<path transform="translate(695,1181)" d="m0 0 2 3 1 9 2 4 5 5 7 11 4 11v4l-5-2-8-11-7-10-1-2z" fill="#100C0D"/>
<path transform="translate(536,391)" d="m0 0 4 4 1 6h2l2 12 1 1v6l-3 2-8-1v-2h-2l-1-6 2-14v-6z" fill="#DBA796"/>
<path transform="translate(392,303)" d="m0 0h1l2 16 2-1 3 6 2 2 3 12-1 5-3 3-1-11-2-1-1-3-2-1v-2l-3-1-1-5v7l3 1 1 3-1 2h-4v-2l-5 1 1-5v-8l-1-2 4-4z" fill="#675A59"/>
<path transform="translate(487,351)" d="m0 0h8l16 3 6 5-1 4-4 4-2 5-9 4-3 2h-3v2l2 1-4 4-4-1-1-2-15-1 2-3v-4h2l1-3 5 2-1 5h-2v2l12-3 9-4 5-1 2-5 4-5v-2h-2v-3l-10-2-13-3z" fill="#8C6459"/>
<path transform="translate(472,366)" d="m0 0h10v2h6l-1 3 3 1-4 2-4-4-5 1-3 7-1 1h-9l-4-4-5 1-1 1h-5l5-5 9-4z" fill="#231D1E"/>
<path transform="translate(204 1e3)" d="m0 0 3 2v6l-1 3 2 1v2h2l-1 5 1 5h-2l-1 16-2 9-1 4-1 15-2 1-1-15 2-14z" fill="#4D4243"/>
<path transform="translate(396,420)" d="m0 0h2l2 10 3 7v13l2 5h2l2 10 4 16 1 11 2 4-1 4-3-5-1-1-2-16-7-21-4-10v-9l-3-10v-6z" fill="#A77466"/>
<path transform="translate(509,1341)" d="m0 0h2l10 13 8 10 4 4v2l4 2 4 5-1 4-7-2-6-7-3-6-6-5-7-12-2-5z" fill="#0D0A0B"/>
<path transform="translate(521,630)" d="m0 0 5 1 5 3 9 2 7-1 3-1 7 3 2-3 5 1 6 4 5 5h-10l-19-3-21-5v2h-2v-3h-2z" fill="#85736E"/>
<path transform="translate(654,887)" d="m0 0 3 2 3 9 5 13v-12l3 3 2 5-1 13h-1l1 9 3 12v6l-2-2-12-41-4-13z" fill="#554949"/>
<path transform="translate(472,662)" d="m0 0 5 5 6 7 7 9v2h2l16 20 11 15 10 14-1 3-1-3-3-1-6-8v-2h-2v-3h-2l-7-10-6-8-7-9v-2l-3-1-1-4h-2l-2-5h-2l-2-5-3-1-4-6-3-5z" fill="#362C2F"/>
<path transform="translate(504,413)" d="m0 0 4 1 6 11h10l-4 2h-9l3 6-2 4-8 3h-6l1-5 6-10h5l-2-3-1-5-3-1-5 5-4 5h-2l2-4 5-7z" fill="#B78675"/>
<path transform="translate(578,350)" d="m0 0 7 2 1 4-7 3v-4h-8l-1 8-4 1h-8l-3-3v-2h-2v-2l4-3 6-2 5-1z" fill="#271F21"/>
<path transform="translate(564,540)" d="m0 0 2 3 3 12-2 8-3 15 4 5-4-2-6-4-1-3 6-32z" fill="#453A3B"/>
<path transform="translate(572,586)" d="m0 0 4 2 9 6v2h-5l-1 4h-2v2l-5 2-2 3-4 2-1 9h-2l1-18 2-4h2l2-4 3-4z" fill="#362C2F"/>
<path transform="translate(526,1207)" d="m0 0h8l-1 2-10 2-70 7h-6l3-2 26-4 39-4z" fill="#0D0A0B"/>
<path transform="translate(693,1187)" d="m0 0h2l1 16 7 11 6 7-1 3-4 1-7-4-3-4-1 15h-1v-22z" fill="#645755"/>
<path transform="translate(496,239)" d="m0 0 6 12v5h2l1-5 3-1v3l5-1 18-1 4 1v2l-21 1-6 3-2-1-1 6-4-2-3-10-3-2-1-7-5 10h-2l1-9 2-3z" fill="#362C2F"/>
<path transform="translate(416,243)" d="m0 0 3 3v1l17 1 4 2-2 1-1 3-7 1h-7l-2-2-11-1-5 2-3-1v-2l5-4z" fill="#362C2F"/>
<path transform="translate(665,1336)" d="m0 0h1v13l-1 5v20l2 18-3 23-5 15-4 13-4 12-1-3 11-39 2-12v-26l-1-15z" fill="#362C2F"/>
<path transform="translate(610,430)" d="m0 0 1 3-1 3 2-1 2-4 1 9h-2v-2h-3l-3 10-1 5h-2l-1 4-5 2-1 5-3 7h-2l-2-5v-5h2v-8l-4-10-4-5 4 2 2 4h2l3 7v5l3-1 2 1 1-4h2l3-10 3-11z" fill="#8B6358"/>
<path transform="translate(569,418)" d="m0 0 3 1v3h2l2 5 2 2v2l11 12-1 2-8-7-19-9 3-6-3-1 4-2z" fill="#805347"/>
<path transform="translate(434,260)" d="m0 0h18l13 2 1-2h11l-1 2-10 1-4 1-10-1-19 1-8 2h-5v2l-4 1-11 8-7 10-1-3 6-9 7-7 8-4 5-2z" fill="#805347"/>
<path transform="translate(693,1290)" d="m0 0 6 1 5 5-1 7-6 4h-6l-3-6 1-6z" fill="#512F28"/>
<path transform="translate(394,306)" d="m0 0h3v3h3l5 10 5 12 1 10-6 12h-2l-1 6h-2l1-8 6-11v-6l-2-2-2-11-4-2-4-3z" fill="#A57366"/>
<path transform="translate(636,846)" d="m0 0 1 2h2l2 3 4 14 1-5 2 4 3 17 2 7v6l-2-3-4-11v5h-4l-1-5 1-1-1-9-4-15-2-4z" fill="#9D9898"/>
<path transform="translate(546,475)" d="m0 0h11l4 2v7l-2 2v5l2 3-4-1-2-4 1-5h2l-1-4-6-2-8 1-7 3v4l7 8-1 5h-2l2 4v3l-6-1v-2h-2l1-3h3l2-4-8-11 2-4 6-5z" fill="#805347"/>
<path transform="translate(678,728)" d="m0 0 4 4 5 11 4 8 4 13v3h2l3 8 1 13-3-1-5-19-5-12-8-19-2-5z" fill="#918A89"/>
<path transform="translate(430,495)" d="m0 0h6l5 4h4l3 2 1 3 2 1 1-2 3 3 5 1-1 2-5 1-3-3-5 1-6-4-1-3-3-2-1 5 4 10 4 7 2 4-5-3-4-9v-2l-4-1-3-10z" fill="#463C3D"/>
<path transform="translate(500,449)" d="m0 0h2v2h5v5l-5 1-3 9-2 3-5-1-1-7-3-1 1-3 8-7z" fill="#493B3B"/>
<path transform="translate(538,436)" d="m0 0h7v7l3 3v2h3l-2 5-10 1-5-2 1-6 4 2-1-3-3-1 1-7z" fill="#35292B"/>
<path transform="translate(650,1313)" d="m0 0 5 2 3 4 4 14-1 4v-2l-5 1-3-2-3-7-1-13z" fill="#0D0A0B"/>
<path transform="translate(693,1216)" d="m0 0 4 3v2l4 2 5 1 4-1 3 4v2l3 1 1 5v9h-1v-6h-2l-4-4-7-2-2-4-4-2-3-3h-1z" fill="#83716D"/>
<path transform="translate(573,356)" d="m0 0h4l-1 6 5-1-4 4-5 2-13 2 2 5-3 2h-5v2h-3l-1 4-4-2-1-3 6-4 6-6 8-1 6-3z" fill="#8C6459"/>
<path transform="translate(519,454)" d="m0 0 2 1h8l6-1 3 1h8v3l-6 2-16 2h-8l-4 1-2-1 1-4 7-2z" fill="#8F665A"/>
<path transform="translate(696,1137)" d="m0 0h1l4 39 4 15 1 4h2l5 11h2l1 4-3-1 1 6-2-3-1-6-2-1-1-5h-2l-1-6h-2l-5-12-1-14 1-12h-2z" fill="#5C4B49"/>
<path transform="translate(450,559)" d="m0 0 4 1 18 18-1 4-3 2-3 1v2h-2l-2 4-2 1v-4l5-2-1-8-2-5-3-1v-2h-2l-6-8z" fill="#231C1D"/>
<path transform="translate(408,254)" d="m0 0 4 1v3l-10 8-6 8-4 1-2-1 2-7 1-2h2l2-4 7-6z" fill="#201A1B"/>
<path transform="translate(438,233)" d="m0 0 7 1 11 5 1 5 3 1-2 3-5-2-10-2-5-4 1-5-2-1z" fill="#201A1B"/>
<path transform="translate(660,1198)" d="m0 0h8l3 3 4 9-2 6-4 3h-11l-4-4-1-9 4-6zm0 2-2 2-1 4-2 2 1 5 2 4h9l4-3-1-2-2-1 1-9-2-2z" fill="#362C2F"/>
<path transform="translate(578,656)" d="m0 0 2 2 4 14 2 6 3 12 3 1 2 11 7 17-1 3-7-14-5-11-2-9-4-6-2-15-2-6z" fill="#827775"/>
<path transform="translate(451,535)" d="m0 0 9 2 10 5 9 3v2l4 2 6 4v2l5 2 1 3 4 1 8 7h-3l-10-6v-2l-4-2-14-8-11-7v-2l-6-1-8-4z" fill="#968D8B"/>
<path transform="translate(391,485)" d="m0 0 4 2 4 10 5 4 3 7-4 1-7-5v-2l-3-1v-2l-2-1-1-5-2-1z" fill="#C3C3C6"/>
<path transform="translate(596,639)" d="m0 0 3 1 2 7v8l-3 4-6-1v-2h-2v-7l3-7z" fill="#8B8381"/>
<path transform="translate(597,340)" d="m0 0h1v10l-1 2v5l-3 5h-2v2l-7 2-3-7 6 1 2-2v-7h-2l2-4 4-2z" fill="#8D655A"/>
<path transform="translate(584,326)" d="m0 0 7 2v1l-11 1v2l-21 8-15 8-5 7-1 7-3-3 1-5 6-8 16-9 9-4 14-6z" fill="#8C6459"/>
<path transform="translate(540,751)" d="m0 0 2 3 6 10 1 4v6l1 4-3 1v-2l-4-2-2-2 1-1-3-2v-4-3l2-6h-2l-1-5z" fill="#352B2E"/>
<path transform="translate(535,642)" d="m0 0 9 1 15 3 19 1v3l-19 1-7-2-9 1-8-7z" fill="#9E9999"/>
<path transform="translate(540,616)" d="m0 0h2l5 6 2 1-1 3h-8l-1 2-3 3h-9l-4-3 7-2 5-5 6-2z" fill="#5D4B49"/>
<path transform="translate(546,350)" d="m0 0 2 1v3l4 4 3 1 3 5-6-2-1 5-2 1h-6l-2-2-1-6z" fill="#512F28"/>
<path transform="translate(541,595)" d="m0 0 6 1 6 5v9l-3 2-5-5-5-2-1-5-2-3z" fill="#A47365"/>
<path transform="translate(558,425)" d="m0 0v3l-4 3-13 1-8-3h-8l-6 1 1 7-6 4-4-1h3l2-7-1-3 7-3 4-1h7l7 2 17-1z" fill="#7D5348"/>
<path transform="translate(599,487)" d="m0 0 2 1-4 13-4 6-4 4-1 2-5 1-1-3 2-7h3l1-5 4-1 2 1 1-8h2z" fill="#362C2F"/>
<path transform="translate(563,515)" d="m0 0 2 1v8h2l1-6h2l1 10h2l1 8-6-1-1 2-2-2-1-7-3 3v-6-3h1z" fill="#3F3537"/>
<path transform="translate(500,200)" d="m0 0h10v2l10 2 7 1-1 2h-4l-1 3-12-1-8-2 1-6z" fill="#201A1B"/>
<path transform="translate(265,1446)" d="m0 0h2l-1 4h4l2 9 1 3-3 5-2-1-3 1-2-5-1-14z" fill="#352C2E"/>
<path transform="translate(594,343)" d="m0 0v3l-5 3-1 2h2l1 7-3 3-6-1-6 2 1-6h-4l-2 7-1-3v-5l1-1 8 1 1 3 6-2-2-4v-3l-4-1 9-3z" fill="#805347"/>
<path transform="translate(542,496)" d="m0 0 3 1-1 7-1 5h-3v2l-4 1-1-4-3 1-2 4-4-1v-5l-3-1v4h-3l-1 3-1-3-2-2 10-4 3 1 1 2 1-2h2v-2h3v2l6 1-2-7h2z" fill="#805347"/>
<path transform="translate(672,947)" d="m0 0 2 1 2 7v11l2 19-1 4-5-10-3-9h1v-9l3 4-1-13-1-4z" fill="#665958"/>
<path transform="translate(584,447)" d="m0 0 4 3v5l-3 5-1 2-9-1-8 1v-3l5-2v-2l-8-2-9-1-5-1 2-3 9 2 15 2 1 3-1 3 7-1 3-5z" fill="#50312A"/>
<path transform="translate(440,358)" d="m0 0v3l-7 9-1 2h4l12-2 5-1-5 5-4 6 4 1h-6v-5h-5l-5 1-2-1v-7l6-8z" fill="#8B6359"/>
<path transform="translate(636,808)" d="m0 0 2 3 8 37 4 19 3 9 1 10-2-2-3-9-5-23-6-31-2-9z" fill="#766966"/>
<path transform="translate(404,344)" d="m0 0v3l-3 8-1 4-1 38-1 7h-2v2h-3l-6-7v-5l1 4 6 1h2l1-10 1-31 2-8z" fill="#8C6459"/>
<path transform="translate(448,530)" d="m0 0 10 2 19 10 8 3v1l-10-1-9-4-8-4-9-3z" fill="#493D3E"/>
<path transform="translate(478,371)" d="m0 0 5 2-1 5h-2v2l12-3h3v3l2 1-4 4-4-1-1-2-15-1 2-3v-4h2z" fill="#8C6459"/>
<path transform="translate(410,251)" d="m0 0 11 1 2 4-7 2v2l-8 4-3 3h-2v2l-4 3-2-1 8-9 7-5-1-2-3-2z" fill="#352B2E"/>
<path transform="translate(675,959)" d="m0 0 2 2 5 25 1 16-2-3-4-10-1-17z" fill="#433839"/>
<path transform="translate(488,171)" d="m0 0h9v2l7 1 2 3h-3l-1 2-20-1 1-2h2l2-4z" fill="#362C2F"/>
<path transform="translate(624,767)" d="m0 0h3l6 14 2 6 5 1 1 4-1 1h-5l-4-3-7-19z" fill="#BEBDC0"/>
<path transform="translate(447,1267)" d="m0 0h7l1 4-1 2-8 3h-7l-2-1 1-4z" fill="#352B2E"/>
<path transform="translate(395,1491)" d="m0 0h1v59h-2l-1-12 1-43z" fill="#201A1B"/>
<path transform="translate(542,482)" d="m0 0 4 1 1 3h3v-3h2l1 4-1 2 2 1v5l-2-1v-2l-2 1-1 3h-2l-4-6v-2l-4-2z" fill="#3D3234"/>
<path transform="translate(501,469)" d="m0 0 2 1-5 4-4 8-1 1v7l1 3h-2l-1-6-4-1 2-16 4 5 6-5z" fill="#82564A"/>
<path transform="translate(425,196)" d="m0 0 2 2-1 3-2 1h-11l-11 4-5-1v-1l12-2v-2l-8 1-4-1 6-1v-2h8l9 3 2-3z" fill="#584746"/>
<path transform="translate(716,1226)" d="m0 0h1v5h2l1 6v14l-4 10-5 2 2-4 3-7v-17l-1-5-2-1 1-2 2 1z" fill="#665856"/>
<path transform="translate(692,1157)" d="m0 0 2 2 2 26v10h-1v-8h-2v23h-1l-1-16z" fill="#473D3D"/>
<path transform="translate(556,503)" d="m0 0 2 2 2 3v8l-2-1-1-3-1 9h-1v-5h-2v-2l-3 2v2h-4v3l-5-1-1 3 1-5 3 1 1-4 4-4 3 2 1-4h2z" fill="#4F322C"/>
<path transform="translate(598,1366)" d="m0 0 4 1 3 4-1 7-4 6-2 2-4-1 5-11-1-4z" fill="#7B5146"/>
<path transform="translate(561,542)" d="m0 0h1v11l-1 5h-2l-1 7-3-4-1-10z" fill="#886157"/>
<path transform="translate(411,246)" d="m0 0h3l1 2 11 1v3l-4 2-1-1-11-1-5 2-3-1v-2l5-4z" fill="#453B3C"/>
<path transform="translate(534,225)" d="m0 0h5l6 2 4-1 6 3-2 3-10-1h-5v2h-4v-3l-3-3h3z" fill="#43393A"/>
<path transform="translate(415,181)" d="m0 0h7v2l-20 3-11 4-8 5-6 4-2-1 11-9 9-4z" fill="#827675"/>
<path transform="translate(460,161)" d="m0 0h7l12 2v1h-13v-2l-9 3-10 6-5 5 1 1v3l-3 3-2-1v-6l4-5 11-7z" fill="#867B79"/>
<path transform="translate(659,1406)" d="m0 0h2v11l-6 13h-2l-1-4 5-16z" fill="#1F191B"/>
<path transform="translate(714,1044)" d="m0 0 2 4 2 13 1 3 1 5v11l-2 6h-1l-1-18-2-10z" fill="#0D0A0B"/>
<path transform="translate(334,571)" d="m0 0 2 3h-3l-2 5-5 4-4 4-7 5-4 1-2-2 8-6 14-11z" fill="#6D605F"/>
<path transform="translate(530,438)" d="m0 0h2l1 4-2 5-5 1-2-1v3l-8 1-1-2 1-3 3-2 1-4h1v6l2 1 1-4 4-2z" fill="#463B3B"/>
<path transform="translate(594,748)" d="m0 0 3 3 5 9 7 14 5 13-1 2-8-15-10-21z" fill="#BBBABC"/>
<path transform="translate(523,506)" d="m0 0 4 1-1 5h5v3h-3l-2 4-1-6h-2l-1 3-3 1-1-6-5 3h-2v-2l-4-1 1-3 5 3h2v-2l8 1z" fill="#805347"/>
<path transform="translate(533,519)" d="m0 0h1l1 16-1 9-6 3h-2l1-4 4-2v-6l-4-1 1-6h1v5l2-1z" fill="#463C3D"/>
<path transform="translate(572,338)" d="m0 0h12l1 5-4 2-5-1v-2l-11 1-6 1 4-3z" fill="#463B3C"/>
<path transform="translate(574,222)" d="m0 0 5 1v2l4 2 3 6 2 6h-3v-2h-4l-8-11zm5 7 1 3 2-1z" fill="#665856"/>
<path transform="translate(663,1405)" d="m0 0h1v10l-5 15-4 13-4 12-1-3 11-39z" fill="#3E3436"/>
<path transform="translate(628,766)" d="m0 0 5 1 3 4v15l-3-2-5-13z" fill="#706361"/>
<path transform="translate(562,534)" d="m0 0 2 1v2l3 1-3 1h-2l-6 4-15 6-3-3 1-4h2l1-2 1 4 1 1v-3h8l3-1 5-5z" fill="#3E2E2E"/>
<path transform="translate(634,851)" d="m0 0h3l3 9 3 10 1 9-2 1-3-9-5-18z" fill="#AFADAE"/>
<path transform="translate(353,278)" d="m0 0h1l2 9v7h3l1-3 1 5 2 1v6l-2 2-2-1-1-3h-3l-1-6v-6l-1-1z" fill="#5D4B49"/>
<path transform="translate(337,990)" d="m0 0 2 1 2-1v21l-2 6-2-4z" fill="#362C2F"/>
<path transform="translate(483,497)" d="m0 0h4l1 3v7l3 5 2-3 2 5 2 1v2h-3l-2-3-2 2-1-3h-2l-2-7h-4l1-8z" fill="#483938"/>
<path transform="translate(695,1181)" d="m0 0 2 3 1 9 2 4 5 5 7 11 2 8-2-1-6-12-8-10v-2h-2v7h-1z" fill="#201A1B"/>
<path transform="translate(569,418)" d="m0 0 3 1v3h2l2 5 2 2v2l5 6-5-2-8-5-1-2 2-5-1-3-5 2z" fill="#8C6459"/>
<path transform="translate(307,1084)" d="m0 0h2l1 14v11l-1 6-2-2-1-12v-9z" fill="#362C2F"/>
<path transform="translate(475,495)" d="m0 0h2l1 6-1 6 1 3 2-1-1 5h-3l-1-5-3 2-2-3v-3h-2l1-5h2l1 4 2 1v-9z" fill="#463B3C"/>
<path transform="translate(494,493)" d="m0 0 8 8h3l1 2 4 2v3h2v2l3 1-3 1-7-5-2-2-3 1-2-3h-3z" fill="#8C6459"/>
<path transform="translate(486,181)" d="m0 0h9l3 3-2 2-7 1-4 1-7-3 3-2z" fill="#362C2F"/>
<path transform="translate(719,1226)" d="m0 0 2 2 1 22v6l-6 7h-2v-2l2-1 3-9v-14l-1-10z" fill="#94827D"/>
<path transform="translate(665,899)" d="m0 0 3 3 2 5-1 13-3 3-2-8 1-7z" fill="#807777"/>
<path transform="translate(475,355)" d="m0 0h11l4 2-2 3-6 1h-8v-4z" fill="#46302D"/>
<path transform="translate(604,731)" d="m0 0 4 5 8 16 8 17-1 3-7-15-7-12-5-10z" fill="#746562"/>
<path transform="translate(451,535)" d="m0 0 9 2 10 5 9 3v2l4 2-2 1-9-3-7-4v-2l-6-1-8-4z" fill="#8F8583"/>
<path transform="translate(474,351)" d="m0 0h13l8 2v1l-10-1h-9l-12 2-1 3-14 2 4-5h8l5-3z" fill="#675A59"/>
<path transform="translate(398,1444)" d="m0 0 5 3 2 4 4 2 1 5-8-4-1-3-9-4 1-2z" fill="#0D0A0B"/>
<path transform="translate(587,291)" d="m0 0 3 3 2 9 2 6-1 7-2-1-4-15z" fill="#4A3F3F"/>
<path transform="translate(592,245)" d="m0 0 2 2 1 3v13l1 2v7l-3-1-2-10 1-3-1-10z" fill="#6D5E5C"/>
<path transform="translate(474,206)" d="m0 0h7l-2 4h5l-2 4 3 2-5 2-4-1v-3l-2-1 1-4-2-2z" fill="#362C2F"/>
<path transform="translate(693,1187)" d="m0 0h2l1 16 3 5v5l-3 1v-2h-2l-1-5z" fill="#645755"/>
<path transform="translate(346,980)" d="m0 0h2l1 10-1 16h-2l-1-7v-14z" fill="#362C2F"/>
<path transform="translate(654,887)" d="m0 0 3 2 3 9 4 11v5h-3l-7-23z" fill="#615453"/>
<path transform="translate(370,524)" d="m0 0h1l-1 11-2 8-6-1 3-9z" fill="#61504E"/>
<path transform="translate(573,356)" d="m0 0h4l-1 6 5-1-4 4-5 2h-8l1-2 5-2z" fill="#83574B"/>
<path transform="translate(315,1072)" d="m0 0 2 3 1 17-1 2v8l-2 2-1-5v-20z" fill="#362C2F"/>
<path transform="translate(381,406)" d="m0 0 4 4 3 6 2 5-5-1-6-7 1-6z" fill="#DBA796"/>
<path transform="translate(472,366)" d="m0 0h10v2h6l-1 3 3 1-4 2-4-4-5 1-2 3v-4l-2-1h-10l3-2z" fill="#4B2F2A"/>
<path transform="translate(595,275)" d="m0 0h1v15l1 10-1 5h-2l-2-8h2l-2-14 3-1z" fill="#786D6C"/>
<path transform="translate(409,189)" d="m0 0h2v3h5l-1 4h-15l-3-3 11-3zm-4 3-1 2h2z" fill="#8B7D7A"/>
<path transform="translate(380,209)" d="m0 0 2 1-5 5-5 1-4 2-2 5-2 2-3 1v-3l13-13z" fill="#5D4B49"/>
<path transform="translate(475,167)" d="m0 0h17l13 4v2l-5-1-2-1-12-1-8 1-4-3z" fill="#665654"/>
<path transform="translate(457,370)" d="m0 0 3 1-1 2 5-1 2-2h3v4l-5 4-3-1-1-2-5 1-1 1h-5l5-5z" fill="#3D3031"/>
<path transform="translate(552,361)" d="m0 0 4 2h14l-2 2-12 1h-2l-3 3-9 2-2-4v-5l2 4 1 1h8v-5z" fill="#594542"/>
<path transform="translate(702,950)" d="m0 0h1v11l-3 15-2-4-1-4v-8l4-2z" fill="#453A3B"/>
<path transform="translate(416,497)" d="m0 0h4l5 10 6 7v2l-5-2-4-4-2-5-4-5z" fill="#8B645A"/>
<path transform="translate(584,351)" d="m0 0 3 1 1 6-2 1-4-1-1 3-5 1 1-6h-4l-2 7-1-3v-5l1-1 8 1 1 3 6-2z" fill="#5F4A48"/>
<path transform="translate(584,326)" d="m0 0 7 2v1l-11 1v2l-14 5 2-4 8-4z" fill="#8A6257"/>
<path transform="translate(323,874)" d="m0 0 2 1-1 4 2 1-1 6v6l1 2h-2l1 8h-3v-15l-1-5z" fill="#362C2F"/>
<path transform="translate(505,427)" d="m0 0 4 1 2 6-4 3h-6l2-6z" fill="#CB9383"/>
<path transform="translate(488,224)" d="m0 0h3l-3 9-5 2h-3v-3h2v-4h3v-3z" fill="#201A1B"/>
<path transform="translate(526,504)" d="m0 0 3 1 1 2 1-2 2 1-3 7-4-1v-5l-3-1v4h-3l-1 3-1-3-2-2z" fill="#8C6459"/>
<path transform="translate(724,794)" d="m0 0 2 4 8 24v2h-2l-3-7-3-8-1-3z" fill="#584B4A"/>
<path transform="translate(521,545)" d="m0 0h5v2l7-1h5l-1 2-12 1-9-1-10 1v-2l2-1z" fill="#372C2E"/>
<path transform="translate(478,371)" d="m0 0 5 2-1 5h-2v2l2 1h-9l2-3v-4h2z" fill="#936D62"/>
<path transform="translate(450,373)" d="m0 0 2 1-2 2 10-2 4 4h9 3l-3 3-11-1-3-3-3-1v2l-10 1 3-5z" fill="#614B48"/>
<path transform="translate(406,1059)" d="m0 0h1l1 10-2 5-1 11-2-1 1-20z" fill="#0D0A0B"/>
<path transform="translate(627,611)" d="m0 0 3 1 6 10-1 2-1-3-8-2-1-2h-2l2-5z" fill="#4D4243"/>
<path transform="translate(367,367)" d="m0 0 5 2 9 7v2l3 1-1 4-2-2-3 1-5-9-2-1v-2l-4-2z" fill="#875D52"/>
<path transform="translate(704,1180)" d="m0 0 2 1 6 18 2 7-2 2-6-16-2-6z" fill="#7C6D69"/>
<path transform="translate(359,358)" d="m0 0h2v7l3 1 1 4v3h-8l2-12z" fill="#C29284"/>
<path transform="translate(707,1266)" d="m0 0 4 1-9 5-3 2-6-1 4-4 4-2z" fill="#100D0E"/>
<path transform="translate(710,1157)" d="m0 0h1l-1 8-4 11h-1v-13z" fill="#5A4947"/>
<path transform="translate(216,795)" d="m0 0h2l1 16v3l-1 6h-2l-1-23z" fill="#604E4C"/>
<path transform="translate(525,527)" d="m0 0h3v7l1 1v5l-5-2-3-6 3-3z" fill="#362C2F"/>
<path transform="translate(589,614)" d="m0 0 2 3-1 4-2 2h-8l-4-2 8-3z" fill="#9A9594"/>
<path transform="translate(505,517)" d="m0 0h6l2 3 3 2-1 2-5-1-1-3-2 5-2-1v-2l-5 1 2-4z" fill="#463C3D"/>
<path transform="translate(450,354)" d="m0 0h12l-1 2h-8l-4 4-5 1-1-5z" fill="#8C6459"/>
<path transform="translate(601,720)" d="m0 0 2 3 4 9-1 2-5-3-4-7 1-2z" fill="#96908F"/>
<path transform="translate(584,692)" d="m0 0 4 1 3 9 2 3-1 3-5-4-3-9z" fill="#9E9999"/>
<path transform="translate(362,344)" d="m0 0h1v9l2 1-1 5 1 5h-3l-1-12h-2l1-4v-3l1 1z" fill="#5D4B49"/>
<path transform="translate(228,1207)" d="m0 0h6l2 5v4l-5 1-3-7z" fill="#3A3032"/>
<path transform="translate(419,246)" d="m0 0h18l5 2v2l-26-2z" fill="#201A1B"/>
<path transform="translate(528,452)" d="m0 0h8l6 2v2l-11-1-4 1h-6l-2-3z" fill="#7B5147"/>
<path transform="translate(723,1229)" d="m0 0 2 2 2 10v9l-3 3-1-9 1-3z" fill="#6A534F"/>
<path transform="translate(670,1201)" d="m0 0 3 4 2 7-4 2-4-3 2-8z" fill="#352B2E"/>
<path transform="translate(396,750)" d="m0 0h2l1 4-1 15-2 2-2-17z" fill="#362C2F"/>
<path transform="translate(494,452)" d="m0 0h4v9l-1 3h-3l-2-6z" fill="#332A2C"/>
<path transform="translate(201,1051)" d="m0 0 2 3 1 2-1 15-2 1-1-15z" fill="#4F4445"/>
<path transform="translate(401,711)" d="m0 0 2 3 3 12-4-1-3-7v-5h2z" fill="#2C2426"/>
<path transform="translate(537,434)" d="m0 0h8l-1 3h-8l-1 7 4 1v3l-3-1-2 2-1-1 1-9 1-4z" fill="#201A1B"/>
<path transform="translate(515,429)" d="m0 0h4l1 8-6 4-4-1h3l2-7-1-3z" fill="#84594D"/>
<path transform="translate(438,250)" d="m0 0 11 3 1 2-17 1 4-2z" fill="#453B3C"/>
<path transform="translate(644,882)" d="m0 0 1 3h2l3 12v6l-2-1-4-13z" fill="#B2B0B2"/>
<path transform="translate(535,253)" d="m0 0 4 2-22 1-9 4-2-1-1 2 1-6 3 2 6-3z" fill="#463C3D"/>
<path transform="translate(676,1291)" d="m0 0h2l-1 9-1 1h-5l1-5z" fill="#0D0A0B"/>
<path transform="translate(666,703)" d="m0 0 5 3 5 8 1 5-2 2-6-11-3-5z" fill="#392F32"/>
<path transform="translate(431,516)" d="m0 0 5 2 5 4 5 5 3 6 2 2-4-1-3-6-5-3-5-6z" fill="#867A77"/>
<path transform="translate(417,293)" d="m0 0 4 1 1 7-2 2-4-3-1-5z" fill="#DBA796"/>
<path transform="translate(391,1513)" d="m0 0h1l1 35h-2l-1-4z" fill="#3B3134"/>
<path transform="translate(578,656)" d="m0 0 2 2 4 14v8l-2-1-2-12-2-6z" fill="#615656"/>
<path transform="translate(534,537)" d="m0 0h2l1 2 4 1v2h-2l-1 4-6 1-2-2 3-3z" fill="#201A1B"/>
<path transform="translate(563,515)" d="m0 0 2 1 1 9 1 3-2 2-1-2-3 3v-6-3h1z" fill="#3D3335"/>
<path transform="translate(550,483)" d="m0 0h2l1 4-1 2 2 1v5l-2-1v-2l-2 1-1 3h-2l-1-3h2v-5l-1-2h3z" fill="#523028"/>
<path transform="translate(472,249)" d="m0 0 3 1-2 4-4-1-2 4h-6l5-7 6 1z" fill="#463C3D"/>
<path transform="translate(373,214)" d="m0 0 2 1-8 11h-2v2l-4 1v-3l3-3h2l2-5z" fill="#675A59"/>
<path transform="translate(713,1209)" d="m0 0 4 2 3 7v5l-2 1-1-5h-2z" fill="#827572"/>
<path transform="translate(650,897)" d="m0 0 2 3 2 8v8l-3-3-2-10z" fill="#A6A2A3"/>
<path transform="translate(394,306)" d="m0 0h3l5 13 1 2-4-2-4-3z" fill="#85736E"/>
<path transform="translate(628,766)" d="m0 0 5 1 2 2v7l-4-2v-2l-3-1z" fill="#584B4A"/>
<path transform="translate(545,619)" d="m0 0 5 2 5 3h8l2 1v2l3 1-2 1-14-4-6-3z" fill="#8A7F7D"/>
<path transform="translate(657,1427)" d="m0 0 2 1-2 10-6 17-1-3z" fill="#362C2F"/>
<path transform="translate(656,1211)" d="m0 0 6 3 5-1 4-1-2 4-2 1h-9z" fill="#201A1B"/>
<path transform="translate(707,1195)" d="m0 0 2 2 4 9h2l1 4-3-1 1 6-2-3-1-6-2-1-1-5h-2z" fill="#635352"/>
<path transform="translate(541,495)" d="m0 0 1 4h-2l2 4v3l-6-1v-2h-2l1-3h3l2-4z" fill="#8D6459"/>
<path transform="translate(610,430)" d="m0 0 1 3-1 3 2-1 2-4 1 9h-2v-2h-3l-1 5h-1v-10z" fill="#776562"/>
<path transform="translate(611,422)" d="m0 0 2 1 1 8-2 5h-2v-5l-2-4z" fill="#8C736C"/>
<path transform="translate(543,196)" d="m0 0 10 3-2 2-1 4-2 2v-3l-3-1z" fill="#5F4F4D"/>
<path transform="translate(645,1465)" d="m0 0 1 3-4 9-7 8-3 3-2-1 7-7 6-11z" fill="#362C2F"/>
<path transform="translate(606,581)" d="m0 0 5 2 4 4 5 3 4 3-1 2-13-9-4-3z" fill="#4A3F3F"/>
<path transform="translate(506,172)" d="m0 0 5 2 5 5 2 4-5-2-5-4v-3h-2z" fill="#695B5A"/>
<path transform="translate(712,1300)" d="m0 0 4 2 1 3-4 3-4-1-1-4z" fill="#453231"/>
<path transform="translate(654,914)" d="m0 0 2 3 2 8v5l-3-2-3-13z" fill="#9F9A9B"/>
<path transform="translate(564,540)" d="m0 0 2 3 1 9-1-2h-2l-1 4-2 1 2-13z" fill="#523028"/>
<path transform="translate(537,529)" d="m0 0h2l1 6 2 3-1 2-5-1v-2l-2-1z" fill="#2D2527"/>
<path transform="translate(517,457)" d="m0 0 2 4h5v1h-8l-4 1-2-1 1-4z" fill="#8C6459"/>
<path transform="translate(396,358)" d="m0 0h1v22l-2-3-1-7 1-11z" fill="#5D4B49"/>
<path transform="translate(578,350)" d="m0 0 7 2 1 4-7 3v-3l3-1-3-2-9-1v-1z" fill="#452E2B"/>
<path transform="translate(516,524)" d="m0 0 5 2v-2h6v3h-2l-2 5h-2l-1-5-4-2z" fill="#463C3D"/>
<path transform="translate(580,229)" d="m0 0 5 1 2 7 1 2h-3v-2h-4l-2-5 2-1z" fill="#766A68"/>
<path transform="translate(706,1203)" d="m0 0 4 2 5 11 1 8-2-2-5-13-3-4z" fill="#463A3C"/>
<path transform="translate(681,986)" d="m0 0h1l1 16-2-3-4-10 2-2 1 1z" fill="#493E3F"/>
<path transform="translate(561,204)" d="m0 0 6 4 6 7-2 1-5-4v-2l-6-2z" fill="#695957"/>
<path transform="translate(410,185)" d="m0 0 13 4v2l4-1-3 5-8-1v-1h6l-3-3-9-3z" fill="#8E8380"/>
<path transform="translate(568,632)" d="m0 0 4 1 2 5v3h2v-2h2l-1 7-5-4-4-8z" fill="#544848"/>
<path transform="translate(524,635)" d="m0 0 7 2 2 3h-2l1 4-6-2z" fill="#9C9797"/>
<path transform="translate(594,305)" d="m0 0h2l-1 17-3-3z" fill="#645654"/>
<path transform="translate(450,249)" d="m0 0 5 1 6 6-6-1 1 2-6-1 2-1z" fill="#463C3D"/>
<path transform="translate(716,1226)" d="m0 0h1v5h2v19h-1l-1-14-2-6-2-1 1-2 2 1z" fill="#423839"/>
<path transform="translate(716,1219)" d="m0 0 3 4 2-2 2 5v3l-4-2-2 4-1-5z" fill="#776663"/>
<path transform="translate(299,1092)" d="m0 0 3 1v12l-2 3-1-2z" fill="#362C2F"/>
<path transform="translate(678,974)" d="m0 0h2l1 7v11l-2-4-1-1z" fill="#342B2D"/>
<path transform="translate(529,736)" d="m0 0 5 5 5 7-1 2-6-5v-3h-2l-2-4z" fill="#362C2F"/>
<path transform="translate(521,630)" d="m0 0 5 1 5 6-6-1v2h-2v-3h-2z" fill="#867A77"/>
<path transform="translate(571,522)" d="m0 0 2 2 1 5h2l1-2 3 1-1 3h-3l-1 4-2-3v-4h-2z" fill="#5D4C4A"/>
<path transform="translate(493,453)" d="m0 0 1 3-1 3 1 5h3l1-3-1 5-4-1-3-4-2-1 1-3z" fill="#463B3C"/>
<path transform="translate(530,431)" d="m0 0 1 4-4 5h-4l2-5z" fill="#261F20"/>
<path transform="translate(549,344)" d="m0 0 2 1-7 5-3 7-1 4h-2v-6l6-8z" fill="#7F5247"/>
<path transform="translate(548,1441)" d="m0 0 2 1-2 5-3 3h-2l-1 3-3-1 6-7z" fill="#5A4846"/>
<path transform="translate(593,702)" d="m0 0 2 3 6 14-1 3-7-14-1-5z" fill="#8B8381"/>
<path transform="translate(562,534)" d="m0 0 2 1v2l3 1-3 1h-2l-6 4-4 1v-2l3-1 5-5z" fill="#3B3032"/>
<path transform="translate(483,497)" d="m0 0h4l1 3-3 6h-4l1-8z" fill="#4F322C"/>
<path transform="translate(494,478)" d="m0 0 1 3-2 2v7l1 3h-2l-1-6-4-1 3-5 3-1z" fill="#8C6459"/>
<path transform="translate(560,430)" d="m0 0 10 4 9 6-3 1-6-4-11-5z" fill="#403131"/>
<path transform="translate(396,1551)" d="m0 0h1l2 14v8l-2-4-1-1-1-16z" fill="#201A1B"/>
<path transform="translate(660,1198)" d="m0 0h8l2 2-1 3-2-2h-7l-3 1-1 3-1-3z" fill="#3F3537"/>
<path transform="translate(634,851)" d="m0 0h3l3 9-1 3h-2z" fill="#A7A2A4"/>
<path transform="translate(408,737)" d="m0 0h2l1 4 2 7-4-1-2-2-1-6z" fill="#362C2F"/>
<path transform="translate(556,604)" d="m0 0 2 2 3 9-1 2-4-1z" fill="#51332D"/>
<path transform="translate(517,467)" d="m0 0h5l-4 1-1 3-15 3 4-4 8-1z" fill="#B78675"/>
<path transform="translate(500,456)" d="m0 0 2 1-3 9-2 3-5-1 2-3h3l2-8z" fill="#523028"/>
<path transform="translate(531,456)" d="m0 0h2v2l-9 3h-5l-1-4h11z" fill="#A77466"/>
<path transform="translate(525,426)" d="m0 0h7l7 2-4 1h-10l-6 1-1-2z" fill="#875C51"/>
<path transform="translate(352,251)" d="m0 0 3 1-3 15h-1v-15z" fill="#463C3D"/>
<path transform="translate(451,221)" d="m0 0h3v2h2l1 4-5-1-6-1v-2z" fill="#201A1B"/>
<path transform="translate(714,1044)" d="m0 0 2 4 1 13-2 2-1-5z" fill="#161113"/>
<path transform="translate(296,1027)" d="m0 0h3v10l-2 4-1-3z" fill="#362C2F"/>
<path transform="translate(701,952)" d="m0 0h1v6l-2 2h-3l-1 3v-9l3 1z" fill="#5D4C4A"/>
<path transform="translate(707,899)" d="m0 0h1v19l-1 8h-1l-1-11z" fill="#0D0A0B"/>
<path transform="translate(552,440)" d="m0 0 3 1v6l3 3-7-1-1-1v-6z" fill="#382D30"/>
<path transform="translate(458,378)" d="m0 0 11 2v1l-22 1 1-2z" fill="#996B5F"/>
<path transform="translate(594,272)" d="m0 0h2l-1 10-4 1 1-9z" fill="#5E4C4A"/>
<path transform="translate(592,259)" d="m0 0 3 4 1 2v7l-3-1-2-10z" fill="#675654"/>
<path transform="translate(589,1324)" d="m0 0 3 1-1 5-2 2h-4l2-5z" fill="#0D0A0B"/>
<path transform="translate(698,1188)" d="m0 0 3 4 4 8-1 2-2-4-3-1-2-4z" fill="#362C2F"/>
<path transform="translate(258,1042)" d="m0 0h1l1 6-1 12-2-1v-16z" fill="#362C2F"/>
<path transform="translate(770,943)" d="m0 0h3l4 13-1 2-3-5-2-5z" fill="#463B3D"/>
<path transform="translate(448,530)" d="m0 0 4 1 3 1 1 2 4 2-2 1-9-3z" fill="#544848"/>
<path transform="translate(547,513)" d="m0 0 4 2-1 3h-4v3l-5-1-1 3 1-5 3 1 1-4z" fill="#463B3B"/>
<path transform="translate(552,448)" d="m0 0 9 2 7 1 1 2-14-1-5-1z" fill="#523028"/>
<path transform="translate(357,346)" d="m0 0 4 2-2 1v3h2l1 4v8h-1v-6h-2l-2-8z" fill="#6F6361"/>
<path transform="translate(442,171)" d="m0 0 2 1-2 4 1 1v3l-3 3-2-1v-6z" fill="#867875"/>
<path transform="translate(696,1205)" d="m0 0 3 3v5l-3 1v-2h-2l-1-6z" fill="#5B4A48"/>
<path transform="translate(533,537)" d="m0 0h1v7l-6 3h-2l1-4 2-2h4z" fill="#413738"/>
<path transform="translate(532,430)" d="m0 0 8 2h6v2l-7 1-7-1z" fill="#423231"/>
<path transform="translate(361,364)" d="m0 0 4 1 4 7 1 3-6-1 1-3-2-4z" fill="#B48272"/>
<path transform="translate(595,275)" d="m0 0h1v14l-2 3-2-9 3-1z" fill="#756765"/>
<path transform="translate(386,196)" d="m0 0 3 1-4 4h-5v2l-4 1 5-6z" fill="#877773"/>
<path transform="translate(462,501)" d="m0 0h2l3 4v3l-1 2h-2l-1-6h-2l-1 3 1-5z" fill="#463B3C"/>
<path transform="translate(367,377)" d="m0 0 4 2-2 2h-3v2l-5-1 2-4z" fill="#B68474"/>
<path transform="translate(562,345)" d="m0 0 2 1v2l-4 3h-6l1-3z" fill="#201A1B"/>
<path transform="translate(391,297)" d="m0 0 1 2-2 10-1 3h-2l1-9z" fill="#463C3D"/>
<path transform="translate(415,181)" d="m0 0h7v2l-14 2-5-1v-1z" fill="#918887"/>
<path transform="translate(673,1211)" d="m0 0 1 3-5 5h-10v-1l7-1 6-4z" fill="#514545"/>
<path transform="translate(401,200)" d="m0 0h8v2l-6 2h-6l1-3z" fill="#665857"/>
<path transform="translate(470,193)" d="m0 0v3l-2 2h-3v2l-6 2 1-3 7-5z" fill="#5D4B49"/>
<path transform="translate(687,1024)" d="m0 0h1l2 9 2 5v5l-2-4-2 1z" fill="#574B4B"/>
<path transform="translate(478,369)" d="m0 0 5 1 5 4v2l-4-1v-2l-6-1-2 2 1-4z" fill="#614E4B"/>
<path transform="translate(662,911)" d="m0 0 3 4 1 10h-2l-2-8z" fill="#4B3F40"/>
<path transform="translate(534,486)" d="m0 0 4 2 5 6-1 2-3-1-5-7z" fill="#84584D"/>
<path transform="translate(587,1380)" d="m0 0 2 1-4 7h-3l1-5z" fill="#805347"/>
<path transform="translate(719,1226)" d="m0 0 2 2v13l-2-4-1-10z" fill="#8A807E"/>
<path transform="translate(396,705)" d="m0 0h2v2h2l1 6-3 1-2-5z" fill="#31282A"/>
<path transform="translate(600,601)" d="m0 0 7 2v1h-7l-3-1-1 4h-2l1-5z" fill="#96908F"/>
<path transform="translate(470,543)" d="m0 0 9 2v2l4 2-2 1-6-2-3-3z" fill="#877B77"/>
<path transform="translate(560,443)" d="m0 0 4 1v2l4-2 4 1h-2v2l-8 1z" fill="#362C2F"/>
<path transform="translate(375,398)" d="m0 0h1v7l2 7-3-1-2-4 1-6-1-2z" fill="#B78675"/>
<path transform="translate(475,355)" d="m0 0h11l4 2v1h-5l-1-1-7-1-1 3h-2z" fill="#473A3A"/>
<path transform="translate(365,304)" d="m0 0 4 1v5l-3 3-2-7z" fill="#5D4B49"/>
<path transform="translate(351,293)" d="m0 0h1l1 11-1 5-2-3v-8z" fill="#85736E"/>
<path transform="translate(518,183)" d="m0 0 5 1 9 5 1 2-4-1-3-1v-2l-5-1z" fill="#726664"/>
<path transform="translate(658,1209)" d="m0 0 10 4-3 1-4 1-4-4z" fill="#382E31"/>
<path transform="translate(667,957)" d="m0 0 2 3 2 4v7l-4-4 1-3z" fill="#887E7D"/>
<path transform="translate(440,507)" d="m0 0h2v2h2l-1 8-3-3z" fill="#201A1B"/>
<path transform="translate(475,495)" d="m0 0h2l1 6-2 5h-1l-1-10z" fill="#523028"/>
<path transform="translate(561,423)" d="m0 0h3l-2 5 2 3h-5l-1-4 1-2h2z" fill="#5B4947"/>
<path transform="translate(356,375)" d="m0 0 2 4 3 3-1 4-1-2h-2l-1 3z" fill="#B98877"/>
<path transform="translate(540,362)" d="m0 0 2 4 7 2v2l-7 1-2-4z" fill="#5D4B49"/>
<path transform="translate(571,354)" d="m0 0 7 1-1 4v-3h-4l-2 7-1-3v-5z" fill="#6D4E48"/>
<path transform="translate(393,295)" d="m0 0h2l-1 8h-2l-1 3v-10z" fill="#5F4E4D"/>
<path transform="translate(368,226)" d="m0 0v3l-2 4-4 3 1-6 3-1v-2z" fill="#463C3D"/>
<path transform="translate(382,1438)" d="m0 0 7 1 2 4-7-1v-2h-2z" fill="#44383A"/>
<path transform="translate(304,1024)" d="m0 0 2 1 1 4-2 8h-1l-1-10z" fill="#362C2F"/>
<path transform="translate(422,507)" d="m0 0 3 2v2l4 1 2 4-5-2-4-4z" fill="#8D766F"/>
<path transform="translate(529,429)" d="m0 0 3 1h-2v2l-5 4-1 2h-2l1-6 5-2z" fill="#45312F"/>
<path transform="translate(549,427)" d="m0 0 6 1-2 2h-14v-1z" fill="#8C6459"/>
<path transform="translate(388,392)" d="m0 0h3l3 7-6-1z" fill="#7B544A"/>
<path transform="translate(573,356)" d="m0 0h4l-1 5-5 2z" fill="#8C6459"/>
<path transform="translate(370,213)" d="m0 0m-1 1m-1 1m-1 1m-1 1m-1 1m-1 1m-1 1m-1 1m-1 1m-1 1m-2 1 3 1-5 5 1-5z" fill="#675756"/>
<path transform="translate(373,199)" d="m0 0 2 1-11 11v-3z" fill="#817370"/>
<path transform="translate(429,181)" d="m0 0 2 1-6 5-3-2v-2l6-1z" fill="#8B807E"/>
<path transform="translate(362,211)" d="m0 0 1 2-3 5-1-2z" fill="#817572"/>
<path transform="translate(434,175)" d="m0 0v3l-2-1z" fill="#999190"/>
<path transform="translate(395,182)" d="m0 0 3 1z" fill="#B1AFB1"/>
<path transform="translate(435,174)" d="m0 0 2 1z" fill="#918683"/>
<path transform="translate(581,224)" d="m0 0" fill="#B1AFB1"/>
<path transform="translate(431,180)" d="m0 0" fill="#B1AFB1"/>
<path transform="translate(431,174)" d="m0 0" fill="#B1AFB1"/>
<path transform="translate(437,173)" d="m0 0" fill="#9E9999"/>
<path transform="translate(458,166)" d="m0 0" fill="#B1AFB1"/>
<path transform="translate(460,165)" d="m0 0" fill="#B1AFB1"/>
</svg>
