<?xml version="1.0" encoding="UTF-8"?>
<svg version="1.1" viewBox="0 0 1065 1600" width="407" height="611" xmlns="http://www.w3.org/2000/svg">
<path transform="translate(498,175)" d="m0 0 4 2 3 5 3 10 1-5 3 3 4 1-2 6 3-1 2-4 5-4 11-4 5-1h15l10 2-3-4 4 2 9 6 6 5-4-5 4 1 16 11 4 6 11 5 12 9 6 8 1 5 4 1 10 19 5 13 4 16-1 3-2 40v22l3 7v21l-4 15-9 26-8 19-5 11-7 28-4 12v7l4 2 9 14 14 18 8 10 9 7 18 10 9 7 14 14 10 6 13 5 23 6 10 2 10 4 10 8 19 14 9 8 5 7 3 11 9 50 6 35 4 21 3 31 4 19v10l-4 29v54l-1 101-7 68-4 22-12 42-10 28-14 36-8 18-10 23-13 22-11 21-5 13-3 32-5 34-9 36-7 19-10 21-3 4-6 21-8 25-5 25-7 31-8 41-3 19-1 2h-259l-9-25-14-41-8-29-14-34-8-16-10-14-4-5-1-3-1-24-4 1-15-3-14-6-6-2-11-7-9-7-10-5-6-9-4-10-5-5-13-12-7-15-5-12-2-6-16-3-2-1-1-3-2-36-4-20-5-21v-15l3-37 16-120 6-69 4-34 11-63 7-40 13-65 10-66 4-26 9-41 7-25 6-15 8-18 10-10 12-6 14-5 14-7 22-8 11-5 28-9 21-7 8-6 8-10-1-5-8-15-4-7-7-17-5-13-1-7h-2l-1-9h2l-2-12v-8l1-6v-17l-2-13-1-25 1-23 1-2v-15l-3-44 1-17 2-8v-7l5-12 10-13 5-5v3l4-3 3-5 7-8-5 5-3 2 2-6 7-8 6-5 2-5 1 2-1 2 9-4 2-2 15 1 9 3 8 6-5-8-6-7h3l3 2 1 3v-6zm13 24m-49 1-4 2v1l8-1v-2zm-25 28-4 4 1 2 4-4zm-5 6m-94 1130-9 6-18 8v2h2l2 4 8 5 11 7 5 4 1-2 1-10v-24z" fill="#2A2324"/>
<path transform="translate(498,175)" d="m0 0 4 2 3 5 3 10 1-5 3 3 4 1-2 6 3-1 2-4 5-4 11-4 5-1h15l10 2-3-4 4 2 9 6 6 5-4-5 4 1 16 11 4 6 11 5 12 9 6 8 1 5 4 1 10 19 5 13 4 16-1 3-2 40v22l3 7v21l-4 15-9 26-8 19-5 11-7 28-4 12v7l2 1-2 15-4 12-11 20-12 18-12 20-1 2h-2l-2 6-10 14-6 8-4 4-5 3-2 12-3 6h-2l-2 6-4 9-12 22-8 11-11 19-6 12-6 14-10 19-17 33-7 17-7 21-11 27-10 30-9 24-5 18-9 24-6 18-4 10-3 10-9 21-5 13-1 7-2 1-3-6-5 3-1 7 1 4h2l2 3 4-4-1 16-4 43-3 49v51l2 35v18l-10-3-4-2v-2l-9-3-9-5-4-4v-2h-2l-1-12-2-6v-14l2-13 5-10 2-20v-21l-2-10-1-11v-31l1-31 1-63 2-35 7-56v-38l-3-24-2-18v-15l2-27 5-28 5-20 8-23 9-19 6-12 6-16 9-17 6-9h2l3-13h-5l-1-5 5-10 8-13 6-10 5-12 8-13v-3l-4-2 10-4 7-6 7-9-1-5-8-15-4-7-7-17-5-13-1-7h-2l-1-9h2l-2-12v-8l1-6v-17l-2-13-1-25 1-23 1-2v-15l-3-44 1-17 2-8v-7l5-12 10-13 5-5v3l4-3 3-5 7-8-5 5-3 2 2-6 7-8 6-5 2-5 1 2-1 2 9-4 2-2 15 1 9 3 8 6-5-8-6-7h3l3 2 1 3v-6zm13 24m-49 1-4 2v1l8-1v-2zm-25 28-4 4 1 2 4-4z" fill="#88655C"/>
<path transform="translate(422,540)" d="m0 0h7l1 4-9 15-5 12-9 15-7 11-2 5v4l5 1-1 10-2 3h-2l-2 4-7 12-8 17-6 16-10 19-9 25-5 18-5 27-2 17-1 16v15l2 18 3 24v38l-6 45-2 26-1 20-1 63-1 31v31l2 17 1 4v21l-2 20-5 10-2 13v14l2 6v12h2l5 6 13 6-3 1-9-3-8-7-1-2-1-10-4-10-4-15v-16l4-19v-10l-2-9-1-29-2-17-2 1-3 16-3 21-4 17-2 13-3 17-1 12-4 20-1 10-1 23-5 29-3 15-7 38-2 15-2 8-1 10v11l1 7 4 1h3l1-4 3-7 2-4 4-1 1 5 1 3-1 3h2l4-8v-5h-5l-2 1 2-5 3-1 5 3 1 9-3 5 2 1 10-4 5-6 8-14 8-10 2-4 3-1 3 3 1 3v10l-4 8-1 15-7 4-14 7-9 3v2h2l4 5 13 7 8 7 2-1v3l-2 1-1 7-3 1-15-3-14-6-6-2-11-7-9-7-10-5-6-9-4-10-5-5-13-12-7-15-5-12-2-6-16-3-2-1-1-3-2-36-4-20-5-21v-15l3-37 16-120 6-69 4-34 11-63 7-40 13-65 10-66 4-26 9-41 7-25 6-15 8-18 10-10 12-6 14-5 14-7 22-8 11-5 28-9z" fill="#2A2324"/>
<path transform="translate(320,1085)" d="m0 0h2l2 10 1 7 1 29 2 9v10l-4 19v16l6 21 2 4 1 10 5 6 7 4 12 3v2l10 3 2 1v3h3l3 13 4 24 3 31 2 5-4 1-2-2 1 17 2 13v-10l-2-14 2-3 3 2 1-3 3 9h-2l2 9 4-1 3 12 1 5 6 11 2 5 4 2 6 12 10 13 11 8 22 15 11 6 6 3 5 1 2 1 1 7-5 9-6 13-2 8v18l3 10 5 3h5l1-1-1-8 3-8 1-3h2l2-5 7-10 5-8 2 1-3 10-11 27-1 13 1 9h2v2l3 1 4 7 2-1 2-5 3-6 4-6 3-8 8-11 6-10h3l-1 7-3 9-5 7-4 18 1 9h2l4 7 5 1h7l2-3 4-13 4-10 7-14 9-10 3-3 3 1 5 13v20l1 4h2l2 3h8l6-8 2-6 1-21 2-10 4-8 5-6h2l2-4 3-4 5 1 2 2 7 3 4 1 7 1 1 1 7-1 9-14 6-7 2-1 2-7 8-13 1-3 10-5 3 1 2 4 4 2-1 7-4 2-2 7-3 2 1 3h5l-5 4-4 4 7-3 6-1h4l2 3-2 13-7 22-5 25-7 31-8 41-3 19-1 2h-259l-9-25-14-41-8-29-14-34-8-16-10-14-4-5-1-3-1-22-1-2v-7l3-1v-40l1-12 4-8v-10l-3-5h-3l-2 5-9 12-8 14-6 5-9 3-2-2 3-5-1-9-6-2-1 3h5l1 1-1 7-4 6h-2l-1-6-2-4-3 2-1 4-4 9-6 1-2-2-1-13v-8l2-13 2-7 3-22 5-26 6-32 2-12 1-23 2-17 3-13 2-18 2-11 2-13 5-21 4-30z" fill="#191C2A"/>
<path transform="translate(615,498)" d="m0 0 2 2-1 8-5 11-5 8h-2l-1 4-2 1-4 10-3 5-8 15-7 12-6 14-10 14-6 8-4 4-5 3-2 12-3 6h-2l-2 6-4 9-12 22-8 11-11 19-6 12-6 14-10 19-17 33-7 17-7 21-11 27-10 30-9 24-5 18-9 24-6 18-4 10-3 10-9 21-5 13-1 7-2 1-3-6-5 3-1 7 1 4h2l2 3 4-4-1 16-4 43-3 49v51l2 35v18l-10-3-4-2v-2l-9-3-9-5-4-4v-2h-2l-1-12-2-6v-14l2-13 5-10 2-20v-21l-2-10-1-11v-31l1-31 1-63 2-35 7-56v-38l-3-24-2-18v-15l2-27 5-28 5-20 8-23 9-19 6-12 6-16 9-17 6-9h2l3-13h-5l-1-5 5-10 8-13 6-10 5-12 8-13v-3l-4-2 10-4 7-6 7-9v-4h2l2 7 4 7-1 4h-2l-2 5-5 8h-2l-2 4 1 8 1 4 1 14 1 5v7l-4 8-6 8v2l9 3 4 3v2l4 2 6 7 2 4-1-13-5-17-1-6 2-9 2-10 1-18 1-9 4-1v2l4 2 5 4 5 6v2h2l7 8 3 4 2 5 4 1 2 2 6 1 9-3 6-5 18-10 14-8 20-10h3v-2l8-6 7-5h2v-2l6-5 1-3h2l1-4 7-11z" fill="#CAC9CE"/>
<path transform="translate(466,268)" d="m0 0 7 1 11 6 14 5 5 2 10 2 5 4 7 1 10-4 8-1 10 1 11 3 11 7 7 8 5 5 10 11 4 6 3 11 1 5v20l-6 2-11-3-9 1-32 6-11 3-5 6h-2l1 7v13l2 9h4l3-6 5-3 8-3 6-3 7 1 17 1 5 3 20-2 6-3 4-8h3l3 10 2 5 1 10-5 13-3 3 2 3-9 18-8 6-6 3-1 6v8l-4 2-1 3-10 6-3 6-4 2-7 1-2 7-4 5-4 8-6 6-8 2h-6l-1-3h-6l-2-4 1-5 4-5v-3l-14-2-16-1-5 1 3 9-1 5-3 4h-11l-9-2-8-13-5-16 1-6 8-9 10 1 7 3-1-9 2-1 13 4 4 2 25 4 3 2-1 5v3l2 1h10l12-5h5l5 2 2-3h2l2-5v-7l-1-6-4-2-4-3-9-4-3-3-2-7v-4h-3l-5 6-12 3-11 6h-11l-2-1v-2l-4-2-5-3v-2l-14-2-3-3 4-7-1-2-14 8-10 6-4 4 3 16 2 5v6l-2 2-4-1-7-3-8-4-2-5-3-1-8-17v-2h-2l-3-8-1-1-1 6h-1v-8l1-6v-17l-2-13-1-25 1-23 2 1 2 10v24l3-8h2l2-12 6-26 1-9 1-25 5-14 7-9 8-5z" fill="#CC9A8B"/>
<path transform="translate(498,175)" d="m0 0 4 2 3 5 3 10 1-5 3 3 4 1-2 6 3-1 2-4 5-4 11-4 5-1h15l10 2-3-4 4 2 9 6 6 5-4-5 4 1 16 11 4 6 11 5 12 9 6 8 1 5 4 1 10 19 5 13 4 16-3 8-2 5v9l-4 2-1 3-4 2-3 3-6 2-1 5-3 1-5-2-3-11h-8l-8-2-5-3-3-3-3-5-6-8-9-5-12-4-17-2-3-1h-9l-11 2-3-7-6 1v-7l-4-2-4 2-5 2h-18l-7-5-5-5-4 3-12 3-9 6-8 10-5 9-2-1v-4l-4 2-4 3-4 1-2-4v-10l2-6v-3h-2l1-17 5-12 10-13 5-5v3l4-3 3-5 7-8-5 5-3 2 2-6 7-8 6-5 2-5 1 2-1 2 9-4 2-2 15 1 9 3 8 6-5-8-6-7h3l3 2 1 3v-6zm13 24m-49 1-4 2v1l8-1v-2zm-25 28-4 4 1 2 4-4z" fill="#2A2324"/>
<path transform="translate(466,268)" d="m0 0 7 1 11 6 14 5 5 2 10 2 5 4 7 1 10-4 8-1 10 1 11 3 11 7 7 8 5 5 10 11 4 6 3 11 1 5v20l-6 2-11-3-9 1-32 6-11 3-5 6h-2l1 7v13l2 9h4l3-6 5-3 8-3 6-3 7 1 17 1 5 3 20-2 6-3 4-8h3l3 10 2 5 1 10-5 13-3 3 2 3-9 18-8 6-6 3-1 6v8l-4 2-1 3-10 6-3 6-4 2-7 1-2 7-4 5-4 8-6 6-8 2h-6l-1-3h-6l-2-4 1-5 4-5v-3l-14-2-16-1-5 1 3 9-1 5-3 4h-11l-9-2-8-13-5-16 1-6 8-9 10 1 7 3-1-9 2-1 13 4 4 2 25 4 3 2-1 5v3l2 1h10l12-5h5l5 2 2-3h2l2-5v-7l-1-6-4-2-4-3-9-4-3-3-2-7v-4h-3l-5 6-12 3-11 6h-11l-2-1v-2l-4-2-5-3v-2l5 1 5 4h8l6-4h2l2-7v-7l-2-7-2-14v-8l1-7-2-11-7 1-3 6-2 7-5 4h-2v2l-7-2-12-1h-10l-6-2v-2l4-1-1-2-3-1v-3l-5-2-12-3-2-2-1-6h-7l-2-3v-10l5-5 11-3 10 2 17 5h6l11 4 16 4h11l9-2v-2l5-3 15-2 8-3 3-4-2-7-2-2 1-8v-17l3-2h3l4 16 1 9-1 4 6-3h2v-2h2l1-3 2-1v-8l-3-6v-2l-5-2-2-1v-2l-8-1-3-5-3-7-5-4-4-3h-9l-6-2-7 1-3 1h-10l-8-5-12-2-10-3-14-3v-2h-14l-5 1-1 4-8 7-4 8-2 30-3 12-3 9-1-4 3-12 1-9 1-25 5-14 7-9 8-5z" fill="#AC7869"/>
<path transform="translate(625,433)" d="m0 0 2 1 1 13-7 28-4 12v7l2 1-2 15-4 12-11 20-12 18-12 20-2 2 1-5 4-8 12-21 2-5 6-12 2-1 1-3h2l8-16 2-6v-5l-1-1-9 16-4 5-1 3h-2l-1 4-4 4h-2v2l-9 6-6 5h-2v2l-12 5-11 6-32 18h-2l-2 4-6 3-8 1-5-2v-2l-4-1-9-13-3-2v-2h-2l-1-4-4-2-5-5-4-3v-2l-3 3-1 7-2 26-2 4-1 10 4 13 2 7 1 14-3-2-4-7-6-5v-2l-4-2-10-4 2-5 6-8 2-5v-7l-1-5-1-14-2-8 1-5 2-3h2l2-5 5-8 2-1-1-5-4-7v-5l-3-1-8-15-4-7-7-17-5-13v-12l5-1 4 10 3 6 9 6 10 2 5 5 4 7 1 10 3 6 7 8 8 3v6l4 1 6-2 2 3h6l6-1h3l-1-4-5-1-1-2-1-12-2-6 3-1h19l7 3-1 5-2 1-3 9 4-1 3 4h5l5 2 11-1 5-4 4-2 3-7 4-7 5-5h7v-2h2l2-6 10-7 1-2h2l1-3 7-6 1-3h2l2-4 3-1 2-6 4-8 3-7z" fill="#5F4D4B"/>
<path transform="translate(527,1373)" d="m0 0 4 5 9 17 8 10v2l4 2 12 11 10 9 4 5v2l5 1 7 6 6 4 1 2v9h5l6-4h2l-2 4-5 6-4 4-5 18v12l-2 13-5 8-4 3h-5l-2-4h-2l-2-4v-20l-5-13-4 2-7 7-7 12-5 12-4 11-2 7-2 2h-7l-6-2-3-5v-2h-2l-2-5 1-10 3-12 6-9 4-14-3 1-7 12-7 10-4 10-3 4-3 5-2 5h-3l-4-7-2-1v-2h-2l-2-12 1-10 11-27 3-10-3 3-7 12-5 7h-2l-2 10-1 2 1 8-7 1-6-4-3-10v-18l4-13 5-5 8-9h6l2-4 6-9 5-10 6-8 8-16z" fill="#9F6757"/>
<path transform="translate(320,1085)" d="m0 0h2l2 10 1 7 1 29 2 9v10l-4 19v16l6 21 2 4 1 10 5 6 7 4 12 3v2l10 3 2 1v3h3l3 13 4 24 1 13-2-2-4-18-4-3v-12l-1-11h-2v-5l-4 1h-7v3l3 1-3 3h-8l-2 4v10l1 2-3 8 1 3v7l-2 10-1 19 3 16-4-2h-2l-2 5-9 12-8 14-6 5-9 3-2-2 3-5-1-9-6-2-1 3h5l1 1-1 7-4 6h-2l-1-6-2-4-3 2-1 4-4 9-6 1-2-2-1-13v-8l2-13 2-7 3-22 5-26 6-32 2-12 1-23 2-17 3-13 2-18 2-11 2-13 5-21 4-30z" fill="#110F11"/>
<path transform="translate(615,498)" d="m0 0 2 2-1 8-5 11-5 8h-2l-1 4-2 1-4 10-3 5-8 15-7 12-6 14-10 14-6 8-4 4-5 3-2 12-3 6h-2l-2 6-2 2 1-10-5-3-1-4-7 2-11 7-19 9-6 2-16 1-3 8-9 7h-3l-3-14-7-2-3-3-27-9-7-2-1-5 9 1 7 3 18 4 10 3 5-4-1-6-6-8-8-8-12-2-1-3 3-7v-8l2-3v-6l-1-7 1-18 3-13 6-12 2-5-1-4 3-4v-4h2l2 7 4 7-1 4h-2l-2 5-5 8h-2l-2 4 1 8 1 4 1 14 1 5v7l-4 8-6 8v2l9 3 4 3v2l4 2 6 7 2 4-1-13-5-17-1-6 2-9 2-10 1-18 1-9 4-1v2l4 2 5 4 5 6v2h2l7 8 3 4 2 5 4 1 2 2 6 1 9-3 6-5 18-10 14-8 20-10h3v-2l8-6 7-5h2v-2l6-5 1-3h2l1-4 7-11z" fill="#A19EA2"/>
<path transform="translate(684,1412)" d="m0 0 3 1 2 4 4 2-1 7-4 2-2 7-3 2 1 3h5l-5 4-4 4 7-3 6-1h4l2 3-2 13-7 22-5 25-7 31-6 31-1 3-8 2 1-5 3-7-1-3v-4l-5-2 5-5 3-5 2-6 3-7 2-6h2l-1-10-2-2 1-8 2-3-3-1 1-3 3 1v-3l-3-1v-3l-5 2h-3l-1-4 1-4-2 4-2-1 1-1v-5l-3 3-1-11h-4l1 4-7 5v-3l-2 4v3l-7 4-4 3h-7l-7 3-8 8-3-1-2 4-3-1-2 6-8 7-14 4-4-1 7-3 5-7 2-6 1-21 2-10 4-8 5-6h2l2-4 3-4 5 1 2 2 7 3 4 1 7 1 1 1 7-1 9-14 6-7 2-1 2-7 8-13 1-3z" fill="#120F11"/>
<path transform="translate(466,268)" d="m0 0 7 1 11 6 14 5 5 2 10 2 5 4 2 1v2l9-2 6-2h16l10 4 6 5 6 3 1 4 4 2v2l5 2 4 5 7 12 1 9 1 18-2 4h-8l-15 3-17 3-10 2-7 1-7 5-7 2 4 9v29l4 9 2 11-1 5-4 4-10 6h-10l-6-5-3-1v-2l5 1 5 4h8l6-4h2l2-7v-7l-2-7-2-14v-8l1-7-2-11-7 1-3 6-2 7-5 4h-2v2l-7-2-12-1h-10l-6-2v-2l4-1-1-2-3-1v-3l-5-2-12-3-2-2-1-6h-7l-2-3v-10l5-5 11-3 10 2 17 5h6l11 4 16 4h11l9-2v-2l5-3 15-2 8-3 3-4-2-7-2-2 1-8v-17l3-2h3l4 16 1 9-1 4 6-3h2v-2h2l1-3 2-1v-8l-3-6v-2l-5-2-2-1v-2l-8-1-3-5-3-7-5-4-4-3h-9l-6-2-7 1-3 1h-10l-8-5-12-2-10-3-14-3v-2h-14l-5 1-1 4-8 7-4 8-2 30-3 12-3 9-1-4 3-12 1-9 1-25 5-14 7-9 8-5z" fill="#BE887A"/>
<path transform="translate(419,561)" d="m0 0 1 4-7 14-8 13-4 7v4l4 3-1 18-8 11-4 5-11 25-9 20-9 19-7 19-4 15-4 24-1 13v26l4 11 4 14 1 11-1 19-3 25-1 15-1 5-1 14v24l2 8-1 33-2 30 1 14 1 20 2 4v3l-2 1 1 9v15l-3 26-4 31-2 8-3 27-3 20-1 16 1 7 6 5v2l6 1 9 4 4 2h7l2 1 1-4v18l-10-3-4-2v-2l-9-3-9-5-4-4v-2h-2l-1-12-2-6v-14l2-13 5-10 2-20v-21l-2-10-1-11v-31l1-31 1-63 2-35 7-56v-38l-3-24-2-18v-15l2-27 5-28 5-20 8-23 9-19 6-12 6-16 9-17 6-9h2l3-13h-5l-1-5 5-10 8-13 6-10z" fill="#A19EA1"/>
<path transform="translate(540,422)" d="m0 0h2v2l5 1 7 5v2h2l8 11 7 4v2l8 4 3 1 10-5 3-4h2v-2h2v-2l6-2v-2l4-1 6-12 5 1-5 11-4 8-8 6-6 3-1 6v8l-4 2-1 3-10 6-3 6-4 2-7 1-2 7-4 5-4 8-6 6-8 2h-6l-1-3h-6l-2-4 1-5 4-5v-3l-14-2-16-1-5 1 3 9-1 5-3 4h-11l-9-2-8-13-5-16 1-6 8-9 10 1 7 3-1-9 2-1 13 4 4 2 25 4 3 2-1 5v3l2 1h10l12-5h5l5 2 2-3h2l2-5v-7l-1-6-4-2-4-3-9-4-3-3-2-7v-4h-3l-5 6-12 3-11 6h-11l-2-2h11l18-9 7-3v-5l-4-3z" fill="#9F6758"/>
<path transform="translate(473,257)" d="m0 0 5 4 4 4 3 2h19l6-4 5 1 2 4-1 5 6-2 3 7 11-2h9l11 2 13 2 12 5 6 4 7 9 4 6 5 3 8 2 8 1 4 11 6 1 2-5 6-3h2l1-3 4-1 1-4 3-3v-8h2l1-8h1v22l-1 25v9l-2 12-4 10h-2l-2 4-3 4-1 10-1 8-2 2-5-1-3-6-5-23-2-10-3-10v-24l-1-3-16-5-10-9-7-9-10-7-11-3-8-1h-17l-9 4h-5l-8-4-3-2-10-2-4-2-6-1-6-3-7-4-6-2h-11l-10 5-7 8-9 19-1 5-2 1 3 1v28l-2 10-2 15-3 12h-2l-1 5-2 4h-1v-25l-2-13v-15l-3-44 1-17 1 2 3-1-1 9-1 5v6l2 3 6-3 3-3 3 1v4l4-5 4-7 8-9 10-5 9-2z" fill="#5F4D4B"/>
<path transform="translate(615,498)" d="m0 0 2 2-1 8-5 11-5 8h-2l-1 4-2 1-4 10-3 5-8 15-7 12-6 14-10 14-6 8-4 4-5 3-2 12-3 6h-2l-2 6-2 2 1-10-5-3-1-4-7 2-11 7-19 9-6 2-16 1-2 4v-8l5-1h13l13-5 16-9 5-2 11-6 1-1-1-10-8-19-3-3-3-2-8 1 4-8 4-4 18-10 14-8 20-10h3v-2l8-6 7-5h2v-2l6-5 1-3h2l1-4 7-11z" fill="#A09DA0"/>
<path transform="translate(612,476)" d="m0 0 3 1 1 6-1 7-9 17-5 6h-2l-2 5-3 5-5 2-6 7-7 5h-2l-1 3-11 7h-3v2l-10 3-14 1-8-1-7 1-16-2-10-2-2-5h-5l-1 2h-5l-11-9v-2l-4-2-3-5-4-3v-2h-2l-2-6-3-3-4-5-3-3-1-6h-2l1-6 1-2 5 1 3 3v2l4 1v2l3 1 3 5 1 3 4 2v5l2 1 2 4 4 1 4 7 1 2 1 5 2 3h3l5-5 7-2 4-4 4 1v2l4 2 2 2v3l5-1 2 1h9v3l4-1 3-7 4-1v-8l2-3h12l5-5 8-7 1-2h2v-5l3-2h8l5 2 3-1-2-6 1-4 1 2 4 1 1-2 7 1 1-7 7-2 2-7z" fill="#2A2324"/>
<path transform="translate(616,492)" d="m0 0 1 2 2 1-2 15-4 12-11 20-12 18-12 20-2 2 1-5 4-8 12-21 2-5 6-12 2-1 1-3h2l8-16 2-6v-5l-1-1-9 16-4 5-1 3h-2l-1 4-4 4h-2v2l-9 6-6 5h-2v2l-12 5-11 6-32 18h-2l-2 4-6 3-8 1-5-2v-2l-4-1-9-13-3-2v-2h-2l-1-4-4-2-5-5-4-3v-2l-3 3-1 7-2 26-2 4-1 10 4 13 2 7 1 14-3-2-4-7-6-5v-2l-4-2-10-4 2-5 6-8 2-5v-7l-1-5-1-14-2-8 1-5 2-3h2l2-5 5-8 2-1-1-5-3-5 1-2 6 8 5 5 11 10 10 5 13 2 27 5h7l11 2 19-9 6-4 5-3 11-8 4-5 8-5 7-11 5-6 4-8 3-4z" fill="#BD887A"/>
<path transform="translate(563,1420)" d="m0 0 7 6 8 8v2l5 1 7 6 6 4 1 2v9h5l6-4h2l-2 4-5 6-4 4-5 18v12l-2 13-5 8-4 3h-5l-2-4h-2l-2-4v-20l-5-13-4 2-7 7-7 12-5 12-4 11-2 7-2 2h-7l-6-2-3-5v-2h-2l-2-5 1-10 3-12 2-1v10l6 1 4 1h4l-1-3-2-1v-4h2l1-7 4-4h2l1-5 1-4 7-6 6-7 1-5 4-1 2 2v3l10-2v-2l2-1 1-12 2-7-2-2-3-7-3-5-7-5z" fill="#824C3F"/>
<path transform="translate(548,432)" d="m0 0 4 1 2 4v4l3 5 9 4 8 6 2 6v7l-3 5-4 4-5-2-8 1-3 2-6 2h-10l-5-4 3-2v-4l-6-2-21-3-10-4-8-2v9l-6-1-6-4h-5l-5 5h-3l-1-13h-2l-1-4 4-10 5-3 12 1 4-1h11l6 2 5 4v2h13l13-7 10-2 3-3z" fill="#5E4B49"/>
<path transform="translate(613,1231)" d="m0 0h5l-1 6-3 10-8 11-5 7-4 3-11 1-13 5-9 6-12 9h-9l-12-2h-10l-12-1-2-2 1-6 4-6 11-8 11-4 5-3 19-5 14-4h6v-2l15-4 2-1 1-3h-74l-4-1v-2l17-1 40-1h19l15-1z" fill="#110F11"/>
<path transform="translate(463,545)" d="m0 0h2v2l4 2 5 4 5 6v2h2l7 8 3 4 2 5 4 1 2 2 6 1 11-3-6 7-5 4-1 2h-2l-1 4h-2l-2 4-3 8-1 2h-2l-2 7-6 9-5 4-9 3-5-2-3-16-5-17-1-6 2-9 2-10 1-18 1-9z" fill="#CC9A8A"/>
<path transform="translate(498,175)" d="m0 0 4 2 3 5 3 10 1-5 3 3 4 1-2 6 3-1 2-4 5-4 11-4 5-1h15l10 2-3-4 4 2 9 6 6 5-4-5 4 1 16 11 4 6 11 5 11 8-1 2-14-3-6-2-2-4-5-1v-2l-5-2v-4l-4-2v-3h-3v-2l-4-1-7-3h-1l-7 2-1-3 1-2-5 1v2l-2 1-18 1-4 1-6-2-1 2-5 3-8 5-10 3-9-1-10-3-2 1v-2h-3l2 6-7 2-5 1-3 3h-2v2h-2l1 3h-2v2l-9 3h-4v2h-3v2l-5 4-5 2-3 4-3 2h-6l2-4 8-11 5-5v3l4-3 3-5 7-8-5 5-3 2 2-6 7-8 6-5 2-5 1 2-1 2 9-4 2-2 15 1 9 3 8 6-5-8-6-7h3l3 2 1 3v-6zm13 24m-49 1-4 2v1l8-1v-2zm-25 28-4 4 1 2 4-4z" fill="#624F4D"/>
<path transform="translate(618,378)" d="m0 0 4 1 3 5 5 17v9l-7 18-4 8-5 12-5 6-7 1v7l-2 4h-2l-2 4-8 7-5 2-5 10-7 1-2 6h-2l-2 5-5 10-9 6-13 1-5-2-4-1-3-3-3 1-1-2 3-8 3-1v-5l-8-2h-19l2 6 1 14h5l1 5-9 2h-7l-1-4-6 3-4-1-1-3v-4l-7-2-9-10-2-5-1-10-5-9-5-3-10-2-8-6-5-11-2-4h-4v7l-1-2h-2l-1-9h2l-1-4v-14l2-1 3 6v4h2l9 19 7 7 11 4 2 2 4-1-1-9-2-5-2-13 5-5 15-9 7-4 4-1-1 5-3 5v2l12 1 4 2v2h-15l-2 1h-6l-6-1-4 2-4 11v3h2l1 5v8l5-3 3-3 7 1 1 2h-8l-7 8-1 6 5 16 7 12 9 2h11l3-4-1-5-1-8 6-2 15 1 10 1 4 2 1 3-5 7 1 6 6 1 1 2 11-1 5-3 5-6 4-8 3-4 2-5 3-2h6l3-5 4-4 8-5 4-4v-12l5-5 8-4 4-5 6-14 1-2-2-2 2-3h2l3-10 1-5-2-10-1-4-2-9h-3l-1 2 1-5z" fill="#89665D"/>
<path transform="translate(397,599)" d="m0 0 1 3v4l5 1-1 10-2 3h-2l-2 4-7 12-8 17-6 16-10 19-9 25-5 18-5 27-2 17-1 16v15l2 18 3 24v38l-6 45-2 26-1 20-1 63-1 31v31l2 17 1 4v21l-2 20-5 10-2 13-1 14-2-4-1-7v-15l4-9 5-10 1-6v-16l-3-9-3-7-2-13v-10l2-25 1-27v-24l3-38 6-60 2-21 1-17-2-38-2-34v-14l2-29 4-24 5-24 11-33 8-16 6-13 6-16 9-16 9-13 1-2-6 1-1-1v-6z" fill="#64504D"/>
<path transform="translate(554,1412)" d="m0 0 4 2 5 5 2 5 8 6 4 7 2 5 1 2-2 6-1 12-3 1v2l-5 2h-5l-2-4h-4v5l-12 13h-2l-1 5-1 4-5 5-2 6h-2v4l3 1v3l-7 1-4-2h-4v-9l2-5 4-7 1-5 2 2-1 4 3 2 5-1-1-4 4-3v-6h2l-1-6v-2l-1-4 2-5-5 2-2 2-10-2-1-2 1-3 6-1 4-1 4 3v-2l3-3 3-10 6-8 4-2 3-8-1-6z" fill="#8B5749"/>
<path transform="translate(455,350)" d="m0 0 10 2 17 5 16 9 7 4 4 4-1 6-3 7-12 2-8-1-17-3-8-4-9-2-2-2-1-6h-7l-2-3v-10l5-5z" fill="#5E4C4A"/>
<path transform="translate(527,1373)" d="m0 0 3 3-2 4-3 5-2 5v9l-3 4h-2l-2 5-2 7-6 2-5 8v6l2 2-1 8-1 3h-2l4 6v6l-2 1-1-4-9 15-5 7h-2l-2 10-1 2 1 8-7 1-6-4-3-10v-18l4-13 5-5 8-9h6l2-4 6-9 5-10 6-8 8-16z" fill="#8C584A"/>
<path transform="translate(495,465)" d="m0 0h4v2l13 2 12 2 2 1-1 3h-7l-5-1v2h-2v2l15 3 1 4-2 4-3 1h-22l-4 3 1 5 1 2v6l-4 3h-14l-3-2v-3l-4-1-7-22 1-6 6-8h7l6 3v2h7v-6z" fill="#BD8779"/>
<path transform="translate(583,363)" d="m0 0h7l14 4 3 4v11l-5 2-4-2-6-1v3l3 3-2 2-27 1-5-3-1-1h-5l-2 2-18 1 1-11 2-5 4-3 13-3 23-3z" fill="#57362F"/>
<path transform="translate(650,348)" d="m0 0 2 3 2 4v21l-4 15-9 26-8 19-4 8-2-3-1-7-5 2-3 9-6 12-5 5h-2l-1 4-7 6-1 2h-2l-2 4-8 5-3 6h-2v2l-7 1-3 3 2-6 7-1 5-10 5-2 9-8 3-3 2-10 7-2 5-6 7-18 4-8 4-12v-8l-5-17v-7h1l3 12 2 3 5-1 1-8 1-10 6-8 2-1z" fill="#8C584A"/>
<path transform="translate(461,1280)" d="m0 0 6 1 8 4 6 2 10 2 11 9 5 4 8 4 7 2h14l15-3 5-2 2 1-1 4-8 8h-2v2h-2l-2 4-15 10-10 6-14 7h-2l-1 1h-4l1-4 13-8 13-7 2-4-5-2h-3l-4-1v-3l-7-1v-2l-5-2-8-4-9-6-4-2v-2l-5-2-9-6-5-5z" fill="#110F11"/>
<path transform="translate(348,749)" d="m0 0h1l-2 26v26l4 11 4 14 1 11-1 19-3 25-1 15-1 5-1 14v24l2 8-1 33-2 30 1 14 1 20 2 4v3l-2 1 1 9v15l-3 26-4 31-2 8h-1l1-9 1-8v-19l1-1 1-33-3-21v-27l1-22 1-24 1-57 6-49 1-12v-16l-7-36-1-16 2-30z" fill="#B2B0B5"/>
<path transform="translate(493,463)" d="m0 0 7 1 8 3 23 3 3 1-1 4-13 3 11 2 2 2v4h2v2l11-4 8-5 5-2 5 1 3 3 1 6-4 8-4 7-4 6-5 5-8 2h-6l-1-3h-6l-2-4 1-5 4-5v-3l-14-2-16-1-5 1 3 9-1 5-3 4h-11l-9-2-2-5h2l1 3 4 1h12l3-2v-6l-2-4 1-4 4-3h25l1-7-13-3-2-1v-2h2v-2h12l1-2-24-4-3-1v-2l-6 1 1 7-8-1v-2h6l-1-5z" fill="#AD796A"/>
<path transform="translate(494,441)" d="m0 0 6 1 6 6 5 1v2l12-1 3-1v-2l10-3 6 1 10 6 13 6 7 5 1 5-5 4-10-2-5-3-5-1h-12l-3-1v-2l-16 1-9-2-6-4-11-3-3-1h-8l-6 2-3 3-3-1-1-2v-6h2l2-4 16-1z" fill="#2A2324"/>
<path transform="translate(660,880)" d="m0 0 2 1 2 23 3 22 5 30 4 16 1 28 3 19 4 13 5 12-1 6-7 9h-5l-4-44-3-6-2-14-1-22-2-17-1-5-1-12-2-17-1-17-1-14 1-10z" fill="#110F11"/>
<path transform="translate(616,492)" d="m0 0 1 2 2 1-2 15-4 12-11 20-12 18-12 20-2 2 1-5 4-8 12-21 2-5 6-12 2-1 1-3h2l8-16 2-6v-5l-1-1-9 16-4 5-1 3h-2l-1 4-4 4h-2v2l-9 6-6 5h-2v2l-12 5-11 6-16 9-11 6-12 1-5-2-3-5v-2l-4-1-5-6v-2l-11-3-9-4-11-9-8-7-5-9 1-2 6 8 5 5 11 10 10 5 13 2 27 5h7l11 2 19-9 6-4 5-3 11-8 4-5 8-5 7-11 5-6 4-8 3-4z" fill="#88665D"/>
<path transform="translate(384,552)" d="m0 0h2v2l-4 2-1 2-4 2-6 7-5 1-11 3-9 6h-3v2l-5 3-4 5-11 9-7 8-8 10-6 8-6 2-2-7-2-4 9-20 10-10 12-6 14-5 14-7 22-8z" fill="#604F4D"/>
<path transform="translate(543,567)" d="m0 0h10l5 3-4 16-3 5 1 17-8 6-4 6-3 1-4-15-8-18-5-3-8 1 2-4 17-10 8-4z" fill="#B2B0B5"/>
<path transform="translate(259,1307)" d="m0 0h5v21l-2 25-2 8-7-6-12-11-7-15-5-12-1-4 18-2z" fill="#8B584A"/>
<path transform="translate(530,1381)" d="m0 0h3l7 14 8 10v4l-5 2-1 2h-2l-1 5-2 4-5 3v3l3 16-3 5-8 4-3-1-2-6 2-12v-2h-2l-4-11 2-10 6-1 1-8 1-6-1-1 1-9 5-2z" fill="#AC7869"/>
<path transform="translate(499,1465)" d="m0 0 1 3v2l4 2 4 7 9 2 2-7 2-4 7-3 3 5 1 5-2 2v-4l-3 1-7 12-7 10-4 10-3 4-3 5-2 5h-3l-4-7-2-1v-2h-2l-2-12 1-10z" fill="#8C584A"/>
<path transform="translate(547,403)" d="m0 0 5 1 1 1h14l1 1h19l1 2 3 1v8l-5 4 1 7-4 5-7 2-12-1-9-7-9-9v-13z" fill="#CD9B8B"/>
<path transform="translate(565,1482)" d="m0 0 3 3 2 4 1 10-1 9 3 9 3 5-6-2h-2v2l-2 1-1 5-4 1-1-2-3 4-3 2-12 1-4-1 2-6 2-10 4-10 7-14 10-9z" fill="#110F11"/>
<path transform="translate(491,415)" d="m0 0 5 1v5h-2l-2 5 1 7 5 2 1 3-14-2-3-3 4-7-1-2-14 8-10 6-4 4 3 16 2 5v6l-2 2-4-1-7-3-8-4-2-5-3-1-8-17v-2h-2l-1-10 2 1v4l3 1v2h2v2l3 1 5 12 3 4 5 3h6l1-5h-2v-2l-4-1-7-5-3-10 2-3h9l10-2 12-4 11-7z" fill="#BD887A"/>
<path transform="translate(454,534)" d="m0 0h2l1 11 1 2v10l-3 12-1 20 6 19 2 7 1 14-3-2-4-7-6-5v-2l-4-2-10-4 2-5 6-8 2-5v-7l-1-5-1-14-2-8 1-5 2-3h2l2-5z" fill="#89655B"/>
<path transform="translate(461,265)" d="m0 0h11l10 4 7 4 4 2h5l5 3 10 2 4 3 5 2 7-1 7-3h17l12 2 9 3 10 8 8 10 7 6 16 5 2 4v24l4 13 2 11v5l-2-3-3-12-3-8v-21l-1-8-2-2-12-2-8-7-15-16-10-6-10-1-15-1-9 2-8 3-7-1-5-4-13-3-12-5-8-3-10-5-9 1-8 4-5 4-5 8-4 12-1 25-2 12-3 14h-1l1-12 1-4 1-28-3 1 1-7 8-16 6-9 7-6z" fill="#88655C"/>
<path transform="translate(559,393)" d="m0 0h9l2 1-1 4-2 3 7 2h5l7-2 3-1h7l4 6 1 6v9l-2 5h-2l-2 6-6 7h-3l-2 4-3 2-6-1-11-6-7-6-4-5-8-6-2-3v-15l4-3 6 1 3 1 7-1v-2h-2l-3-5zm-12 10-1 2v13l5 5 8 7 5 4 14 1 6-3 3-5-1-6 5-4v-8l-3-1-1-2h-19l-1-1h-14l-5-2z" fill="#BE887A"/>
<path transform="translate(642,334)" d="m0 0h4l2 12-2 7-4 10-3 1-2 4-3 8-1 9h-4l-3-8-4-24-3-11 3-7 1 2 3 1 2 3 5-1 7-3z" fill="#2A2324"/>
<path transform="translate(476,468)" d="m0 0 7 3 2 1v2l3 1v2l4 2v2h2l3 4-1 4-3 1 1 7 3 6-1 3-7 1h-8l-5-5-5-9-2-10-1-1 1-7 5-6z" fill="#CD9B8B"/>
<path transform="translate(580,1436)" d="m0 0 4 2 6 5 6 4 1 2v9h5l6-4h2l-2 4-5 6-4 4-5 18v12l-2 13-5 8-7-5 1-7 4-4-1-9-1-5 1-8h2l1-9 2-3-1-8-1-5 2-5-2-6h-2z" fill="#57362F"/>
<path transform="translate(419,561)" d="m0 0 1 4-7 14-8 13-4 7v4l4 3-1 18-8 11-4 5-11 25-9 20-9 19-7 19-4 15-2 10-2 7-2 9h-1l1-12 5-25 6-20 8-21 11-21 6-17 10-19 6-9h2l3-13h-5l-1-5 5-10 8-13 6-10z" fill="#A19EA1"/>
<path transform="translate(449,516)" d="m0 0h2l2 7 4 7-1 4h-2l-2 5-5 8h-2l-2 4 1 8 1 4 1 14 1 5v7l-4 8-6 8v2l6 2v1h-11l-1-3 3-7v-8l2-3v-6l-1-7 1-18 3-13 6-12 2-5-1-4 3-4z" fill="#A09DA0"/>
<path transform="translate(455,350)" d="m0 0 10 2 17 5 16 9 7 4 4 4-1 6-3 7-12 2-8-1-17-3-8-4-9-2-2-2-1-6h-7l-2-3v-10l5-5zm-1 6-4 2-7 2-1 3 3 3 21 1 3 3-11 1-4 2v4l6 1h5l3 5 13 2h14l7-3-1-7-4-7-8-4-13-6-12-2z" fill="#89655B"/>
<path transform="translate(583,363)" d="m0 0h7l14 4 3 4v11l-5 2-4-2-6-1-1 3-10-3-7-2v-3l5-1-1-3-7-1h-17l-12 3-3 1-2 7-1-4 2-5 4-3 13-3 23-3z" fill="#5E4C4A"/>
<path transform="translate(291,1382)" d="m0 0h6l5 2 8 3 3 1 1 5h9v2l3 1v2l4 1v2h2l1 3 2 2-1 2 3 1-3 1-15-3-14-6-6-2-11-7-7-6 3-2z" fill="#824C40"/>
<path transform="translate(536,1337)" d="m0 0h1v8l-5 20-2 6-5-1-3 5-9 16-8 16-8 12-2 8-4 1-1-3 2-5h2l2-9 5-12 6-11 5-12 9-14h2l2-6 7-14z" fill="#110F11"/>
<path transform="translate(501,494)" d="m0 0h21l7 3-1 5-2 1-3 9 4-1 3 4h5l5 2h8v1l-8 2-5 2-4 1-3-2-1-5-8 4-4-2-5 1-1-3-5-1-1-2-1-12-2-6z" fill="#8C584A"/>
<path transform="translate(556,1477)" d="m0 0h9l3 1 5 11 2 9v20l-3-4v-20l-5-13-4 2-7 7-7 12-5 12-4 11-2 7-2 2h-7l-6-2-3-5v-2h-2l-2-5 1-10 3-12 2-1-3 15v7l2 6 13-1 3-10 4-10h2v-6h2l-1-4 8-10z" fill="#57362F"/>
<path transform="translate(618,378)" d="m0 0 4 1 3 5 5 17v9l-7 18-4 8-5 12-5 6-7 1v7l-2 4h-2l-2 4-8 7-5 2-5 10-7 1-2 6-5 2-2 1 1-4 4-8 3-2h6l3-5 4-4 8-5 4-4v-12l5-5 8-4 4-5 6-14 1-2-2-2 2-3h2l3-10 1-5-2-10-1-4-2-9h-3l-1 2 1-5z" fill="#89665C"/>
<path transform="translate(422,540)" d="m0 0h7l1 4-9 15-5 12-4 6-1-2 5-11 3-7h-2l-1 2-7 4h-3v2l-17 3v-3l6-7h2l1-5-2-1v-2l-2-1 18-6z" fill="#604E4B"/>
<path transform="translate(340,1331)" d="m0 0 3 1v10l-4 9-1 14-9 6-12 5h-2l-1-4h-2l1-6 5-5 4-2 6-13 6-9 5-5z" fill="#583730"/>
<path transform="translate(553,285)" d="m0 0 14 1 11 7 8 8 7 8 3 5 5 4 7 3 4 4 1 2v26 3l-2 6-4 2h-5l-1-2 3-1v-24l-3-8-3-7-11-13-3-3v-2l-3-1-6-7-11-7-11-3z" fill="#9F6758"/>
<path transform="translate(466,268)" d="m0 0 7 1 11 6 14 5 5 2 10 2 5 4 2 2h-6l-4-3-12-2-10-3-14-3v-2h-14l-5 1-1 4-8 7-4 8-2 30-3 12-3 9-1-4 3-12 1-9 1-25 5-14 7-9 8-5z" fill="#BD8779"/>
<path transform="translate(483,455)" d="m0 0 11 1 10 3 4 3 10 2h12l10 4 2 2 1 5 11-2 5-2h5l4 2 6-4v3l-5 6-5-2-8 1-3 2-6 2h-10l-5-4 3-2v-4l-6-2-21-3-10-4-8-2v9l-6-1-6-4h-5l-5 5h-3l-1-11 2 2 1 5 7-6 4 1 6 5 3 1-2-4-5-3v-3z" fill="#805044"/>
<path transform="translate(525,1473)" d="m0 0 4 1-14 21-3 5-3 8-3 4-3 5-2 5h-3l-4-7-2-1v-2h-2l-2-12 1-10h1v7h4v2l5 1 4 1v-4l-4-2 2-5 4-2 3 2v2l5-2 3-1 2-5 5-7z" fill="#824B3F"/>
<path transform="translate(437,1552)" d="m0 0 4 3v6l-1 2 3 2-2 5 3 1-1 13h2l-1 6h-9l-7 4-2 5-1 1h-10l1-5 2-4 2 3 6-8h2l1-6-1-4 2-2h2l1 3-1-4-6-3 4-5h2l2-4 4-2-2-6z" fill="#110F11"/>
<path transform="translate(457,532)" d="m0 0 5 3 12 11 5 3 14 4 5 5v2l3 1v2l4 1 4 7 5 1 9-1-1 3-4 1v2h-15l-4-4v-2h-2l-3-4v-2l-4-1-8-10-10-6-6-5-4-5-2-1v-2h-2l1 10v18l-2 13v6l-3 7h-1l1-20 3-12v-10l-1-2v-12z" fill="#AD796A"/>
<path transform="translate(533,443)" d="m0 0h11l24 12 5 4 2 4v6l-8 5-3-2-9 1-6 2-6 1-3-7-10-4h-12l-10-2-6-4-19-5-12 6-3-1 1-2 2 1 1-3 5-2 3-1h8l11 3 8 4 1 1 9 2h7l7-1 2 1v2h16l5 2 8 3 6 1 4-3-1-5-6-4-16-8-9-5-10 1z" fill="#57362F"/>
<path transform="translate(517,586)" d="m0 0 5 1 5 9 6 13-3 3-12 3-3-1 4-6 3-1v-3l-9 1-9 2-4-3 1-5 7-7 8-5z" fill="#87655C"/>
<path transform="translate(527,1373)" d="m0 0 3 3-2 4-4 2-3 10-5 12-5 8-5 4-5 10-2 12-3 6-1 4-4 2h-7l-4 6-6-3-3 6-1-3 4-8 11-11h6l2-4 6-9 5-10 6-8 8-16z" fill="#814B3F"/>
<path transform="translate(604,367)" d="m0 0 4 1 3 10v7l-6 5-13 3-6-1h-21l-10-1-11 2-5 3-6 1-1-2v-16l5-7 2 1-2 5-1 10 17-1 2-2h5l3 3 3 1 27-1 1-2-3-3 1-2 9 1 2 1 3-1v-11z" fill="#8C584A"/>
<path transform="translate(501,1451)" d="m0 0h3l-1 2-3 3-7 12-5 7h-2l-2 10-1 2 1 8-7 1-6-4-3-10v-18l1-5h1l1 8 5 2 2 1v2h2v2l6-5 7-7h2l2-5z" fill="#7F4B3F"/>
<path transform="translate(614,490)" d="m0 0 2 1-1 6-4 5-4 8-6 7-6 9-9 6-5 5-9 7-12 7-17 8-11-2h-7l-27-5v-2l11 1 16 1 4-1 11 1 13-2 6-1v-2l8-4 6-4 5-5 7-5 5-6 5-2 4-8h2l2-4 4-5z" fill="#5F4D4B"/>
<path transform="translate(335,1181)" d="m0 0h1l-1 23 1 7 6 5v2l6 1 9 4 4 2h7l2 1 1-4v18l-10-3-4-2v-2l-9-3-9-5-4-4v-2h-2v-26z" fill="#B1AFB4"/>
<path transform="translate(283,1189)" d="m0 0h2l-1 9-7 18-3 3-7 1-4-3-3-1v-2l-2 1h-8v-3l1 2 2-5 6-3 15-8z" fill="#110F11"/>
<path transform="translate(397,599)" d="m0 0 1 3v4l5 1-1 10-2 3h-2l-2 4-7 12-8 17-6 16-10 19-9 25-5 18-5 27-2 17-1 16h-1v-23l4-24 5-24 11-33 8-16 6-13 6-16 9-16 9-13 1-2-6 1-1-1v-6z" fill="#6F5652"/>
<path transform="translate(561,482)" d="m0 0h1v6l-2 5-5 13h-2l-2 4-8 3h-5l-6-3-1-5 3-1v-2l6-1 4-4 5-9 6-4z" fill="#BE887A"/>
<path transform="translate(616,463)" d="m0 0 2 1v8l-1 7h-2l-3-3-3 9-2 2h-6l-1 7h-7l-5 1v3 4l-4 2-5-3 3-1h2l1-12 2-3 6-1 1-3 7-4v-2l5-3h2l1-4h2v-2z" fill="#56352E"/>
<path transform="translate(486,420)" d="m0 0h5l-1 6-2 6 10 4 1 2-14-2-3-3 4-7-1-2-14 8-10 6-4 4 3 16 2 5v6l-2 2-4-1-7-3-8-4-2-5-3-1-8-17 2-1 3 5v2h2l6 11 6 4 5 1v2l3 1 1 2h4l-2-5-2-11-6-5-1-6 6-4 9-4 15-8 4-3z" fill="#AD796A"/>
<path transform="translate(259,1307)" d="m0 0h5v21l-1 13h-1l-1-31-13 4-1 3 1 9-4 6-4 3-5-5-5-10-2-7 18-2z" fill="#844D40"/>
<path transform="translate(454,912)" d="m0 0 2 2-1 5-4 8-2 1-1 6h-2l-2 5-4-1-5 10-1 5-2 2-1-1-4 8-2 2-1 2h-2v3h-2l-1 6-4 5-4 4-3 5-3 3-5 3-3-1 9-12 9-11 9-13 7-11 11-16z" fill="#110F11"/>
<path transform="translate(532,574)" d="m0 0 7 2 1 3-4 10v8l4 11v10l-3 3-4-15-8-18-1-3-4-2 1-3z" fill="#CBCACF"/>
<path transform="translate(642,375)" d="m0 0 5 1 4 1h2l-1 8-11 32-8 19-3 4v-8l2-8 1-10 4-8 4-5 1-3h2l2-10-5-8z" fill="#A26D5E"/>
<path transform="translate(554,370)" d="m0 0h17l7 1 1 3-15 2v3l13 2 9 2 3 2v2h-11l-3 1h-8l-3-1v-2h-2l-4-6v-2l-8 1-6-2 4-4z" fill="#2A2324"/>
<path transform="translate(452,521)" d="m0 0 5 5 9 10 12 10 10 4 12 3 6 4v2l5 2v2l15 3v4l-4 2-9 1-5-2-3-5v-2l-4-1-5-6v-2l-11-3-9-4-11-9-8-7-5-9z" fill="#9F6758"/>
<path transform="translate(419,561)" d="m0 0 1 4-7 14-8 13-4 7v4l4 3-1 18-8 11-4 5-11 25-9 20-9 19-7 19-3 10-1-4 9-27 12-25 5-11 8-19 7-13 9-14 1-13h-5l-1-5 5-10 8-13 6-10z" fill="#B2B0B5"/>
<path transform="translate(546,281)" d="m0 0 15 1 13 4 10 8 8 10 7 6 16 5 2 4v24l4 13 2 11v5l-2-3-3-12-3-8v-21l-1-8-2-2-12-2-8-7-15-16-10-6-5-2-16-3z" fill="#8A5547"/>
<path transform="translate(473,362)" d="m0 0 9 2 9 5v3l2 1v8l-4 1-2-3-5 1-3 2h-7l-5-5-2-4 12-2 1-3h-2v-2h-4z" fill="#57362F"/>
<path transform="translate(298,1378)" d="m0 0h13v2h2l4 5 13 7 8 7 2-1v3l-2 1-1 6h-3l-2-4v-3h-2v-2l-4-1-3-3v-2l-6 1-3-1-1-5-10-2-4-2-8-2 3-3z" fill="#593831"/>
<path transform="translate(548,432)" d="m0 0 4 1 2 4v4l3 5 9 4 8 6 2 6v7h-1l-2-8-5-5-24-12h-11l-5 3h-2v2l-3 2h-12v-2l-4-1-8-7 3-1 6 5v2h13l13-7 10-2 3-3z" fill="#8A5648"/>
<path transform="translate(577,189)" d="m0 0 4 1 16 11 4 6 11 5 11 8-1 2-14-3-6-2-2-4-5-1v-2l-5-2v-4l-4-2v-3h-3v-2l-4-1-1-2 3-1z" fill="#62504E"/>
<path transform="translate(527,1475)" d="m0 0h3l-1 7-2 7-1-3v-4l-1 2h-2l-2 5-6 13-2 19-2 4-2 1h-7l-5-2-6-8 1-4v2l3 1 4 7 2-1 2-5 3-6 4-6 3-8 8-11z" fill="#57362F"/>
<path transform="translate(410,627)" d="m0 0 9 1 7 3 18 4 10 3 5-4v-6l3 3v4l-6 4 1 7v9h-1l-1-7-7-2-3-3-27-9-7-2z" fill="#B2B0B5"/>
<path transform="translate(337,978)" d="m0 0h1v62l-1 31v31l2 17 1 4v8h-1l-4-15-2-10v-23l2-38 1-34z" fill="#88665D"/>
<path transform="translate(494,551)" d="m0 0 10 1 21 4h7l9 2-5 5-5 3h-12l-8-3v-2l-5-2-4-4-8-3z" fill="#8B5749"/>
<path transform="translate(503,491)" d="m0 0 16 1 10 1 4 2 1 3-5 7 1 6 6 1 1 2 11-1 5-3 5-6 3-6 6-2-2 5-5 10-9 6-13 1-5-2-4-1-3-3-3 1-1-2 3-8 3-1v-5l-8-2-9-1-11-1z" fill="#8D6257"/>
<path transform="translate(535,619)" d="m0 0 4 1 1 9 3 3-5 11-1-3 1-7-5-3-1-4-7 2-11 7-19 9-6 2-16 1-2 4v-8l5-1h13l13-5 16-9 5-2 11-6z" fill="#B2B0B5"/>
<path transform="translate(448,521)" d="m0 0 2 3 1 7-10 16-1 3v29l2 10-1 6-7 10v3l2 2h-4l-1-3 3-7v-8l2-3v-6l-1-7 1-18 3-13 6-12 2-5-1-4z" fill="#B2B0B5"/>
<path transform="translate(502,1452)" d="m0 0 2 1-3 10-11 27-1 10h-1v-5l-6 1 1-2-1-8 3-8 1-3h2l2-5 7-10z" fill="#57362F"/>
<path transform="translate(453,570)" d="m0 0h1v19l6 19 2 7 1 14-3-2-4-7-6-5v-2l-4-2-6-2v-1l7 1 4 1 2-5-2-9-1-12z" fill="#89665C"/>
<path transform="translate(370,1091)" d="m0 0h1l-1 29h-1l-1-8-2 7-4 1-3-3 1-8-3-5-1-9 2-3 4 2 7 4z" fill="#B0AEB3"/>
<path transform="translate(443,498)" d="m0 0 3 4v6l3 1 1 2 3 2 3 5 1 5h2l5 5 4 6 8 7 5 4 5 1 1-3h6l1 5 4 2v1h-10l-10-4-13-11-4-4v-2l-3-1-5-7-2-1v-5l-3-1-7-13v-2h2z" fill="#614E4C"/>
<path transform="translate(450,570)" d="m0 0h1v17l2 16 1 3-3 5-4-1-10-2-1-3 8-11h2l1-4h2v-19z" fill="#624E4C"/>
<path transform="translate(579,456)" d="m0 0 3 1 4 4 5 2-1 7-7 5-9 9-3-2v-5l5-6 1-13h2z" fill="#AD796A"/>
<path transform="translate(648,355)" d="m0 0 1 3v5h2l1-2v5h-3l-2 4h-5l-3 6 2 10h2l1 5-2 4-2 1-3 6-4 1-2-1-3-11 6 1 2-4v-11l3-7 4-5 2-1z" fill="#834C3F"/>
<path transform="translate(723,1341)" d="m0 0 2 3-4 11-4 9-7 8-3 5-4 4-2 3-3-1 2-6 11-16 4-9 6-9z" fill="#110F11"/>
<path transform="translate(498,175)" d="m0 0 4 2 3 5 3 10 1-5 3 3 4 1-2 6 3-1 2-4 5-4 11-4 5-1h15v1l-14 1-4 3-10 3-12 8h-4l-1 2h-3l-2-5-4-6-6-7h3l3 2 1 3v-6z" fill="#907974"/>
<path transform="translate(285,1385)" d="m0 0h9l4 4h2l1 2h2v2h5l1 7 10 3 5 2h2v3l-9-2-12-5-6-2-11-7-6-5z" fill="#8F5D4F"/>
<path transform="translate(618,440)" d="m0 0 1 3-7 14-5 5h-2l-1 4-7 6-1 2h-2l-2 4-8 5-3 6h-2v2l-7 1-3 3 2-6 7-1 5-10 5-2 9-8 3-3 2-10 7-2 5-6 2-5h2z" fill="#885345"/>
<path transform="translate(485,359)" d="m0 0 5 1 13 5 10 7 2 3-5 6-2 7-8 4h-18l-1-3-8-2v-1h9l9 2 14-1 1-4 2-5-1-5-6-5-16-8z" fill="#AD796A"/>
<path transform="translate(447,349)" d="m0 0h6l-3 1v2l-7 3-3 3v10l1 2h7l3 8 12 3 5 4-11-2-8-1-5-3v-2l-5-2-3-4-1-9 2-7 5-4z" fill="#BE887A"/>
<path transform="translate(604,367)" d="m0 0 4 1 3 10v7l-6 5-13 3-9-2-7-1v-1l17-1 1-2-3-3 1-2 9 1 2 1 3-1v-11z" fill="#834C3F"/>
<path transform="translate(526,1371)" d="m0 0 2 2-9 17-8 16-7 10-7 13-6 8-7 2-8 9v-3l8-11 3-3 9-4 4-9 7-12 12-22 6-12z" fill="#57362F"/>
<path transform="translate(509,495)" d="m0 0 6 3 7-1v7l-4 5-10 2-2 1-2-6v-7l3-3z" fill="#5F4D4B"/>
<path transform="translate(484,423)" d="m0 0h3l-1 5-3 5v2l12 1 4 2v2h-14l-7-3v-5l-7 1v2l-9 6-1 2h-2v10h-1l-2-11 5-5 15-9 7-4z" fill="#A06858"/>
<path transform="translate(490,459)" d="m0 0 14 4 4 2 25 4 3 3-28-4-11-4-5 1v5l-3 1-8-2-1-1h-7l-6 9 1 6 4 13-1 3-4-9-3-10 1-6 8-9 10 1 7 3-1-9z" fill="#9E6758"/>
<path transform="translate(466,268)" d="m0 0 7 1 11 6 14 5 5 2 7 1v1h-9l-10-4-9-2-9-4v-2l-15 2-9 7-5 6-2 4-1-2 4-8 5-6 8-5z" fill="#AD796A"/>
<path transform="translate(525,411)" d="m0 0h2l4 9 2 11-1 5-4 4-10 6h-10l-6-5-3-1v-2l5 1 5 4h8l6-4h2l2-7v-7l-2-7z" fill="#BE887A"/>
<path transform="translate(493,463)" d="m0 0 7 1 8 3 23 3 3 1-1 4-13 3 6 2-3 1-10-2-2-1v-2h2v-2h12l1-2-24-4-3-1v-2l-6 1 1 7-8-1v-2h6l-1-5z" fill="#B17D6E"/>
<path transform="translate(615,372)" d="m0 0 5 1 1 6-4 1-2 9-5 4-3 1-20 2-5-3-7-1v-1h11l6 1 15-4 6-3v-9z" fill="#9F6758"/>
<path transform="translate(531,374)" d="m0 0 2 1-1 7 1 15 10-4 4-2 10-1-1 2-8 4-5 2-4 2-3 6h-4l-2-5-1-6v-19h2z" fill="#A06858"/>
<path transform="translate(419,343)" d="m0 0 2 1 2 10v24l3-8h1l-1 10-2 5-4 1-1-1-1-19z" fill="#94766E"/>
<path transform="translate(648,345)" d="m0 0 2 1-1 9-4 10h-2l-2 4-3 4-1 10v5h-2l-1 3h-3l-2-6h4v-9l3-8 5-5 5-11z" fill="#5D4947"/>
<path transform="translate(460,1419)" d="m0 0 5 2 9 4 5 1 2 1 1 7-5 9-4 8-3 1v-5l5-8 1-7h-2v-2l-4-1-10-9z" fill="#120F11"/>
<path transform="translate(338,1150)" d="m0 0h1l-1 14-5 10-2 13-1 14-2-4-1-7v-15l4-9 5-10z" fill="#6E5651"/>
<path transform="translate(339,1155)" d="m0 0h1l-1 13-2 13h-2l-1 12-1 14-2-3-1-3v-14l2-13 5-10 1-8z" fill="#A2A0A3"/>
<path transform="translate(483,455)" d="m0 0 6 1v2l7 1 6 2-4 1-8-2v9l-6-1-6-4h-5l-5 5h-3l-1-11 2 2 1 5 7-6 4 1 6 5 3 1-2-4-5-3v-3z" fill="#854F42"/>
<path transform="translate(361,1134)" d="m0 0h3l3 8v6l-5 6-1 2h-2l-1-6-3-2-1-5 5-5z" fill="#3A2F2F"/>
<path transform="translate(356,1124)" d="m0 0h4v7l5 2v5l-1-4h-3l-1 4-5 5 1 5 3 2v6h2l1-2v3l-3 1-1-1v-5l-4-1-4-3 1-7 4-6v-6l-1-4z" fill="#B0AEB3"/>
<path transform="translate(527,1373)" d="m0 0 3 3-2 4-4 2-3 10-5 12-5 8-5 4-5 10h-2l2-7 9-13 8-16z" fill="#834C3F"/>
<path transform="translate(497,369)" d="m0 0 4 2v2h2l2 4-1 7-9 3h-13l-14-2-8-4-9-2v-1l14-1 3 5 13 2h14l7-2-3-9z" fill="#8B645A"/>
<path transform="translate(499,440)" d="m0 0 4 1 5 4v2h13l9-5 13-2h6l2 5 4 2-3 1-8-4h-11l-5 3h-2v2l-3 2h-12v-2l-4-1-8-7z" fill="#6F4A42"/>
<path transform="translate(419,298)" d="m0 0 4 4v5l-1 1 6 4 1 3h-2l-1 7-3 5-1 12h-1l-2-25z" fill="#8A6B63"/>
<path transform="translate(533,443)" d="m0 0h11l24 12 5 4 2 4v6l-4 2 2-5-3-5-5-3-16-8-9-5-10 1z" fill="#5E4A47"/>
<path transform="translate(526,1481)" d="m0 0h1l-1 10-5 7-4 18 1 9h2l1 6-8-4-3-1 4-3 1-16 3-10 4-8 1-5h2z" fill="#141113"/>
<path transform="translate(374,1013)" d="m0 0 2 3 3 4-1 13-2-4-4 4-1-4h-2l-2-4 1-7 5-3z" fill="#423534"/>
<path transform="translate(466,639)" d="m0 0h3v7l1 4-3 5-4 2h-3l-2-5v-6l4-4z" fill="#66504C"/>
<path transform="translate(498,466)" d="m0 0 14 3 12 2 2 1-1 3h-19l-9-4-2-4z" fill="#CD9B8B"/>
<path transform="translate(397,599)" d="m0 0 1 3v4l5 1-1 10-2 3h-2l-2 4-7 12h-2l-2 5-2 1 2-6 10-16 6-9-6 1-1-1v-6z" fill="#6C5450"/>
<path transform="translate(576,1298)" d="m0 0h2l-1 10-4 10h-4l-3-4 2-8z" fill="#110F11"/>
<path transform="translate(333,1213)" d="m0 0 2 1 3 7 5 4 7 1 10 5v2l10 2v-13h1v18l-10-3-4-2v-2l-9-3-9-5-4-4v-2h-2z" fill="#9D989B"/>
<path transform="translate(642,375)" d="m0 0 5 1 4 1h2l-1 8-6 18-1-4v-6l1-5-5-8z" fill="#A46D5D"/>
<path transform="translate(534,467)" d="m0 0 6 1 2 2 1 5 11-2 5-2h5l4 2 6-4v3l-3 3-5 1-6-2-12 4h-9l-2-1 1-7-4-1z" fill="#814C3F"/>
<path transform="translate(493,367)" d="m0 0 4 1 5 9v5l-7 3h-14l2-4h4l1 2 4 1v-9l4-1v-5l-3-1z" fill="#824D40"/>
<path transform="translate(340,1331)" d="m0 0 3 1v10l-3 5-3 2-5-1-1-4 6-9z" fill="#865245"/>
<path transform="translate(613,517)" d="m0 0 1 3-12 22-12 18-12 20-2 2 1-5 4-8 7-12 3-1 2-5 5-8 13-22z" fill="#5F4D4B"/>
<path transform="translate(477,431)" d="m0 0 2 2v4l5 2-2 2h-6l-6-1-4 2-4 10h-1l-1-9 4-5 5-3h2v-2z" fill="#8C584A"/>
<path transform="translate(517,586)" d="m0 0 5 1 3 5v5l-3 1-1-3-9 1-5 4-5 1 6-7 4-4z" fill="#65504D"/>
<path transform="translate(454,912)" d="m0 0 2 2-1 5-4 8-2 1-1 6h-2l-2 5-4-1-1 2-2-1 12-19z" fill="#121012"/>
<path transform="translate(535,619)" d="m0 0 4 1 1 9 3 3-5 11-1-3 1-7-5-3-1-4-7 2h-3l6-5z" fill="#B0AEB3"/>
<path transform="translate(575,582)" d="m0 0 1 3-7 11-11 16-4 5-8 14-1-2 2-12 3-3 5-3 6-7 7-11 6-9z" fill="#705752"/>
<path transform="translate(507,554)" d="m0 0h7l12 2 10 1 5 1-2 3-8 1-15-3-9-4z" fill="#834C3F"/>
<path transform="translate(468,372)" d="m0 0 13 2 2 1-1 5-3 2h-7l-5-5-2-4z" fill="#2A2324"/>
<path transform="translate(441,294)" d="m0 0 1 3-2 30-3 12-3 9-1-4 3-12 1-9 1-25 1-3z" fill="#BA8476"/>
<path transform="translate(519,467)" d="m0 0h11l8 3-1 7h11l12-4 9 2v3l-5-2-8 1-3 2-6 2h-10l-5-4 3-2v-4l-6-2-10-1z" fill="#8C584A"/>
<path transform="translate(510,495)" d="m0 0 8 1h5l2 4-4 13v4l2 1-4 2-4-3v-6l-8 1 2-2 9-2 3-4 1-7-7 2z" fill="#834C3F"/>
<path transform="translate(452,521)" d="m0 0 5 5 9 10 12 10 10 4 9 2v1h-9l-11-4-14-12-6-5-5-9z" fill="#8A655B"/>
<path transform="translate(575,374)" d="m0 0 4 1-5 1v3l15 3 6 4-2 3h-8l-3-2h7l-3-3-12-3-10-2v-3l2-1z" fill="#57362F"/>
<path transform="translate(256,1335)" d="m0 0 5 2v9l-1 4-3 1-2-1v-2h-2l-2-5 1-5z" fill="#A06858"/>
<path transform="translate(345,897)" d="m0 0h1l-1 13-3 21-2 26-1 20h-1v-26l5-50z" fill="#745954"/>
<path transform="translate(503,491)" d="m0 0 16 1 10 1 4 2 1 3-5 7v6l-3-1-1-7 3-1v-5l-8-2-9-1-11-1z" fill="#9B6758"/>
<path transform="translate(565,1480)" d="m0 0 3 1 5 13v20l1 4h2l2 4-4-2-4-7-1-7 1-8-1-9-3-6-7 6-4 3 2-4z" fill="#2A2324"/>
<path transform="translate(560,550)" d="m0 0m-3 1h3v2l-35 19-2-1 3-2v-3l7-2 7-5z" fill="#88665D"/>
<path transform="translate(629,418)" d="m0 0 3 2-2 11-2 10-2-4-1-3-4 2-2 4 1-5 4-7 3-7z" fill="#814C3F"/>
<path transform="translate(502,1452)" d="m0 0 2 1-3 10-9 22-3 1 1-8 5-10 3-7 2-7z" fill="#322625"/>
<path transform="translate(419,561)" d="m0 0 1 4-7 14-8 13-4 7v4l4 3-1 5-1-4h-5l-1-5 5-10 8-13 6-10z" fill="#A8A5A9"/>
<path transform="translate(391,889)" d="m0 0h5l1 1v7l-5 10-1-3-3-6v-6z" fill="#3E3232"/>
<path transform="translate(438,359)" d="m0 0h1l1 9 1 2h7l3 8 12 3 5 4-4-1-15-4-11-8-1-3v-7z" fill="#AD796A"/>
<path transform="translate(459,628)" d="m0 0 3 3v4l-6 4 1 7v9h-1l-1-7-7-2-3-4 4-2v-2l-2-1 7 1 5-4z" fill="#B2B0B5"/>
<path transform="translate(609,523)" d="m0 0v3l-12 21-6 9-2-1 12-24 2-1 1-3z" fill="#88665D"/>
<path transform="translate(537,372)" d="m0 0 2 1-2 5-1 10 17-1 4-2-2 4-3 1-11 1-6 2-2-3v-8z" fill="#804C40"/>
<path transform="translate(473,465)" d="m0 0 10 1 3 2v2l-5-1-1-1h-7l-6 9 1 6 4 13-1 3-4-9-3-10 1-6z" fill="#AD796A"/>
<path transform="translate(522,1486)" d="m0 0 1 3-5 10-2 8-1 16-5 4h-8v-1l9-2 1-3 2-19z" fill="#2A2324"/>
<path transform="translate(429,364)" d="m0 0 1 4-3 17-3 8v2l-3 1-2-5v-6h5l2-9z" fill="#B58071"/>
<path transform="translate(588,373)" d="m0 0h14l2 5-5 2-11-3z" fill="#57362F"/>
<path transform="translate(354,719)" d="m0 0 1 3-2 7-3 19-2 7-2 9h-1l1-12 5-25z" fill="#A4A1A5"/>
<path transform="translate(525,514)" d="m0 0 10 1 5 2h8v1l-8 2-5 2-4 1-3-2-1-5-3-1z" fill="#885345"/>
<path transform="translate(540,183)" d="m0 0h15v1l-14 1-4 3-10 3-7 5-2-1 6-7 11-4z" fill="#8D726C"/>
<path transform="translate(259,1307)" d="m0 0h5v21l-1 13h-1l-1-31-8 1v-2z" fill="#824C3F"/>
<path transform="translate(420,761)" d="m0 0h3l2 3-1 6-3 6h-2l-2-5 1-8z" fill="#493A39"/>
<path transform="translate(604,367)" d="m0 0 4 1 3 10v7l-6 5-13 3-6-1v-1l11-2 11-4v-10z" fill="#8B5749"/>
<path transform="translate(534,1454)" d="m0 0 5 5-4 4-10-2-1-2 1-3 6-1z" fill="#8C584A"/>
<path transform="translate(328,1201)" d="m0 0h3l2 6v12h2l5 6 13 6-3 1-9-3-8-7-1-2-1-10z" fill="#4A3B39"/>
<path transform="translate(431,635)" d="m0 0h9l9 3 1 3-2 1-10-1-2-1v-2l-5-2z" fill="#A3A0A3"/>
<path transform="translate(546,281)" d="m0 0 15 1 7 2v2l5 1 11 9 3 4-1 2-9-9-10-6-5-2-16-3z" fill="#8C584A"/>
<path transform="translate(419,1469)" d="m0 0h3l1 3 3 1-2 6h-4-4l-1-5z" fill="#110F11"/>
<path transform="translate(634,413)" d="m0 0 2 8v9l-5 10h-1v-8l2-8 1-10z" fill="#8B6B63"/>
<path transform="translate(503,370)" d="m0 0 4 2 2 2-1 6-3 7-12 2-8-1v-1l13-2 6-1 2-7-1-5h-2z" fill="#9F6758"/>
<path transform="translate(291,1123)" d="m0 0h1v6h-2v3l4 1-2 6-2 1 1 2h-5v-2l-2-1v-3h3l1-7z" fill="#110F11"/>
<path transform="translate(557,385)" d="m0 0 4 1 5 3 17 1v1l-8 1h-10l-10-1-2-1z" fill="#8A6257"/>
<path transform="translate(443,609)" d="m0 0 7 4v2l4 2 6 7-1 4-4-5-11-11-8-1v-1z" fill="#A7A4A8"/>
<path transform="translate(524,506)" d="m0 0 2 1v3l10 2 1 2 7 1-1 2-5 1-5-2-4-1-3-3-3 1-1-2z" fill="#8D665B"/>
<path transform="translate(504,478)" d="m0 0 9 2 3 2-1 2-1 1h-7l-5-2v-4z" fill="#CC9A8A"/>
<path transform="translate(497,369)" d="m0 0 4 2v2h2l2 4-1 7-9 3-8-1v-1l11-2 4-1-3-9z" fill="#8C584A"/>
<path transform="translate(590,474)" d="m0 0m-1 1m-1 1m-2 1h2l-2 5-2 1-3 6h-2v2l-7 1-3 3 2-6 7-1 5-10z" fill="#895447"/>
<path transform="translate(483,453)" d="m0 0 8 2v1h-11v3l5 2 2 5-5-1-5-5-3-2z" fill="#5F4D4B"/>
<path transform="translate(533,443)" d="m0 0h11l14 9 6 3-3 1-14-7-7-4-10 1z" fill="#57362F"/>
<path transform="translate(557,383)" d="m0 0h5v2h2v2h11l7-1v2l3 1-9 1h-10l-5-3-5-2z" fill="#5C4441"/>
<path transform="translate(471,431)" d="m0 0m-1 1 1 3-9 6-1 2h-2v10h-1l-2-11 5-5z" fill="#9F6758"/>
<path transform="translate(470,650)" d="m0 0 1 3-4 5-6 4h-3l-1-10h2l1 5 8-4z" fill="#A4A1A4"/>
<path transform="translate(527,551)" d="m0 0 13 1h6l-3 3h-7l-10-1-5 1-12-2v-1h16z" fill="#57362F"/>
<path transform="translate(588,292)" d="m0 0 5 5 6 8 6 3 9 2v1h-8l-7-3-5-4-6-10z" fill="#57362F"/>
<path transform="translate(447,349)" d="m0 0h6l-3 1v2l-7 3-4 4-1 3h-2l1-7 5-4z" fill="#B68B81"/>
<path transform="translate(650,348)" d="m0 0 2 3 2 4v12h-1l-1-5-3 1-1-5z" fill="#956356"/>
<path transform="translate(589,556)" d="m0 0 1 4-12 20-2 2 1-5 4-8 7-12z" fill="#735954"/>
<path transform="translate(503,510)" d="m0 0 3 3 5-2h4v7l-5 1-1-3-5-1z" fill="#8B5749"/>
<path transform="translate(501,494)" d="m0 0h12l-4 2-4 1v9l2 7-2 1-2-4-1-9-2-6z" fill="#885345"/>
<path transform="translate(360,1134)" d="m0 0 1 3-5 4-1 4 1 3 3 2v6h2l1-2v3l-3 1-1-1v-5l-4-1-2-7 4-6z" fill="#A4A1A5"/>
<path transform="translate(543,367)" d="m0 0 4 1-5 3-6 3-4 8-1-4 2-6 5-4z" fill="#8E655A"/>
<path transform="translate(454,551)" d="m0 0h2l-1 7-2 6-1 2h-2v-9l2-5z" fill="#5F4C4A"/>
<path transform="translate(478,435)" d="m0 0 6 1h11l4 2v2h-14l-7-3z" fill="#8C6358"/>
<path transform="translate(665,812)" d="m0 0h1v7l-3 15-2-1v-7l3-13z" fill="#110F11"/>
<path transform="translate(387,636)" d="m0 0 1 3-7 14-2 6-2-1 2-9 3-6z" fill="#735953"/>
<path transform="translate(661,1588)" d="m0 0 1 2 4-2 1 3v7l-2 2v-3l-4 1v-4z" fill="#161315"/>
<path transform="translate(361,1134)" d="m0 0h3l1 7-3 1-3-1-2 1v5l1 2-3-1-1-5 5-5z" fill="#6C5551"/>
<path transform="translate(617,495)" d="m0 0h1v11l-3 11h-2l-2 6h-2l2-5 5-13z" fill="#765B55"/>
<path transform="translate(439,220)" d="m0 0 1 2-1 6-5 4-2 2-4 2 2-4 6-8z" fill="#796968"/>
<path transform="translate(454,558)" d="m0 0h1l-1 12-1 7-2 1-1-7-1-2 1-3 2-2z" fill="#895E52"/>
<path transform="translate(499,440)" d="m0 0 4 1 5 4v2h15l-1 3h-11l-5-3-7-6z" fill="#875649"/>
<path transform="translate(616,343)" d="m0 0h1l4 13 2 11v5l-2-3-3-12-2-5z" fill="#885345"/>
<path transform="translate(573,1498)" d="m0 0h2v20l-3-4v-12z" fill="#57362F"/>
<path transform="translate(340,1328)" d="m0 0h3l2 5-1 10-3 3 1-4v-10h-2l-5 5 2-4z" fill="#573730"/>
<path transform="translate(633,376)" d="m0 0h1l2 8-1 6-4 1-2-6h4z" fill="#57362F"/>
<path transform="translate(502,1452)" d="m0 0 2 1-3 10-3 7h-1l1-9 2-7z" fill="#432D2A"/>
<path transform="translate(474,501)" d="m0 0 4 2 3 3h9l4 1v2h-14l-3-2v-3h-2z" fill="#BE887A"/>
<path transform="translate(464,458)" d="m0 0 2 2 1 5 7-4 4 1v1l-6 2-4 4h-3z" fill="#885346"/>
<path transform="translate(568,285)" d="m0 0 6 1 10 8 6 9-3-1-3-4v-2l-4-2-9-7z" fill="#834C3F"/>
<path transform="translate(550,614)" d="m0 0 3 1-2 2-3 11-3 3 1-8 1-6z" fill="#81615A"/>
<path transform="translate(509,497)" d="m0 0 3 3 1 5-1 2-5-1v-7z" fill="#53342E"/>
<path transform="translate(473,465)" d="m0 0 10 1 3 2v2l-5-1-1-1h-7l-4 5-2-1z" fill="#AB7767"/>
<path transform="translate(489,456)" d="m0 0 8 1 7 2 4 4-6-1-13-4z" fill="#754C43"/>
<path transform="translate(502,284)" d="m0 0h11l5 4 2 2h-6l-4-3-8-1z" fill="#B88274"/>
<path transform="translate(515,1520)" d="m0 0h2l1 5h2l1 6-8-4-3-1 4-3z" fill="#120F11"/>
<path transform="translate(393,624)" d="m0 0 1 4-5 8h-2l-2 5-2 1 2-6 7-11z" fill="#67524E"/>
<path transform="translate(498,493)" d="m0 0h13v1l-10 1 2 9-2 1-3-7z" fill="#8E665B"/>
<path transform="translate(491,190)" d="m0 0 7 2 8 6-1 2h-2v-2l-6-1-2-2v-3l-4-1z" fill="#8F756F"/>
<path transform="translate(521,1497)" d="m0 0 1 2-3 13v13l-2-2-1-7 4-18z" fill="#382927"/>
<path transform="translate(585,492)" d="m0 0 2 4 1 6-4 2-5-3 3-1h2z" fill="#57362F"/>
<path transform="translate(472,436)" d="m0 0 5 2v2h5v1h-6l-6-1-4 2-3 4 1-5 5-4z" fill="#834C3F"/>
<path transform="translate(622,387)" d="m0 0 2 1 3 11v11h-1l-2-13-2-5z" fill="#9B6758"/>
<path transform="translate(340,1349)" d="m0 0h1v15h-3v-13z" fill="#2C2525"/>
<path transform="translate(498,550)" d="m0 0 11 1v2h9l2 2-2 1-20-4z" fill="#5E4A47"/>
<path transform="translate(419,385)" d="m0 0 1 3 6-3-2 10-3 1-2-5z" fill="#BB8C80"/>
<path transform="translate(595,308)" d="m0 0 10 4 10 3 1 4-4-3-9-1-8-5z" fill="#834C3F"/>
<path transform="translate(418,265)" d="m0 0 1 2 3-1-1 9-2 2-1 5h-1z" fill="#746463"/>
<path transform="translate(527,1475)" d="m0 0h3l-1 7-2 7-1-3v-4l-2 2 1-6z" fill="#3D2B28"/>
<path transform="translate(527,1373)" d="m0 0 3 3-2 4-4 2-1 4-2-1z" fill="#844F42"/>
<path transform="translate(467,482)" d="m0 0 3 1 3 12 2 3v6l-3-3z" fill="#BA8678"/>
<path transform="translate(473,362)" d="m0 0 9 2 1 3h-7l-4-1z" fill="#2A2324"/>
<path transform="translate(437,323)" d="m0 0h1v14l-4 11-1-4 3-12z" fill="#B47F71"/>
<path transform="translate(575,292)" d="m0 0 4 2 7 7 7 8h-3l-9-10-2-1v-2l-4-2z" fill="#88665D"/>
<path transform="translate(477,547)" d="m0 0 6 1 5 2 9 2v1h-9l-11-4z" fill="#8E655A"/>
<path transform="translate(574,469)" d="m0 0v3l-3 3-5 1-4-2v-2l-3-1h5l4 2z" fill="#7B4E44"/>
<path transform="translate(493,463)" d="m0 0 6 1-4 2h-2l1 7-8-1v-2h6l-1-5z" fill="#AD796A"/>
<path transform="translate(487,457)" d="m0 0 13 3 2 2-7-1-5-1-1 5-3-4-1-3z" fill="#8C584A"/>
<path transform="translate(377,658)" d="m0 0 1 4-4 9-4 1z" fill="#6A534F"/>
<path transform="translate(483,455)" d="m0 0 6 1-3 3 2 5h-2l-4-4-2-1v-3z" fill="#824C3F"/>
<path transform="translate(423,1560)" d="m0 0 2 2v7l-3 2-2-5 2-5z" fill="#110F11"/>
<path transform="translate(422,421)" d="m0 0 2 2 2 7-1 4-3-5-1 6h-1v-8z" fill="#A5A0A3"/>
<path transform="translate(471,384)" d="m0 0h13l7 2v1h-9l-10-1z" fill="#8C665C"/>
<path transform="translate(588,373)" d="m0 0 9 1-3 4-6-1z" fill="#452E2A"/>
<path transform="translate(456,366)" d="m0 0h10l3 2v2l-4 1h-7l4-3-6-1z" fill="#875244"/>
<path transform="translate(530,1396)" d="m0 0 3 2-2 8-3-1v-8z" fill="#A06858"/>
<path transform="translate(557,609)" d="m0 0h2l-2 4-5 8-3 3 1-7z" fill="#64504D"/>
<path transform="translate(473,467)" d="m0 0 4 1-6 5-3 9-2-1 1-6z" fill="#BE887A"/>
<path transform="translate(291,1364)" d="m0 0h6l-2 6h-7z" fill="#110F11"/>
<path transform="translate(328,1201)" d="m0 0h3l2 6 1 14-2-1-1-10z" fill="#3A2F2F"/>
<path transform="translate(396,884)" d="m0 0h2v12h-1l-1-6h-5l-2 1 1-3z" fill="#A9A7AB"/>
<path transform="translate(467,436)" d="m0 0m-1 1v3l-2 3-2 9h-1l-1-9 4-5z" fill="#8A5648"/>
<path transform="translate(546,281)" d="m0 0 15 1 7 2-1 2-11-2-10-2z" fill="#885345"/>
<path transform="translate(491,1512)" d="m0 0 1 2 3 1 5 10-4-2-5-7z" fill="#3C2A28"/>
<path transform="translate(378,1297)" d="m0 0 2 2v9l-2 3-1-3v-9z" fill="#2A2324"/>
<path transform="translate(333,1213)" d="m0 0 2 1 3 7 5 4 3 3-6-2-5-5v-2h-2z" fill="#999193"/>
<path transform="translate(398,599)" d="m0 0h1v5l5 1 1 3-2 3v-4h-5l-1-5z" fill="#A3A0A4"/>
<path transform="translate(544,440)" d="m0 0h5l2 5 4 2-3 1-3-1-2-4-4-2z" fill="#814C3F"/>
<path transform="translate(290,1391)" d="m0 0h5l4 2v3l-7-1z" fill="#8A5447"/>
<path transform="translate(529,1378)" d="m0 0 3 1v2h-2v3l-3 2-3-1 3-5z" fill="#9D6656"/>
<path transform="translate(433,536)" d="m0 0 2 1-5 9-1-2v-3l-4-2z" fill="#9B9191"/>
<path transform="translate(529,438)" d="m0 0m-1 1m-2 1h2l-1 3-8 4h-8v-1l9-2z" fill="#AD796A"/>
<path transform="translate(618,378)" d="m0 0 4 1 1 7h-2l-1-4h-3l-1 2 1-5z" fill="#92665A"/>
<path transform="translate(579,1517)" d="m0 0 6 1-2 4h-5l-1-4z" fill="#855B4F"/>
<path transform="translate(335,1337)" d="m0 0 1 3-2 7 4 1-5 1-2-2 1-5z" fill="#814C3F"/>
<path transform="translate(374,1009)" d="m0 0 3 1v8l-3-3-4 1z" fill="#A39EA1"/>
<path transform="translate(400,615)" d="m0 0h2l-2 5h-2l-2 4-2 2-1-3z" fill="#705752"/>
<path transform="translate(263,745)" d="m0 0 2 1v3l2-2-1 7-3 2-1-5z" fill="#62514F"/>
<path transform="translate(499,438)" d="m0 0 5 1 5 4v2l2 1-5-1-4-4-3-1z" fill="#B27D6E"/>
<path transform="translate(406,1401)" d="m0 0 5 1 2 4-2 1-5-2-1-3z" fill="#2A2324"/>
<path transform="translate(345,897)" d="m0 0h1l-1 13-2 3v-12z" fill="#6D5551"/>
<path transform="translate(526,511)" d="m0 0 3 2-1 2h-3l-1 2h-3l-1-4z" fill="#8B5749"/>
<path transform="translate(480,460)" d="m0 0 5 1 2 5-5-1-3-4z" fill="#57362F"/>
<path transform="translate(338,1337)" d="m0 0h2l1 5-3 3h-2l1-7z" fill="#9E6758"/>
<path transform="translate(399,547)" d="m0 0h3v4l-6 1v-2l-2-1z" fill="#685653"/>
<path transform="translate(576,462)" d="m0 0h1v9l-5 6h-2l1-3h2l2-5z" fill="#94675A"/>
<path transform="translate(557,383)" d="m0 0h5v2h2v2l3 1-4 1-3-3-4-2z" fill="#5D4946"/>
<path transform="translate(418,277)" d="m0 0h2v9l1 4-3 3z" fill="#655452"/>
<path transform="translate(495,182)" d="m0 0 6 3 1 3 2-1v5l-7-6z" fill="#968685"/>
<path transform="translate(556,176)" d="m0 0 4 2 1 2-4-2z" fill="#91817F"/>
<path transform="translate(485,182)" d="m0 0 3 1v2l-3-1z" fill="#998E8D"/>
<path transform="translate(442,216)" d="m0 0v3l-2 1z" fill="#8D7D7C"/>
<path transform="translate(490,186)" d="m0 0 4 1-3 1z" fill="#A3A1A4"/>
<path transform="translate(490,181)" d="m0 0 3 2h-5z" fill="#A6A4A7"/>
<path transform="translate(465,188)" d="m0 0 2 1h-3z" fill="#9F9495"/>
<path transform="translate(470,187)" d="m0 0 2 1z" fill="#A19EA1"/>
<path transform="translate(467,187)" d="m0 0 2 1z" fill="#B6B4B8"/>
<path transform="translate(510,185)" d="m0 0" fill="#A9A7AB"/>
<path transform="translate(493,176)" d="m0 0" fill="#A99896"/>
<path transform="translate(552,173)" d="m0 0 2 1z" fill="#94827F"/>
<path transform="translate(445,214)" d="m0 0" fill="#88665D"/>
<path transform="translate(516,189)" d="m0 0" fill="#B2B0B5"/>
<path transform="translate(576,188)" d="m0 0" fill="#5F4D4B"/>
<path transform="translate(473,187)" d="m0 0" fill="#A19EA1"/>
<path transform="translate(511,184)" d="m0 0" fill="#A19EA1"/>
<path transform="translate(512,182)" d="m0 0" fill="#A19EA1"/>
<path transform="translate(561,180)" d="m0 0" fill="#5F4D4B"/>
<path transform="translate(514,179)" d="m0 0" fill="#B2B0B5"/>
<path transform="translate(555,175)" d="m0 0" fill="#88665D"/>
<path transform="translate(554,174)" d="m0 0" fill="#A19EA1"/>
<path transform="translate(497,174)" d="m0 0" fill="#A19EA1"/>
<path transform="translate(551,172)" d="m0 0" fill="#A19EA1"/>
<path transform="translate(549,171)" d="m0 0" fill="#A19EA1"/>
<path transform="translate(547,170)" d="m0 0" fill="#A19EA1"/>
</svg>
