<?xml version="1.0" encoding="UTF-8" standalone="no"?>
<!-- Created with Inkscape (http://www.inkscape.org/) -->

<svg
   version="1.1"
   id="svg1"
   width="268"
   height="140"
   viewBox="0 0 268 140"
   sodipodi:docname="logo2.svg"
   xml:space="preserve"
   inkscape:version="1.3.2 (091e20e, 2023-11-25, custom)"
   inkscape:export-filename="logo2.svg"
   inkscape:export-xdpi="96"
   inkscape:export-ydpi="96"
   xmlns:inkscape="http://www.inkscape.org/namespaces/inkscape"
   xmlns:sodipodi="http://sodipodi.sourceforge.net/DTD/sodipodi-0.dtd"
   xmlns="http://www.w3.org/2000/svg"
   xmlns:svg="http://www.w3.org/2000/svg"><defs
     id="defs1"><inkscape:path-effect
       effect="fillet_chamfer"
       id="path-effect6"
       is_visible="true"
       lpeversion="1"
       nodesatellites_param="F,0,0,1,0,0.48813617,0,1 @ F,0,0,1,0,0.48813617,0,1 @ F,0,0,1,0,0.48813617,0,1 @ F,0,0,1,0,0.48813617,0,1"
       radius="0"
       unit="px"
       method="auto"
       mode="F"
       chamfer_steps="1"
       flexible="false"
       use_knot_distance="true"
       apply_no_radius="true"
       apply_with_radius="true"
       only_selected="false"
       hide_knots="false" /><inkscape:path-effect
       effect="fillet_chamfer"
       id="path-effect5"
       is_visible="true"
       lpeversion="1"
       nodesatellites_param="F,0,0,1,0,0,0,1 @ F,0,0,1,0,0,0,1 @ F,0,0,1,0,0,0,1 @ F,0,0,1,0,0,0,1 @ F,0,0,1,0,0,0,1 @ F,0,0,1,0,0,0,1 @ F,0,0,1,0,0,0,1 @ F,0,0,1,0,0,0,1 @ F,0,0,1,0,0,0,1 @ F,0,0,1,0,0,0,1 @ F,0,0,1,0,0,0,1 @ F,0,0,1,0,0,0,1 @ F,0,0,1,0,0,0,1 @ F,0,0,1,0,0,0,1 @ F,0,0,1,0,0,0,1 @ F,0,0,1,0,0,0,1 @ F,0,0,1,0,0,0,1 @ F,0,0,1,0,0,0,1 @ F,0,0,1,0,0,0,1 @ F,0,0,1,0,0,0,1 @ F,0,0,1,0,0,0,1 @ F,0,0,1,0,0,0,1 @ F,0,0,1,0,0,0,1 @ F,0,0,1,0,0,0,1 @ F,0,0,1,0,0,0,1 @ F,0,0,1,0,0,0,1 @ F,0,0,1,0,0,0,1 @ F,0,0,1,0,0,0,1 @ F,0,0,1,0,0,0,1 @ F,0,0,1,0,0,0,1 @ F,0,0,1,0,0,0,1 @ F,0,0,1,0,0,0,1 @ F,0,0,1,0,0,0,1 @ F,0,0,1,0,0,0,1 @ F,0,0,1,0,0,0,1 @ F,0,0,1,0,0,0,1 @ F,0,0,1,0,0,0,1 @ F,0,0,1,0,0,0,1 @ F,0,0,1,0,0,0,1 @ F,0,0,1,0,0,0,1 @ F,0,0,1,0,0,0,1 @ F,0,0,1,0,0,0,1 @ F,0,0,1,0,0,0,1 @ F,0,0,1,0,0,0,1 @ F,0,0,1,0,0,0,1 @ F,0,0,1,0,0,0,1 @ F,0,0,1,0,0,0,1 @ F,0,0,1,0,0,0,1 @ F,0,0,1,0,0,0,1 @ F,0,0,1,0,0,0,1 @ F,0,0,1,0,0,0,1 @ F,0,0,1,0,0,0,1 @ F,0,0,1,0,0,0,1 @ F,0,0,1,0,0,0,1 @ F,0,0,1,0,0,0,1 @ F,0,0,1,0,0,0,1 @ F,0,0,1,0,0,0,1 @ F,0,0,1,0,0,0,1 @ F,0,0,1,0,0,0,1 @ F,0,0,1,0,0,0,1 @ F,0,0,1,0,0,0,1 @ F,0,0,1,0,0,0,1 @ F,0,0,1,0,0,0,1 @ F,0,0,1,0,0,0,1 @ F,0,0,1,0,0,0,1 @ F,0,0,1,0,0,0,1 @ F,0,0,1,0,0,0,1 @ F,0,0,1,0,0,0,1 @ F,0,0,1,0,0,0,1 @ F,0,0,1,0,0,0,1 @ F,0,0,1,0,0,0,1 @ F,0,0,1,0,0,0,1 @ F,0,0,1,0,0,0,1 @ F,0,0,1,0,0,0,1 @ F,0,0,1,0,0,0,1 @ F,0,0,1,0,0,0,1 @ F,0,0,1,0,0,0,1 @ F,0,0,1,0,0,0,1 @ F,0,0,1,0,0,0,1 @ F,0,0,1,0,0,0,1 @ F,0,0,1,0,0,0,1 @ F,0,0,1,0,0,0,1 @ F,0,0,1,0,0,0,1 @ F,0,0,1,0,0,0,1 @ F,0,0,1,0,0,0,1 @ F,0,0,1,0,0,0,1 @ F,0,0,1,0,0,0,1 @ F,0,0,1,0,0,0,1 @ F,0,0,1,0,0,0,1 @ F,0,0,1,0,0,0,1 @ F,0,0,1,0,0,0,1 @ F,0,0,1,0,0,0,1 @ F,0,0,1,0,0,0,1 @ F,0,0,1,0,0,0,1 @ F,0,0,1,0,0,0,1 @ F,0,0,1,0,0,0,1 @ F,0,0,1,0,0,0,1 @ F,0,0,1,0,0,0,1 @ F,0,0,1,0,0,0,1 @ F,0,0,1,0,0,0,1 @ F,0,0,1,0,0,0,1 @ F,0,0,1,0,0,0,1 @ F,0,0,1,0,0,0,1 @ F,0,0,1,0,0,0,1 @ F,0,0,1,0,0,0,1 @ F,0,0,1,0,0,0,1 @ F,0,0,1,0,0,0,1 @ F,0,0,1,0,0,0,1 @ F,0,0,1,0,0,0,1 @ F,0,0,1,0,0,0,1 @ F,0,0,1,0,0,0,1 @ F,0,0,1,0,0,0,1 @ F,0,0,1,0,0,0,1 @ F,0,0,1,0,0,0,1 @ F,0,0,1,0,0,0,1 @ F,0,0,1,0,0,0,1 @ F,0,0,1,0,0,0,1 @ F,0,0,1,0,0,0,1 @ F,0,0,1,0,0,0,1 @ F,0,0,1,0,0,0,1 @ F,0,0,1,0,0,0,1 @ F,0,0,1,0,0,0,1 @ F,0,0,1,0,0,0,1 @ F,0,0,1,0,0,0,1 @ F,0,0,1,0,0,0,1 @ F,0,0,1,0,0,0,1 @ F,0,0,1,0,0,0,1 @ F,0,0,1,0,0,0,1 @ F,0,0,1,0,0,0,1 @ F,0,0,1,0,0,0,1 @ F,0,0,1,0,0,0,1 @ F,0,0,1,0,0,0,1 @ F,0,0,1,0,0,0,1 @ F,0,0,1,0,0,0,1 @ F,0,0,1,0,0,0,1 @ F,0,0,1,0,0,0,1 @ F,0,0,1,0,0,0,1 @ F,0,0,1,0,0,0,1 @ F,0,0,1,0,0,0,1 @ F,0,0,1,0,0,0,1 @ F,0,0,1,0,0,0,1 @ F,0,0,1,0,0,0,1 @ F,0,0,1,0,0,0,1 @ F,0,0,1,0,0,0,1 @ F,0,0,1,0,0,0,1 @ F,0,0,1,0,0,0,1 @ F,0,0,1,0,0,0,1 @ F,0,0,1,0,0,0,1 @ F,0,0,1,0,0,0,1 @ F,0,0,1,0,0,0,1 @ F,0,0,1,0,0,0,1 @ F,0,0,1,0,0,0,1 @ F,0,0,1,0,0,0,1 @ F,0,0,1,0,0,0,1 @ F,0,0,1,0,0,0,1 @ F,0,0,1,0,0,0,1 @ F,0,0,1,0,0,0,1 @ F,0,0,1,0,0,0,1 @ F,0,0,1,0,0,0,1 @ F,0,0,1,0,0,0,1 @ F,0,0,1,0,0,0,1 @ F,0,0,1,0,0,0,1 @ F,0,0,1,0,0,0,1 @ F,0,0,1,0,0,0,1 @ F,0,0,1,0,0,0,1 @ F,0,0,1,0,0,0,1 @ F,0,0,1,0,0,0,1 @ F,0,0,1,0,0,0,1 @ F,0,0,1,0,0,0,1 @ F,0,0,1,0,0,0,1 @ F,0,0,1,0,0,0,1 @ F,0,0,1,0,0,0,1 @ F,0,0,1,0,0,0,1 @ F,0,0,1,0,0,0,1 @ F,0,0,1,0,0,0,1 @ F,0,0,1,0,0,0,1 @ F,0,0,1,0,0,0,1 @ F,0,0,1,0,0,0,1 @ F,0,0,1,0,0,0,1 @ F,0,0,1,0,0,0,1 @ F,0,0,1,0,0,0,1 @ F,0,0,1,0,0,0,1 @ F,0,0,1,0,0,0,1 @ F,0,0,1,0,0,0,1 @ F,0,0,1,0,0,0,1 @ F,0,0,1,0,0,0,1 @ F,0,0,1,0,0,0,1 @ F,0,0,1,0,0,0,1 @ F,0,0,1,0,0,0,1 @ F,0,0,1,0,0,0,1 @ F,0,0,1,0,0,0,1 @ F,0,0,1,0,0,0,1 @ F,0,0,1,0,0,0,1 @ F,0,0,1,0,0,0,1 @ F,0,0,1,0,0,0,1 @ F,0,0,1,0,0,0,1 @ F,0,0,1,0,0,0,1 @ F,0,0,1,0,0,0,1 @ F,0,0,1,0,0,0,1 @ F,0,0,1,0,0,0,1 @ F,0,0,1,0,0,0,1 @ F,0,0,1,0,0,0,1 @ F,0,0,1,0,0,0,1 @ F,0,0,1,0,0,0,1 @ F,0,0,1,0,0,0,1 @ F,0,0,1,0,0,0,1 @ F,0,0,1,0,0,0,1 @ F,0,0,1,0,0,0,1 @ F,0,0,1,0,0,0,1 @ F,0,0,1,0,0,0,1 @ F,0,0,1,0,0,0,1 @ F,0,0,1,0,0,0,1 @ F,0,0,1,0,0,0,1 @ F,0,0,1,0,0,0,1 @ F,0,0,1,0,0,0,1"
       radius="0"
       unit="px"
       method="auto"
       mode="F"
       chamfer_steps="1"
       flexible="false"
       use_knot_distance="true"
       apply_no_radius="true"
       apply_with_radius="true"
       only_selected="false"
       hide_knots="false" /><inkscape:path-effect
       effect="bspline"
       id="path-effect3"
       is_visible="true"
       lpeversion="1.3"
       weight="33.333333"
       steps="2"
       helper_size="0"
       apply_no_weight="true"
       apply_with_weight="true"
       only_selected="false"
       uniform="false" /><inkscape:path-effect
       effect="bspline"
       id="path-effect93"
       is_visible="true"
       lpeversion="1.3"
       weight="33.333333"
       steps="2"
       helper_size="0"
       apply_no_weight="true"
       apply_with_weight="true"
       only_selected="false"
       uniform="false" /><inkscape:path-effect
       effect="bspline"
       id="path-effect50"
       is_visible="true"
       lpeversion="1.3"
       weight="33.333333"
       steps="2"
       helper_size="0"
       apply_no_weight="true"
       apply_with_weight="true"
       only_selected="false"
       uniform="false" /><inkscape:path-effect
       effect="fillet_chamfer"
       id="path-effect49"
       is_visible="true"
       lpeversion="1"
       nodesatellites_param="F,0,0,1,0,0,0,1 @ F,0,0,1,0,0,0,1 @ F,0,0,1,0,0,0,1 @ F,0,0,1,0,0,0,1 @ F,0,0,1,0,0,0,1 @ F,0,0,1,0,0,0,1 @ F,0,0,1,0,0,0,1 @ F,0,0,1,0,0,0,1 | F,0,0,1,0,0,0,1 @ F,0,0,1,0,0,0,1 @ F,0,0,1,0,0,0,1 @ F,0,0,1,0,0,0,1 @ F,0,0,1,0,0,0,1 @ F,0,0,1,0,0,0,1 @ F,0,0,1,0,0,0,1 @ F,0,0,1,0,0,0,1 @ F,0,0,1,0,0,0,1 @ F,0,0,1,0,0,0,1 @ F,0,0,1,0,0,0,1 @ F,0,0,1,0,0,0,1 @ F,0,0,1,0,0,0,1 @ F,0,0,1,0,0,0,1 @ F,0,0,1,0,0,0,1 @ F,0,0,1,0,0,0,1 | F,0,0,1,0,0,0,1 @ F,0,0,1,0,0,0,1 @ F,0,0,1,0,0,0,1 @ F,0,0,1,0,0,0,1 @ F,0,0,1,0,0,0,1 @ F,0,0,1,0,0,0,1 @ F,0,0,1,0,0,0,1 @ F,0,0,1,0,0,0,1 @ F,0,0,1,0,0,0,1 @ F,0,0,1,0,0,0,1 @ F,0,0,1,0,0,0,1 @ F,0,0,1,0,0,0,1 @ F,0,0,1,0,0,0,1 @ F,0,0,1,0,0,0,1 @ F,0,0,1,0,0,0,1 @ F,0,0,1,0,0,0,1 @ F,0,0,1,0,0,0,1 @ F,0,0,1,0,0,0,1 @ F,0,0,1,0,0,0,1 @ F,0,0,1,0,0,0,1 @ F,0,0,1,0,0,0,1 @ F,0,0,1,0,0,0,1 @ F,0,0,1,0,0,0,1 @ F,0,0,1,0,0,0,1 @ F,0,0,1,0,0,0,1 @ F,0,0,1,0,0,0,1 @ F,0,0,1,0,0,0,1 @ F,0,0,1,0,0,0,1 @ F,0,0,1,0,0,0,1 @ F,0,0,1,0,0,0,1 @ F,0,0,1,0,0,0,1 @ F,0,0,1,0,0,0,1 @ F,0,0,1,0,0,0,1 @ F,0,0,1,0,0,0,1 @ F,0,0,1,0,0,0,1 @ F,0,0,1,0,0,0,1 @ F,0,0,1,0,0,0,1 @ F,0,0,1,0,0,0,1 @ F,0,0,1,0,0,0,1 @ F,0,0,1,0,0,0,1 @ F,0,0,1,0,0,0,1 @ F,0,0,1,0,0,0,1 @ F,0,0,1,0,0,0,1 @ F,0,0,1,0,0,0,1 @ F,0,0,1,0,0,0,1 @ F,0,0,1,0,0,0,1 @ F,0,0,1,0,0,0,1 @ F,0,0,1,0,0,0,1 @ F,0,0,1,0,0,0,1 @ F,0,0,1,0,0,0,1 @ F,0,0,1,0,0,0,1 @ F,0,0,1,0,0,0,1 @ F,0,0,1,0,0,0,1 @ F,0,0,1,0,0,0,1 @ F,0,0,1,0,0,0,1 @ F,0,0,1,0,0,0,1 @ F,0,0,1,0,0,0,1 @ F,0,0,1,0,0,0,1 @ F,0,0,1,0,0,0,1 @ F,0,0,1,0,0,0,1 @ F,0,0,1,0,0,0,1 @ F,0,0,1,0,0,0,1 @ F,0,0,1,0,0,0,1 @ F,0,0,1,0,0,0,1 @ F,0,0,1,0,0,0,1 @ F,0,0,1,0,0,0,1 @ F,0,0,1,0,0,0,1 @ F,0,0,1,0,0,0,1 @ F,0,0,1,0,0,0,1 @ F,0,0,1,0,0,0,1 @ F,0,0,1,0,0,0,1 @ F,0,0,1,0,0,0,1 @ F,0,0,1,0,0,0,1 @ F,0,0,1,0,0,0,1 @ F,0,0,1,0,0,0,1 @ F,0,0,1,0,0,0,1 @ F,0,0,1,0,0,0,1 @ F,0,0,1,0,0,0,1 @ F,0,0,1,0,0,0,1 | F,0,0,1,0,0,0,1 @ F,0,0,1,0,0,0,1 @ F,0,0,1,0,0,0,1 @ F,0,0,1,0,0,0,1 @ F,0,0,1,0,0,0,1 @ F,0,0,1,0,0,0,1 @ F,0,0,1,0,0,0,1 @ F,0,0,1,0,0,0,1 @ F,0,0,1,0,0,0,1 @ F,0,0,1,0,0,0,1 @ F,0,0,1,0,0,0,1 @ F,0,0,1,0,0,0,1 @ F,0,0,1,0,0,0,1 @ F,0,0,1,0,0,0,1 @ F,0,0,1,0,0,0,1 @ F,0,0,1,0,0,0,1 | F,0,0,1,0,0,0,1 @ F,0,0,1,0,0,0,1 @ F,0,0,1,0,0,0,1 @ F,0,0,1,0,0,0,1 @ F,0,0,1,0,0,0,1 @ F,0,0,1,0,0,0,1 @ F,0,0,1,0,0,0,1 @ F,0,0,1,0,0,0,1 @ F,0,0,1,0,0,0,1 @ F,0,0,1,0,0,0,1 @ F,0,0,1,0,0,0,1 | F,0,0,1,0,0,0,1 @ F,0,0,1,0,0,0,1 @ F,0,0,1,0,0,0,1 @ F,0,0,1,0,0,0,1 @ F,0,0,1,0,0,0,1 @ F,0,0,1,0,0,0,1 @ F,0,0,1,0,0,0,1 @ F,0,0,1,0,0,0,1 | F,0,0,1,0,0,0,1 @ F,0,0,1,0,0,0,1 @ F,0,0,1,0,0,0,1 @ F,0,0,1,0,0,0,1 @ F,0,0,1,0,0,0,1 @ F,0,0,1,0,0,0,1 @ F,0,0,1,0,0,0,1 @ F,0,0,1,0,0,0,1 @ F,0,0,1,0,0,0,1 @ F,0,0,1,0,0,0,1 @ F,0,0,1,0,0,0,1 @ F,0,0,1,0,0,0,1 @ F,0,0,1,0,0,0,1 @ F,0,0,1,0,0,0,1 | F,0,0,1,0,0,0,1 @ F,0,0,1,0,0,0,1 @ F,0,0,1,0,0,0,1 @ F,0,0,1,0,0,0,1 @ F,0,0,1,0,0,0,1 @ F,0,0,1,0,0,0,1 @ F,0,0,1,0,0,0,1 @ F,0,0,1,0,0,0,1 | F,0,0,1,0,0,0,1 @ F,0,0,1,0,0,0,1 @ F,0,0,1,0,0,0,1 @ F,0,0,1,0,0,0,1 @ F,0,0,1,0,0,0,1 @ F,0,0,1,0,0,0,1 @ F,0,0,1,0,0,0,1 @ F,0,0,1,0,0,0,1 @ F,0,0,1,0,0,0,1 @ F,0,0,1,0,0,0,1 @ F,0,0,1,0,0,0,1 @ F,0,0,1,0,0,0,1 @ F,0,0,1,0,0,0,1 @ F,0,0,1,0,0,0,1 @ F,0,0,1,0,0,0,1 | F,0,0,1,0,0,0,1 @ F,0,0,1,0,0,0,1 @ F,0,0,1,0,0,0,1 @ F,0,0,1,0,0,0,1 @ F,0,0,1,0,0,0,1 @ F,0,0,1,0,0,0,1 @ F,0,0,1,0,0,0,1 @ F,0,0,1,0,0,0,1 @ F,0,0,1,0,0,0,1 @ F,0,0,1,0,0,0,1 @ F,0,0,1,0,0,0,1 @ F,0,0,1,0,0,0,1 @ F,0,0,1,0,0,0,1 @ F,0,0,1,0,0,0,1 @ F,0,0,1,0,0,0,1 @ F,0,0,1,0,0,0,1 @ F,0,0,1,0,0,0,1 @ F,0,0,1,0,0,0,1 @ F,0,0,1,0,0,0,1 @ F,0,0,1,0,0,0,1 @ F,0,0,1,0,0,0,1 | F,0,0,1,0,0,0,1 @ F,0,0,1,0,0,0,1 @ F,0,0,1,0,0,0,1 @ F,0,0,1,0,0,0,1 @ F,0,0,1,0,0,0,1 @ F,0,0,1,0,0,0,1 @ F,0,0,1,0,0,0,1 @ F,0,0,1,0,0,0,1 | F,0,0,1,0,0,0,1 @ F,0,0,1,0,0,0,1 @ F,0,0,1,0,0,0,1 @ F,0,0,1,0,0,0,1 @ F,0,0,1,0,0,0,1 @ F,0,0,1,0,0,0,1 @ F,0,0,1,0,0,0,1 | F,0,0,1,0,0,0,1 @ F,0,0,1,0,0,0,1 @ F,0,0,1,0,0,0,1 @ F,0,0,1,0,0,0,1 @ F,0,0,1,0,0,0,1 @ F,0,0,1,0,0,0,1 @ F,0,0,1,0,0,0,1 @ F,0,0,1,0,0,0,1 @ F,0,0,1,0,0,0,1 @ F,0,0,1,0,0,0,1 | F,0,0,1,0,0,0,1 @ F,0,0,1,0,0,0,1 @ F,0,0,1,0,0,0,1 @ F,0,0,1,0,0,0,1 @ F,0,0,1,0,0,0,1 @ F,0,0,1,0,0,0,1 @ F,0,0,1,0,0,0,1 @ F,0,0,1,0,0,0,1 @ F,0,0,1,0,0,0,1 @ F,0,0,1,0,0,0,1 | F,0,0,1,0,0,0,1 @ F,0,0,1,0,0,0,1 @ F,0,0,1,0,0,0,1 @ F,0,0,1,0,0,0,1 @ F,0,0,1,0,0,0,1 @ F,0,0,1,0,0,0,1 @ F,0,0,1,0,0,0,1 @ F,0,0,1,0,0,0,1 @ F,0,0,1,0,0,0,1 | F,0,0,1,0,0,0,1 @ F,0,0,1,0,0,0,1 @ F,0,0,1,0,0,0,1 @ F,0,0,1,0,0,0,1 @ F,0,0,1,0,0,0,1 @ F,0,0,1,0,0,0,1 @ F,0,0,1,0,0,0,1 @ F,0,0,1,0,0,0,1 @ F,0,0,1,0,0,0,1 @ F,0,0,1,0,0,0,1 @ F,0,0,1,0,0,0,1 @ F,0,0,1,0,0,0,1 @ F,0,0,1,0,0,0,1 @ F,0,0,1,0,0,0,1 @ F,0,0,1,0,0,0,1 @ F,0,0,1,0,0,0,1 @ F,0,0,1,0,0,0,1 @ F,0,0,1,0,0,0,1 @ F,0,0,1,0,0,0,1 @ F,0,0,1,0,0,0,1 | F,0,0,1,0,0,0,1 @ F,0,0,1,0,0,0,1 @ F,0,0,1,0,0,0,1 @ F,0,0,1,0,0,0,1 @ F,0,0,1,0,0,0,1 @ F,0,0,1,0,0,0,1 @ F,0,0,1,0,0,0,1 @ F,0,0,1,0,0,0,1 @ F,0,0,1,0,0,0,1 @ F,0,0,1,0,0,0,1 @ F,0,0,1,0,0,0,1 @ F,0,0,1,0,0,0,1 @ F,0,0,1,0,0,0,1 @ F,0,0,1,0,0,0,1 @ F,0,0,1,0,0,0,1 @ F,0,0,1,0,0,0,1 @ F,0,0,1,0,0,0,1 @ F,0,0,1,0,0,0,1 @ F,0,0,1,0,0,0,1 @ F,0,0,1,0,0,0,1 @ F,0,0,1,0,0,0,1 @ F,0,0,1,0,0,0,1 @ F,0,0,1,0,0,0,1 | F,0,0,1,0,0,0,1 @ F,0,0,1,0,0,0,1 @ F,0,0,1,0,0,0,1 @ F,0,0,1,0,0,0,1 @ F,0,0,1,0,0,0,1 @ F,0,0,1,0,0,0,1 @ F,0,0,1,0,0,0,1 @ F,0,0,1,0,0,0,1 | F,0,0,1,0,0,0,1 @ F,0,0,1,0,0,0,1 @ F,0,0,1,0,0,0,1 @ F,0,0,1,0,0,0,1 @ F,0,0,1,0,0,0,1 @ F,0,0,1,0,0,0,1 @ F,0,0,1,0,0,0,1 @ F,0,0,1,0,0,0,1 @ F,0,0,1,0,0,0,1 @ F,0,0,1,0,0,0,1 @ F,0,0,1,0,0,0,1 @ F,0,0,1,0,0,0,1 @ F,0,0,1,0,0,0,1 @ F,0,0,1,0,0,0,1 @ F,0,0,1,0,0,0,1 @ F,0,0,1,0,0,0,1 @ F,0,0,1,0,0,0,1 @ F,0,0,1,0,0,0,1 @ F,0,0,1,0,0,0,1 @ F,0,0,1,0,0,0,1 @ F,0,0,1,0,0,0,1 @ F,0,0,1,0,0,0,1 | F,0,0,1,0,0,0,1 @ F,0,0,1,0,0,0,1 @ F,0,0,1,0,0,0,1 @ F,0,0,1,0,0,0,1 @ F,0,0,1,0,0,0,1 @ F,0,0,1,0,0,0,1 @ F,0,0,1,0,0,0,1 @ F,0,0,1,0,0,0,1 @ F,0,0,1,0,0,0,1 @ F,0,0,1,0,0,0,1 @ F,0,0,1,0,0,0,1 | F,0,0,1,0,0,0,1 @ F,0,0,1,0,0,0,1 @ F,0,0,1,0,0,0,1 @ F,0,0,1,0,0,0,1 @ F,0,0,1,0,0,0,1 @ F,0,0,1,0,0,0,1 @ F,0,0,1,0,0,0,1 @ F,0,0,1,0,0,0,1 @ F,0,0,1,0,0,0,1 @ F,0,0,1,0,0,0,1 @ F,0,0,1,0,0,0,1 @ F,0,0,1,0,0,0,1 @ F,0,0,1,0,0,0,1 @ F,0,0,1,0,0,0,1 @ F,0,0,1,0,0,0,1 @ F,0,0,1,0,0,0,1 @ F,0,0,1,0,0,0,1 @ F,0,0,1,0,0,0,1 @ F,0,0,1,0,0,0,1 @ F,0,0,1,0,0,0,1 @ F,0,0,1,0,0,0,1 @ F,0,0,1,0,0,0,1 @ F,0,0,1,0,0,0,1 | F,0,0,1,0,0,0,1 @ F,0,0,1,0,0,0,1 @ F,0,0,1,0,0,0,1 @ F,0,0,1,0,0,0,1 @ F,0,0,1,0,0,0,1 @ F,0,0,1,0,0,0,1 @ F,0,0,1,0,0,0,1 | F,0,0,1,0,0,0,1 @ F,0,0,1,0,0,0,1 @ F,0,0,1,0,0,0,1 @ F,0,0,1,0,0,0,1 @ F,0,0,1,0,0,0,1 @ F,0,0,1,0,0,0,1 @ F,0,0,1,0,0,0,1 @ F,0,0,1,0,0,0,1 @ F,0,0,1,0,0,0,1 @ F,0,0,1,0,0,0,1 @ F,0,0,1,0,0,0,1 @ F,0,0,1,0,0,0,1 @ F,0,0,1,0,0,0,1 @ F,0,0,1,0,0,0,1 @ F,0,0,1,0,0,0,1 @ F,0,0,1,0,0,0,1 @ F,0,0,1,0,0,0,1 @ F,0,0,1,0,0,0,1 @ F,0,0,1,0,0,0,1 @ F,0,0,1,0,0,0,1 @ F,0,0,1,0,0,0,1 @ F,0,0,1,0,0,0,1 @ F,0,0,1,0,0,0,1 @ F,0,0,1,0,0,0,1 @ F,0,0,1,0,0,0,1 @ F,0,0,1,0,0,0,1 @ F,0,0,1,0,0,0,1 | F,0,0,1,0,0,0,1 @ F,0,0,1,0,0,0,1 @ F,0,0,1,0,0,0,1 @ F,0,0,1,0,0,0,1 @ F,0,0,1,0,0,0,1 @ F,0,0,1,0,0,0,1 @ F,0,0,1,0,0,0,1 @ F,0,0,1,0,0,0,1 @ F,0,0,1,0,0,0,1 @ F,0,0,1,0,0,0,1 @ F,0,0,1,0,0,0,1 @ F,0,0,1,0,0,0,1 @ F,0,0,1,0,0,0,1 @ F,0,0,1,0,0,0,1 @ F,0,0,1,0,0,0,1 @ F,0,0,1,0,0,0,1 @ F,0,0,1,0,0,0,1 @ F,0,0,1,0,0,0,1 @ F,0,0,1,0,0,0,1 @ F,0,0,1,0,0,0,1 @ F,0,0,1,0,0,0,1 @ F,0,0,1,0,0,0,1 @ F,0,0,1,0,0,0,1 | F,0,0,1,0,0,0,1 @ F,0,0,1,0,0,0,1 @ F,0,0,1,0,0,0,1 @ F,0,0,1,0,0,0,1 | F,0,0,1,0,0,0,1 @ F,0,0,1,0,0,0,1 @ F,0,0,1,0,0,0,1 @ F,0,0,1,0,0,0,1 @ F,0,0,1,0,0,0,1 @ F,0,0,1,0,0,0,1 @ F,0,0,1,0,0,0,1 @ F,0,0,1,0,0,0,1 @ F,0,0,1,0,0,0,1 @ F,0,0,1,0,0,0,1 @ F,0,0,1,0,0,0,1 @ F,0,0,1,0,0,0,1 @ F,0,0,1,0,0,0,1 @ F,0,0,1,0,0,0,1 @ F,0,0,1,0,0,0,1 @ F,0,0,1,0,0,0,1 @ F,0,0,1,0,0,0,1 @ F,0,0,1,0,0,0,1 @ F,0,0,1,0,0,0,1 @ F,0,0,1,0,0,0,1 @ F,0,0,1,0,0,0,1 @ F,0,0,1,0,0,0,1 @ F,0,0,1,0,0,0,1 @ F,0,0,1,0,0,0,1 @ F,0,0,1,0,0,0,1 @ F,0,0,1,0,0,0,1 @ F,0,0,1,0,0,0,1 @ F,0,0,1,0,0,0,1 @ F,0,0,1,0,0,0,1 @ F,0,0,1,0,0,0,1 @ F,0,0,1,0,0,0,1 @ F,0,0,1,0,0,0,1 @ F,0,0,1,0,0,0,1 @ F,0,0,1,0,0,0,1 @ F,0,0,1,0,0,0,1 @ F,0,0,1,0,0,0,1 @ F,0,0,1,0,0,0,1 @ F,0,0,1,0,0,0,1 @ F,0,0,1,0,0,0,1 @ F,0,0,1,0,0,0,1 @ F,0,0,1,0,0,0,1 @ F,0,0,1,0,0,0,1 @ F,0,0,1,0,0,0,1 @ F,0,0,1,0,0,0,1 @ F,0,0,1,0,0,0,1 @ F,0,0,1,0,0,0,1 @ F,0,0,1,0,0,0,1 @ F,0,0,1,0,0,0,1 @ F,0,0,1,0,0,0,1 @ F,0,0,1,0,0,0,1 @ F,0,0,1,0,0,0,1 @ F,0,0,1,0,0,0,1 @ F,0,0,1,0,0,0,1 | F,0,0,1,0,0,0,1 @ F,0,0,1,0,0,0,1 @ F,0,0,1,0,0,0,1 @ F,0,0,1,0,0,0,1 @ F,0,0,1,0,0,0,1 @ F,0,0,1,0,0,0,1 @ F,0,0,1,0,0,0,1 @ F,0,0,1,0,0,0,1 @ F,0,0,1,0,0,0,1 @ F,0,0,1,0,0,0,1 @ F,0,0,1,0,0,0,1 @ F,0,0,1,0,0,0,1 @ F,0,0,1,0,0,0,1 @ F,0,0,1,0,0,0,1 @ F,0,0,1,0,0,0,1 @ F,0,0,1,0,0,0,1 @ F,0,0,1,0,0,0,1 @ F,0,0,1,0,0,0,1 @ F,0,0,1,0,0,0,1 @ F,0,0,1,0,0,0,1 @ F,0,0,1,0,0,0,1 @ F,0,0,1,0,0,0,1 | F,0,0,1,0,0,0,1 @ F,0,0,1,0,0,0,1 @ F,0,0,1,0,0,0,1 @ F,0,0,1,0,0,0,1 @ F,0,0,1,0,0,0,1 @ F,0,0,1,0,0,0,1 @ F,0,0,1,0,0,0,1 @ F,0,0,1,0,0,0,1 @ F,0,0,1,0,0,0,1 | F,0,0,1,0,0,0,1 @ F,0,0,1,0,0,0,1 @ F,0,0,1,0,0,0,1 @ F,0,0,1,0,0,0,1 @ F,0,0,1,0,0,0,1 @ F,0,0,1,0,0,0,1 @ F,0,0,1,0,0,0,1 @ F,0,0,1,0,0,0,1 @ F,0,0,1,0,0,0,1 @ F,0,0,1,0,0,0,1 @ F,0,0,1,0,0,0,1 @ F,0,0,1,0,0,0,1 @ F,0,0,1,0,0,0,1 @ F,0,0,1,0,0,0,1 @ F,0,0,1,0,0,0,1 @ F,0,0,1,0,0,0,1 @ F,0,0,1,0,0,0,1 @ F,0,0,1,0,0,0,1 @ F,0,0,1,0,0,0,1 @ F,0,0,1,0,0,0,1 | F,0,0,1,0,0,0,1 @ F,0,0,1,0,0,0,1 @ F,0,0,1,0,0,0,1 @ F,0,0,1,0,0,0,1 @ F,0,0,1,0,0,0,1 @ F,0,0,1,0,0,0,1 @ F,0,0,1,0,0,0,1 @ F,0,0,1,0,0,0,1 @ F,0,0,1,0,0,0,1 @ F,0,0,1,0,0,0,1 @ F,0,0,1,0,0,0,1 @ F,0,0,1,0,0,0,1 @ F,0,0,1,0,0,0,1 @ F,0,0,1,0,0,0,1 | F,0,0,1,0,0,0,1 @ F,0,0,1,0,0,0,1 @ F,0,0,1,0,0,0,1 @ F,0,0,1,0,0,0,1 @ F,0,0,1,0,0,0,1 @ F,0,0,1,0,0,0,1 @ F,0,0,1,0,0,0,1 @ F,0,0,1,0,0,0,1 @ F,0,0,1,0,0,0,1 @ F,0,0,1,0,0,0,1 | F,0,0,1,0,0,0,1 @ F,0,0,1,0,0,0,1 @ F,0,0,1,0,0,0,1 @ F,0,0,1,0,0,0,1 @ F,0,0,1,0,0,0,1 @ F,0,0,1,0,0,0,1 @ F,0,0,1,0,0,0,1 @ F,0,0,1,0,0,0,1 @ F,0,0,1,0,0,0,1 @ F,0,0,1,0,0,0,1 @ F,0,0,1,0,0,0,1 @ F,0,0,1,0,0,0,1 @ F,0,0,1,0,0,0,1 @ F,0,0,1,0,0,0,1 @ F,0,0,1,0,0,0,1 @ F,0,0,1,0,0,0,1 @ F,0,0,1,0,0,0,1 @ F,0,0,1,0,0,0,1 @ F,0,0,1,0,0,0,1 @ F,0,0,1,0,0,0,1 @ F,0,0,1,0,0,0,1 @ F,0,0,1,0,0,0,1 @ F,0,0,1,0,0,0,1 @ F,0,0,1,0,0,0,1 @ F,0,0,1,0,0,0,1 @ F,0,0,1,0,0,0,1 @ F,0,0,1,0,0,0,1 @ F,0,0,1,0,0,0,1 @ F,0,0,1,0,0,0,1 @ F,0,0,1,0,0,0,1 @ F,0,0,1,0,0,0,1 @ F,0,0,1,0,0,0,1 @ F,0,0,1,0,0,0,1 @ F,0,0,1,0,0,0,1 @ F,0,0,1,0,0,0,1 @ F,0,0,1,0,0,0,1 @ F,0,0,1,0,0,0,1 @ F,0,0,1,0,0,0,1 @ F,0,0,1,0,0,0,1 @ F,0,0,1,0,0,0,1 @ F,0,0,1,0,0,0,1 @ F,0,0,1,0,0,0,1 @ F,0,0,1,0,0,0,1 @ F,0,0,1,0,0,0,1 | F,0,0,1,0,0,0,1 @ F,0,0,1,0,0,0,1 @ F,0,0,1,0,0,0,1 @ F,0,0,1,0,0,0,1 @ F,0,0,1,0,0,0,1 @ F,0,0,1,0,0,0,1 @ F,0,0,1,0,0,0,1 @ F,0,0,1,0,0,0,1 @ F,0,0,1,0,0,0,1 @ F,0,0,1,0,0,0,1 @ F,0,0,1,0,0,0,1 @ F,0,0,1,0,0,0,1 @ F,0,0,1,0,0,0,1 @ F,0,0,1,0,0,0,1 @ F,0,0,1,0,0,0,1 @ F,0,0,1,0,0,0,1 | F,0,0,1,0,0,0,1 @ F,0,0,1,0,0,0,1 @ F,0,0,1,0,0,0,1 @ F,0,0,1,0,0,0,1 @ F,0,0,1,0,0,0,1 @ F,0,0,1,0,0,0,1 @ F,0,0,1,0,0,0,1 @ F,0,0,1,0,0,0,1 @ F,0,0,1,0,0,0,1 @ F,0,0,1,0,0,0,1 @ F,0,0,1,0,0,0,1 @ F,0,0,1,0,0,0,1 @ F,0,0,1,0,0,0,1 @ F,0,0,1,0,0,0,1 @ F,0,0,1,0,0,0,1 @ F,0,0,1,0,0,0,1 @ F,0,0,1,0,0,0,1 @ F,0,0,1,0,0,0,1 @ F,0,0,1,0,0,0,1 @ F,0,0,1,0,0,0,1 @ F,0,0,1,0,0,0,1 @ F,0,0,1,0,0,0,1 | F,0,0,1,0,0,0,1 @ F,0,0,1,0,0,0,1 @ F,0,0,1,0,0,0,1 @ F,0,0,1,0,0,0,1 @ F,0,0,1,0,0,0,1 @ F,0,0,1,0,0,0,1 @ F,0,0,1,0,0,0,1 @ F,0,0,1,0,0,0,1 @ F,0,0,1,0,0,0,1 @ F,0,0,1,0,0,0,1 @ F,0,0,1,0,0,0,1 @ F,0,0,1,0,0,0,1 @ F,0,0,1,0,0,0,1 @ F,0,0,1,0,0,0,1 @ F,0,0,1,0,0,0,1 @ F,0,0,1,0,0,0,1 @ F,0,0,1,0,0,0,1 @ F,0,0,1,0,0,0,1 @ F,0,0,1,0,0,0,1 @ F,0,0,1,0,0,0,1 @ F,0,0,1,0,0,0,1 @ F,0,0,1,0,0,0,1 @ F,0,0,1,0,0,0,1 @ F,0,0,1,0,0,0,1 @ F,0,0,1,0,0,0,1 @ F,0,0,1,0,0,0,1 @ F,0,0,1,0,0,0,1 @ F,0,0,1,0,0,0,1 @ F,0,0,1,0,0,0,1 @ F,0,0,1,0,0,0,1 @ F,0,0,1,0,0,0,1 @ F,0,0,1,0,0,0,1 @ F,0,0,1,0,0,0,1 @ F,0,0,1,0,0,0,1 @ F,0,0,1,0,0,0,1 @ F,0,0,1,0,0,0,1 | F,0,0,1,0,0,0,1 @ F,0,0,1,0,0,0,1 @ F,0,0,1,0,0,0,1 @ F,0,0,1,0,0,0,1 @ F,0,0,1,0,0,0,1 @ F,0,0,1,0,0,0,1 @ F,0,0,1,0,0,0,1 @ F,0,0,1,0,0,0,1 @ F,0,0,1,0,0,0,1 @ F,0,0,1,0,0,0,1 @ F,0,0,1,0,0,0,1 @ F,0,0,1,0,0,0,1 @ F,0,0,1,0,0,0,1 @ F,0,0,1,0,0,0,1 @ F,0,0,1,0,0,0,1 @ F,0,0,1,0,0,0,1 @ F,0,0,1,0,0,0,1 @ F,0,0,1,0,0,0,1 | F,0,0,1,0,0,0,1 @ F,0,0,1,0,0,0,1 @ F,0,0,1,0,0,0,1 @ F,0,0,1,0,0,0,1 @ F,0,0,1,0,0,0,1 @ F,0,0,1,0,0,0,1 @ F,0,0,1,0,0,0,1 @ F,0,0,1,0,0,0,1 | F,0,0,1,0,0,0,1 @ F,0,0,1,0,0,0,1 @ F,0,0,1,0,0,0,1 @ F,0,0,1,0,0,0,1 @ F,0,0,1,0,0,0,1 @ F,0,0,1,0,0,0,1 @ F,0,0,1,0,0,0,1 @ F,0,0,1,0,0,0,1 @ F,0,0,1,0,0,0,1 @ F,0,0,1,0,0,0,1 @ F,0,0,1,0,0,0,1 @ F,0,0,1,0,0,0,1 @ F,0,0,1,0,0,0,1 @ F,0,0,1,0,0,0,1 @ F,0,0,1,0,0,0,1 | F,0,0,1,0,0,0,1 @ F,0,0,1,0,0,0,1 @ F,0,0,1,0,0,0,1 @ F,0,0,1,0,0,0,1 @ F,0,0,1,0,0,0,1 @ F,0,0,1,0,0,0,1 @ F,0,0,1,0,0,0,1 @ F,0,0,1,0,0,0,1"
       radius="0"
       unit="px"
       method="auto"
       mode="F"
       chamfer_steps="1"
       flexible="false"
       use_knot_distance="true"
       apply_no_radius="true"
       apply_with_radius="true"
       only_selected="false"
       hide_knots="false" /><inkscape:path-effect
       effect="fillet_chamfer"
       id="path-effect48"
       is_visible="true"
       lpeversion="1"
       nodesatellites_param="F,0,0,1,0,0,0,1 @ F,0,0,1,0,0,0,1 @ F,0,0,1,0,0,0,1 @ F,0,0,1,0,0,0,1 @ F,0,0,1,0,0,0,1 @ F,0,0,1,0,0,0,1 @ F,0,0,1,0,0,0,1 @ F,0,0,1,0,0,0,1 | F,0,0,1,0,0,0,1 @ F,0,0,1,0,0,0,1 @ F,0,0,1,0,0,0,1 @ F,0,0,1,0,0,0,1 @ F,0,0,1,0,0,0,1 @ F,0,0,1,0,0,0,1 @ F,0,0,1,0,0,0,1 @ F,0,0,1,0,0,0,1 @ F,0,0,1,0,0,0,1 @ F,0,0,1,0,0,0,1 @ F,0,0,1,0,0,0,1 @ F,0,0,1,0,0,0,1 @ F,0,0,1,0,0,0,1 @ F,0,0,1,0,0,0,1 @ F,0,0,1,0,0,0,1 @ F,0,0,1,0,0,0,1 | F,0,0,1,0,0,0,1 @ F,0,0,1,0,0,0,1 @ F,0,0,1,0,0,0,1 @ F,0,0,1,0,0,0,1 @ F,0,0,1,0,0,0,1 @ F,0,0,1,0,0,0,1 @ F,0,0,1,0,0,0,1 @ F,0,0,1,0,0,0,1 @ F,0,0,1,0,0,0,1 @ F,0,0,1,0,0,0,1 @ F,0,0,1,0,0,0,1 @ F,0,0,1,0,0,0,1 @ F,0,0,1,0,0,0,1 @ F,0,0,1,0,0,0,1 @ F,0,0,1,0,0,0,1 @ F,0,0,1,0,0,0,1 @ F,0,0,1,0,0,0,1 @ F,0,0,1,0,0,0,1 @ F,0,0,1,0,0,0,1 @ F,0,0,1,0,0,0,1 @ F,0,0,1,0,0,0,1 @ F,0,0,1,0,0,0,1 @ F,0,0,1,0,0,0,1 @ F,0,0,1,0,0,0,1 @ F,0,0,1,0,0,0,1 @ F,0,0,1,0,0,0,1 @ F,0,0,1,0,0,0,1 @ F,0,0,1,0,0,0,1 @ F,0,0,1,0,0,0,1 @ F,0,0,1,0,0,0,1 @ F,0,0,1,0,0,0,1 @ F,0,0,1,0,0,0,1 @ F,0,0,1,0,0,0,1 @ F,0,0,1,0,0,0,1 @ F,0,0,1,0,0,0,1 @ F,0,0,1,0,0,0,1 @ F,0,0,1,0,0,0,1 @ F,0,0,1,0,0,0,1 @ F,0,0,1,0,0,0,1 @ F,0,0,1,0,0,0,1 @ F,0,0,1,0,0,0,1 @ F,0,0,1,0,0,0,1 @ F,0,0,1,0,0,0,1 @ F,0,0,1,0,0,0,1 @ F,0,0,1,0,0,0,1 @ F,0,0,1,0,0,0,1 @ F,0,0,1,0,0,0,1 @ F,0,0,1,0,0,0,1 @ F,0,0,1,0,0,0,1 @ F,0,0,1,0,0,0,1 | F,0,0,1,0,0,0,1 @ F,0,0,1,0,0,0,1 @ F,0,0,1,0,0,0,1 @ F,0,0,1,0,0,0,1 @ F,0,0,1,0,0,0,1 @ F,0,0,1,0,0,0,1 @ F,0,0,1,0,0,0,1 @ F,0,0,1,0,0,0,1 @ F,0,0,1,0,0,0,1 @ F,0,0,1,0,0,0,1 @ F,0,0,1,0,0,0,1 @ F,0,0,1,0,0,0,1 @ F,0,0,1,0,0,0,1 @ F,0,0,1,0,0,0,1 @ F,0,0,1,0,0,0,1 @ F,0,0,1,0,0,0,1 | F,0,0,1,0,0,0,1 @ F,0,0,1,0,0,0,1 @ F,0,0,1,0,0,0,1 @ F,0,0,1,0,0,0,1 @ F,0,0,1,0,0,0,1 @ F,0,0,1,0,0,0,1 @ F,0,0,1,0,0,0,1 @ F,0,0,1,0,0,0,1 @ F,0,0,1,0,0,0,1 @ F,0,0,1,0,0,0,1 @ F,0,0,1,0,0,0,1 | F,0,0,1,0,0,0,1 @ F,0,0,1,0,0,0,1 @ F,0,0,1,0,0,0,1 @ F,0,0,1,0,0,0,1 @ F,0,0,1,0,0,0,1 @ F,0,0,1,0,0,0,1 @ F,0,0,1,0,0,0,1 @ F,0,0,1,0,0,0,1 | F,0,0,1,0,0,0,1 @ F,0,0,1,0,0,0,1 @ F,0,0,1,0,0,0,1 @ F,0,0,1,0,0,0,1 @ F,0,0,1,0,0,0,1 @ F,0,0,1,0,0,0,1 @ F,0,0,1,0,0,0,1 @ F,0,0,1,0,0,0,1 @ F,0,0,1,0,0,0,1 @ F,0,0,1,0,0,0,1 @ F,0,0,1,0,0,0,1 @ F,0,0,1,0,0,0,1 @ F,0,0,1,0,0,0,1 @ F,0,0,1,0,0,0,1 | F,0,0,1,0,0,0,1 @ F,0,0,1,0,0,0,1 @ F,0,0,1,0,0,0,1 @ F,0,0,1,0,0,0,1 @ F,0,0,1,0,0,0,1 @ F,0,0,1,0,0,0,1 @ F,0,0,1,0,0,0,1 @ F,0,0,1,0,0,0,1 | F,0,0,1,0,0,0,1 @ F,0,0,1,0,0,0,1 @ F,0,0,1,0,0,0,1 @ F,0,0,1,0,0,0,1 @ F,0,0,1,0,0,0,1 @ F,0,0,1,0,0,0,1 @ F,0,0,1,0,0,0,1 @ F,0,0,1,0,0,0,1 @ F,0,0,1,0,0,0,1 @ F,0,0,1,0,0,0,1 @ F,0,0,1,0,0,0,1 @ F,0,0,1,0,0,0,1 @ F,0,0,1,0,0,0,1 @ F,0,0,1,0,0,0,1 @ F,0,0,1,0,0,0,1 | F,0,0,1,0,0,0,1 @ F,0,0,1,0,0,0,1 @ F,0,0,1,0,0,0,1 @ F,0,0,1,0,0,0,1 @ F,0,0,1,0,0,0,1 @ F,0,0,1,0,0,0,1 @ F,0,0,1,0,0,0,1 @ F,0,0,1,0,0,0,1 @ F,0,0,1,0,0,0,1 @ F,0,0,1,0,0,0,1 @ F,0,0,1,0,0,0,1 @ F,0,0,1,0,0,0,1 @ F,0,0,1,0,0,0,1 @ F,0,0,1,0,0,0,1 @ F,0,0,1,0,0,0,1 @ F,0,0,1,0,0,0,1 @ F,0,0,1,0,0,0,1 @ F,0,0,1,0,0,0,1 @ F,0,0,1,0,0,0,1 @ F,0,0,1,0,0,0,1 @ F,0,0,1,0,0,0,1 | F,0,0,1,0,0,0,1 @ F,0,0,1,0,0,0,1 @ F,0,0,1,0,0,0,1 @ F,0,0,1,0,0,0,1 @ F,0,0,1,0,0,0,1 @ F,0,0,1,0,0,0,1 @ F,0,0,1,0,0,0,1 @ F,0,0,1,0,0,0,1 | F,0,0,1,0,0,0,1 @ F,0,0,1,0,0,0,1 @ F,0,0,1,0,0,0,1 @ F,0,0,1,0,0,0,1 @ F,0,0,1,0,0,0,1 @ F,0,0,1,0,0,0,1 @ F,0,0,1,0,0,0,1 | F,0,0,1,0,0,0,1 @ F,0,0,1,0,0,0,1 @ F,0,0,1,0,0,0,1 @ F,0,0,1,0,0,0,1 @ F,0,0,1,0,0,0,1 @ F,0,0,1,0,0,0,1 @ F,0,0,1,0,0,0,1 @ F,0,0,1,0,0,0,1 @ F,0,0,1,0,0,0,1 @ F,0,0,1,0,0,0,1 | F,0,0,1,0,0,0,1 @ F,0,0,1,0,0,0,1 @ F,0,0,1,0,0,0,1 @ F,0,0,1,0,0,0,1 @ F,0,0,1,0,0,0,1 @ F,0,0,1,0,0,0,1 @ F,0,0,1,0,0,0,1 @ F,0,0,1,0,0,0,1 @ F,0,0,1,0,0,0,1 @ F,0,0,1,0,0,0,1 | F,0,0,1,0,0,0,1 @ F,0,0,1,0,0,0,1 @ F,0,0,1,0,0,0,1 @ F,0,0,1,0,0,0,1 @ F,0,0,1,0,0,0,1 @ F,0,0,1,0,0,0,1 @ F,0,0,1,0,0,0,1 @ F,0,0,1,0,0,0,1 @ F,0,0,1,0,0,0,1 | F,0,0,1,0,0,0,1 @ F,0,0,1,0,0,0,1 @ F,0,0,1,0,0,0,1 @ F,0,0,1,0,0,0,1 @ F,0,0,1,0,0,0,1 @ F,0,0,1,0,0,0,1 @ F,0,0,1,0,0,0,1 @ F,0,0,1,0,0,0,1 @ F,0,0,1,0,0,0,1 @ F,0,0,1,0,0,0,1 @ F,0,0,1,0,0,0,1 @ F,0,0,1,0,0,0,1 @ F,0,0,1,0,0,0,1 @ F,0,0,1,0,0,0,1 @ F,0,0,1,0,0,0,1 @ F,0,0,1,0,0,0,1 @ F,0,0,1,0,0,0,1 @ F,0,0,1,0,0,0,1 @ F,0,0,1,0,0,0,1 @ F,0,0,1,0,0,0,1 | F,0,0,1,0,0,0,1 @ F,0,0,1,0,0,0,1 @ F,0,0,1,0,0,0,1 @ F,0,0,1,0,0,0,1 @ F,0,0,1,0,0,0,1 @ F,0,0,1,0,0,0,1 @ F,0,0,1,0,0,0,1 @ F,0,0,1,0,0,0,1 @ F,0,0,1,0,0,0,1 @ F,0,0,1,0,0,0,1 @ F,0,0,1,0,0,0,1 @ F,0,0,1,0,0,0,1 @ F,0,0,1,0,0,0,1 @ F,0,0,1,0,0,0,1 @ F,0,0,1,0,0,0,1 @ F,0,0,1,0,0,0,1 @ F,0,0,1,0,0,0,1 @ F,0,0,1,0,0,0,1 @ F,0,0,1,0,0,0,1 @ F,0,0,1,0,0,0,1 @ F,0,0,1,0,0,0,1 @ F,0,0,1,0,0,0,1 @ F,0,0,1,0,0,0,1 | F,0,0,1,0,0,0,1 @ F,0,0,1,0,0,0,1 @ F,0,0,1,0,0,0,1 @ F,0,0,1,0,0,0,1 @ F,0,0,1,0,0,0,1 @ F,0,0,1,0,0,0,1 @ F,0,0,1,0,0,0,1 @ F,0,0,1,0,0,0,1 | F,0,0,1,0,0,0,1 @ F,0,0,1,0,0,0,1 @ F,0,0,1,0,0,0,1 @ F,0,0,1,0,0,0,1 @ F,0,0,1,0,0,0,1 @ F,0,0,1,0,0,0,1 @ F,0,0,1,0,0,0,1 @ F,0,0,1,0,0,0,1 @ F,0,0,1,0,0,0,1 @ F,0,0,1,0,0,0,1 @ F,0,0,1,0,0,0,1 @ F,0,0,1,0,0,0,1 @ F,0,0,1,0,0,0,1 @ F,0,0,1,0,0,0,1 @ F,0,0,1,0,0,0,1 @ F,0,0,1,0,0,0,1 @ F,0,0,1,0,0,0,1 @ F,0,0,1,0,0,0,1 @ F,0,0,1,0,0,0,1 @ F,0,0,1,0,0,0,1 @ F,0,0,1,0,0,0,1 @ F,0,0,1,0,0,0,1 | F,0,0,1,0,0,0,1 @ F,0,0,1,0,0,0,1 @ F,0,0,1,0,0,0,1 @ F,0,0,1,0,0,0,1 @ F,0,0,1,0,0,0,1 @ F,0,0,1,0,0,0,1 @ F,0,0,1,0,0,0,1 @ F,0,0,1,0,0,0,1 @ F,0,0,1,0,0,0,1 @ F,0,0,1,0,0,0,1 @ F,0,0,1,0,0,0,1 | F,0,0,1,0,0,0,1 @ F,0,0,1,0,0,0,1 @ F,0,0,1,0,0,0,1 @ F,0,0,1,0,0,0,1 @ F,0,0,1,0,0,0,1 @ F,0,0,1,0,0,0,1 @ F,0,0,1,0,0,0,1 @ F,0,0,1,0,0,0,1 @ F,0,0,1,0,0,0,1 @ F,0,0,1,0,0,0,1 @ F,0,0,1,0,0,0,1 @ F,0,0,1,0,0,0,1 @ F,0,0,1,0,0,0,1 @ F,0,0,1,0,0,0,1 @ F,0,0,1,0,0,0,1 @ F,0,0,1,0,0,0,1 @ F,0,0,1,0,0,0,1 @ F,0,0,1,0,0,0,1 @ F,0,0,1,0,0,0,1 @ F,0,0,1,0,0,0,1 @ F,0,0,1,0,0,0,1 @ F,0,0,1,0,0,0,1 @ F,0,0,1,0,0,0,1 | F,0,0,1,0,0,0,1 @ F,0,0,1,0,0,0,1 @ F,0,0,1,0,0,0,1 @ F,0,0,1,0,0,0,1 @ F,0,0,1,0,0,0,1 @ F,0,0,1,0,0,0,1 @ F,0,0,1,0,0,0,1 | F,0,0,1,0,0,0,1 @ F,0,0,1,0,0,0,1 @ F,0,0,1,0,0,0,1 @ F,0,0,1,0,0,0,1 @ F,0,0,1,0,0,0,1 @ F,0,0,1,0,0,0,1 @ F,0,0,1,0,0,0,1 @ F,0,0,1,0,0,0,1 @ F,0,0,1,0,0,0,1 @ F,0,0,1,0,0,0,1 @ F,0,0,1,0,0,0,1 @ F,0,0,1,0,0,0,1 @ F,0,0,1,0,0,0,1 @ F,0,0,1,0,0,0,1 @ F,0,0,1,0,0,0,1 @ F,0,0,1,0,0,0,1 @ F,0,0,1,0,0,0,1 @ F,0,0,1,0,0,0,1 @ F,0,0,1,0,0,0,1 @ F,0,0,1,0,0,0,1 @ F,0,0,1,0,0,0,1 @ F,0,0,1,0,0,0,1 @ F,0,0,1,0,0,0,1 @ F,0,0,1,0,0,0,1 @ F,0,0,1,0,0,0,1 @ F,0,0,1,0,0,0,1 @ F,0,0,1,0,0,0,1 | F,0,0,1,0,0,0,1 @ F,0,0,1,0,0,0,1 @ F,0,0,1,0,0,0,1 @ F,0,0,1,0,0,0,1 @ F,0,0,1,0,0,0,1 @ F,0,0,1,0,0,0,1 @ F,0,0,1,0,0,0,1 @ F,0,0,1,0,0,0,1 @ F,0,0,1,0,0,0,1 @ F,0,0,1,0,0,0,1 @ F,0,0,1,0,0,0,1 @ F,0,0,1,0,0,0,1 @ F,0,0,1,0,0,0,1 @ F,0,0,1,0,0,0,1 @ F,0,0,1,0,0,0,1 @ F,0,0,1,0,0,0,1 @ F,0,0,1,0,0,0,1 @ F,0,0,1,0,0,0,1 @ F,0,0,1,0,0,0,1 @ F,0,0,1,0,0,0,1 @ F,0,0,1,0,0,0,1 @ F,0,0,1,0,0,0,1 @ F,0,0,1,0,0,0,1 | F,0,0,1,0,0,0,1 @ F,0,0,1,0,0,0,1 @ F,0,0,1,0,0,0,1 @ F,0,0,1,0,0,0,1 | F,0,0,1,0,0,0,1 @ F,0,0,1,0,0,0,1 @ F,0,0,1,0,0,0,1 @ F,0,0,1,0,0,0,1 @ F,0,0,1,0,0,0,1 @ F,0,0,1,0,0,0,1 @ F,0,0,1,0,0,0,1 @ F,0,0,1,0,0,0,1 @ F,0,0,1,0,0,0,1 @ F,0,0,1,0,0,0,1 @ F,0,0,1,0,0,0,1 @ F,0,0,1,0,0,0,1 @ F,0,0,1,0,0,0,1 @ F,0,0,1,0,0,0,1 @ F,0,0,1,0,0,0,1 @ F,0,0,1,0,0,0,1 @ F,0,0,1,0,0,0,1 @ F,0,0,1,0,0,0,1 @ F,0,0,1,0,0,0,1 @ F,0,0,1,0,0,0,1 @ F,0,0,1,0,0,0,1 @ F,0,0,1,0,0,0,1 @ F,0,0,1,0,0,0,1 @ F,0,0,1,0,0,0,1 @ F,0,0,1,0,0,0,1 @ F,0,0,1,0,0,0,1 @ F,0,0,1,0,0,0,1 @ F,0,0,1,0,0,0,1 @ F,0,0,1,0,0,0,1 @ F,0,0,1,0,0,0,1 @ F,0,0,1,0,0,0,1 @ F,0,0,1,0,0,0,1 @ F,0,0,1,0,0,0,1 @ F,0,0,1,0,0,0,1 @ F,0,0,1,0,0,0,1 @ F,0,0,1,0,0,0,1 @ F,0,0,1,0,0,0,1 @ F,0,0,1,0,0,0,1 @ F,0,0,1,0,0,0,1 @ F,0,0,1,0,0,0,1 @ F,0,0,1,0,0,0,1 @ F,0,0,1,0,0,0,1 @ F,0,0,1,0,0,0,1 @ F,0,0,1,0,0,0,1 @ F,0,0,1,0,0,0,1 @ F,0,0,1,0,0,0,1 @ F,0,0,1,0,0,0,1 @ F,0,0,1,0,0,0,1 @ F,0,0,1,0,0,0,1 @ F,0,0,1,0,0,0,1 @ F,0,0,1,0,0,0,1 @ F,0,0,1,0,0,0,1 @ F,0,0,1,0,0,0,1 | F,0,0,1,0,0,0,1 @ F,0,0,1,0,0,0,1 @ F,0,0,1,0,0,0,1 @ F,0,0,1,0,0,0,1 @ F,0,0,1,0,0,0,1 @ F,0,0,1,0,0,0,1 @ F,0,0,1,0,0,0,1 @ F,0,0,1,0,0,0,1 @ F,0,0,1,0,0,0,1 @ F,0,0,1,0,0,0,1 @ F,0,0,1,0,0,0,1 @ F,0,0,1,0,0,0,1 @ F,0,0,1,0,0,0,1 @ F,0,0,1,0,0,0,1 @ F,0,0,1,0,0,0,1 @ F,0,0,1,0,0,0,1 @ F,0,0,1,0,0,0,1 @ F,0,0,1,0,0,0,1 @ F,0,0,1,0,0,0,1 @ F,0,0,1,0,0,0,1 @ F,0,0,1,0,0,0,1 @ F,0,0,1,0,0,0,1 | F,0,0,1,0,0,0,1 @ F,0,0,1,0,0,0,1 @ F,0,0,1,0,0,0,1 @ F,0,0,1,0,0,0,1 @ F,0,0,1,0,0,0,1 @ F,0,0,1,0,0,0,1 @ F,0,0,1,0,0,0,1 @ F,0,0,1,0,0,0,1 @ F,0,0,1,0,0,0,1 | F,0,0,1,0,0,0,1 @ F,0,0,1,0,0,0,1 @ F,0,0,1,0,0,0,1 @ F,0,0,1,0,0,0,1 @ F,0,0,1,0,0,0,1 @ F,0,0,1,0,0,0,1 @ F,0,0,1,0,0,0,1 @ F,0,0,1,0,0,0,1 @ F,0,0,1,0,0,0,1 @ F,0,0,1,0,0,0,1 @ F,0,0,1,0,0,0,1 @ F,0,0,1,0,0,0,1 @ F,0,0,1,0,0,0,1 @ F,0,0,1,0,0,0,1 @ F,0,0,1,0,0,0,1 @ F,0,0,1,0,0,0,1 @ F,0,0,1,0,0,0,1 @ F,0,0,1,0,0,0,1 @ F,0,0,1,0,0,0,1 @ F,0,0,1,0,0,0,1 | F,0,0,1,0,0,0,1 @ F,0,0,1,0,0,0,1 @ F,0,0,1,0,0,0,1 @ F,0,0,1,0,0,0,1 @ F,0,0,1,0,0,0,1 @ F,0,0,1,0,0,0,1 @ F,0,0,1,0,0,0,1 @ F,0,0,1,0,0,0,1 @ F,0,0,1,0,0,0,1 @ F,0,0,1,0,0,0,1 @ F,0,0,1,0,0,0,1 @ F,0,0,1,0,0,0,1 @ F,0,0,1,0,0,0,1 @ F,0,0,1,0,0,0,1 | F,0,0,1,0,0,0,1 @ F,0,0,1,0,0,0,1 @ F,0,0,1,0,0,0,1 @ F,0,0,1,0,0,0,1 @ F,0,0,1,0,0,0,1 @ F,0,0,1,0,0,0,1 @ F,0,0,1,0,0,0,1 @ F,0,0,1,0,0,0,1 @ F,0,0,1,0,0,0,1 @ F,0,0,1,0,0,0,1 | F,0,0,1,0,0,0,1 @ F,0,0,1,0,0,0,1 @ F,0,0,1,0,0,0,1 @ F,0,0,1,0,0,0,1 @ F,0,0,1,0,0,0,1 @ F,0,0,1,0,0,0,1 @ F,0,0,1,0,0,0,1 @ F,0,0,1,0,0,0,1 @ F,0,0,1,0,0,0,1 @ F,0,0,1,0,0,0,1 @ F,0,0,1,0,0,0,1 @ F,0,0,1,0,0,0,1 @ F,0,0,1,0,0,0,1 @ F,0,0,1,0,0,0,1 @ F,0,0,1,0,0,0,1 @ F,0,0,1,0,0,0,1 @ F,0,0,1,0,0,0,1 @ F,0,0,1,0,0,0,1 @ F,0,0,1,0,0,0,1 @ F,0,0,1,0,0,0,1 @ F,0,0,1,0,0,0,1 @ F,0,0,1,0,0,0,1 @ F,0,0,1,0,0,0,1 @ F,0,0,1,0,0,0,1 @ F,0,0,1,0,0,0,1 @ F,0,0,1,0,0,0,1 @ F,0,0,1,0,0,0,1 @ F,0,0,1,0,0,0,1 @ F,0,0,1,0,0,0,1 @ F,0,0,1,0,0,0,1 @ F,0,0,1,0,0,0,1 @ F,0,0,1,0,0,0,1 @ F,0,0,1,0,0,0,1 @ F,0,0,1,0,0,0,1 @ F,0,0,1,0,0,0,1 @ F,0,0,1,0,0,0,1 @ F,0,0,1,0,0,0,1 @ F,0,0,1,0,0,0,1 @ F,0,0,1,0,0,0,1 @ F,0,0,1,0,0,0,1 @ F,0,0,1,0,0,0,1 @ F,0,0,1,0,0,0,1 @ F,0,0,1,0,0,0,1 @ F,0,0,1,0,0,0,1 | F,0,0,1,0,0,0,1 @ F,0,0,1,0,0,0,1 @ F,0,0,1,0,0,0,1 @ F,0,0,1,0,0,0,1 @ F,0,0,1,0,0,0,1 @ F,0,0,1,0,0,0,1 @ F,0,0,1,0,0,0,1 @ F,0,0,1,0,0,0,1 @ F,0,0,1,0,0,0,1 @ F,0,0,1,0,0,0,1 @ F,0,0,1,0,0,0,1 @ F,0,0,1,0,0,0,1 @ F,0,0,1,0,0,0,1 @ F,0,0,1,0,0,0,1 @ F,0,0,1,0,0,0,1 @ F,0,0,1,0,0,0,1 | F,0,0,1,0,0,0,1 @ F,0,0,1,0,0,0,1 @ F,0,0,1,0,0,0,1 @ F,0,0,1,0,0,0,1 @ F,0,0,1,0,0,0,1 @ F,0,0,1,0,0,0,1 @ F,0,0,1,0,0,0,1 @ F,0,0,1,0,0,0,1 @ F,0,0,1,0,0,0,1 @ F,0,0,1,0,0,0,1 @ F,0,0,1,0,0,0,1 @ F,0,0,1,0,0,0,1 @ F,0,0,1,0,0,0,1 @ F,0,0,1,0,0,0,1 @ F,0,0,1,0,0,0,1 @ F,0,0,1,0,0,0,1 @ F,0,0,1,0,0,0,1 @ F,0,0,1,0,0,0,1 @ F,0,0,1,0,0,0,1 @ F,0,0,1,0,0,0,1 @ F,0,0,1,0,0,0,1 @ F,0,0,1,0,0,0,1 | F,0,0,1,0,0,0,1 @ F,0,0,1,0,0,0,1 @ F,0,0,1,0,0,0,1 @ F,0,0,1,0,0,0,1 @ F,0,0,1,0,0,0,1 @ F,0,0,1,0,0,0,1 @ F,0,0,1,0,0,0,1 @ F,0,0,1,0,0,0,1 @ F,0,0,1,0,0,0,1 @ F,0,0,1,0,0,0,1 @ F,0,0,1,0,0,0,1 @ F,0,0,1,0,0,0,1 @ F,0,0,1,0,0,0,1 @ F,0,0,1,0,0,0,1 @ F,0,0,1,0,0,0,1 @ F,0,0,1,0,0,0,1 @ F,0,0,1,0,0,0,1 @ F,0,0,1,0,0,0,1 @ F,0,0,1,0,0,0,1 @ F,0,0,1,0,0,0,1 @ F,0,0,1,0,0,0,1 @ F,0,0,1,0,0,0,1 @ F,0,0,1,0,0,0,1 @ F,0,0,1,0,0,0,1 @ F,0,0,1,0,0,0,1 @ F,0,0,1,0,0,0,1 @ F,0,0,1,0,0,0,1 @ F,0,0,1,0,0,0,1 @ F,0,0,1,0,0,0,1 @ F,0,0,1,0,0,0,1 @ F,0,0,1,0,0,0,1 @ F,0,0,1,0,0,0,1 @ F,0,0,1,0,0,0,1 @ F,0,0,1,0,0,0,1 @ F,0,0,1,0,0,0,1 @ F,0,0,1,0,0,0,1 | F,0,0,1,0,0,0,1 @ F,0,0,1,0,0,0,1 @ F,0,0,1,0,0,0,1 @ F,0,0,1,0,0,0,1 @ F,0,0,1,0,0,0,1 @ F,0,0,1,0,0,0,1 @ F,0,0,1,0,0,0,1 @ F,0,0,1,0,0,0,1 @ F,0,0,1,0,0,0,1 @ F,0,0,1,0,0,0,1 @ F,0,0,1,0,0,0,1 @ F,0,0,1,0,0,0,1 @ F,0,0,1,0,0,0,1 @ F,0,0,1,0,0,0,1 @ F,0,0,1,0,0,0,1 @ F,0,0,1,0,0,0,1 @ F,0,0,1,0,0,0,1 @ F,0,0,1,0,0,0,1 | F,0,0,1,0,0,0,1 @ F,0,0,1,0,0,0,1 @ F,0,0,1,0,0,0,1 @ F,0,0,1,0,0,0,1 @ F,0,0,1,0,0,0,1 @ F,0,0,1,0,0,0,1 @ F,0,0,1,0,0,0,1 @ F,0,0,1,0,0,0,1 | F,0,0,1,0,0,0,1 @ F,0,0,1,0,0,0,1 @ F,0,0,1,0,0,0,1 @ F,0,0,1,0,0,0,1 @ F,0,0,1,0,0,0,1 @ F,0,0,1,0,0,0,1 @ F,0,0,1,0,0,0,1 @ F,0,0,1,0,0,0,1 @ F,0,0,1,0,0,0,1 @ F,0,0,1,0,0,0,1 @ F,0,0,1,0,0,0,1 @ F,0,0,1,0,0,0,1 @ F,0,0,1,0,0,0,1 @ F,0,0,1,0,0,0,1 @ F,0,0,1,0,0,0,1 | F,0,0,1,0,0,0,1 @ F,0,0,1,0,0,0,1 @ F,0,0,1,0,0,0,1 @ F,0,0,1,0,0,0,1 @ F,0,0,1,0,0,0,1 @ F,0,0,1,0,0,0,1 @ F,0,0,1,0,0,0,1 @ F,0,0,1,0,0,0,1"
       radius="0"
       unit="px"
       method="auto"
       mode="F"
       chamfer_steps="1"
       flexible="false"
       use_knot_distance="true"
       apply_no_radius="true"
       apply_with_radius="true"
       only_selected="false"
       hide_knots="false" /><font
       horiz-adv-x="1000"
       id="font93"
       inkscape:label="fonte 1"><font-face
         units-per-em="1000"
         ascent="750"
         cap-height="600"
         x-height="400"
         descent="200"
         id="font-face93"
         font-family="SVGFont 1" /><missing-glyph
         d="M0,0h1000v1000h-1000z"
         id="missing-glyph93" /></font></defs><sodipodi:namedview
     id="namedview1"
     pagecolor="#ffffff"
     bordercolor="#000000"
     borderopacity="0.25"
     inkscape:showpageshadow="2"
     inkscape:pageopacity="0.0"
     inkscape:pagecheckerboard="0"
     inkscape:deskcolor="#d1d1d1"
     inkscape:zoom="8"
     inkscape:cx="46.875"
     inkscape:cy="35.0625"
     inkscape:window-width="1920"
     inkscape:window-height="991"
     inkscape:window-x="-9"
     inkscape:window-y="-9"
     inkscape:window-maximized="1"
     inkscape:current-layer="layer1"
     inkscape:export-bgcolor="#ffffff00" /><g
     inkscape:groupmode="layer"
     inkscape:label="Image"
     id="g1"><g
       inkscape:groupmode="layer"
       id="layer1"
       inkscape:label="Formas"
       style="display:inline"><g
         id="g14"
         transform="translate(72.723653,-65.244069)"
         inkscape:label="Psi"><path
           style="font-size:16px;font-family:'Roboto Slab';-inkscape-font-specification:'Roboto Slab, @wght=700';font-variation-settings:'wght' 700;white-space:pre;fill:#ffffff;stroke:#000000;stroke-width:0.1"
           d="m 15.873927,167.36575 v -1.36718 l 1.210938,-0.23438 v -8.16406 l -1.210938,-0.23438 v -1.375 h 1.210938 4.203125 q 1.304687,0 2.25,0.46094 0.945312,0.45313 1.453125,1.27344 0.507812,0.8125 0.507812,1.89844 0,1.08593 -0.507812,1.90625 -0.507813,0.8125 -1.453125,1.26562 -0.945313,0.44531 -2.25,0.44531 h -1.921875 v 2.52344 l 1.21875,0.23438 v 1.36718 z m 3.492188,-5.88281 h 1.921875 q 0.953125,0 1.4375,-0.51562 0.492187,-0.52344 0.492187,-1.32813 0,-0.82031 -0.492187,-1.35156 -0.484375,-0.53906 -1.4375,-0.53906 h -1.921875 z m 11.5,6.04688 q -1.257813,0 -2.289063,-0.28125 -1.03125,-0.28125 -2.03125,-0.97657 v -2.75 h 1.765625 l 0.242188,1.61719 q 0.351562,0.29688 0.96875,0.48438 0.617187,0.17968 1.34375,0.17968 0.617187,0 1.039062,-0.17187 0.429688,-0.17188 0.648438,-0.48438 0.226562,-0.32031 0.226562,-0.75 0,-0.40625 -0.203125,-0.71875 -0.195312,-0.32031 -0.65625,-0.57812 -0.453125,-0.26563 -1.234375,-0.50781 -1.351562,-0.39844 -2.242187,-0.86719 -0.882813,-0.47656 -1.328125,-1.13281 -0.4375,-0.66407 -0.4375,-1.59375 0,-0.92188 0.507812,-1.625 0.515625,-0.71094 1.421875,-1.11719 0.90625,-0.40625 2.09375,-0.42188 1.3125,-0.0156 2.320313,0.3125 1.015625,0.32813 1.75,0.91407 v 2.5625 h -1.710938 l -0.296875,-1.5625 q -0.296875,-0.1875 -0.804687,-0.32813 -0.5,-0.14062 -1.140625,-0.14062 -0.546875,0 -0.96875,0.16406 -0.414063,0.16406 -0.65625,0.47656 -0.242188,0.3125 -0.242188,0.75781 0,0.38282 0.210938,0.67188 0.210937,0.28125 0.703125,0.53906 0.5,0.25 1.375,0.53906 1.882812,0.52344 2.851562,1.38282 0.976563,0.85937 0.976563,2.25781 0,0.96875 -0.523438,1.67969 -0.523437,0.70312 -1.46875,1.08593 -0.945312,0.38282 -2.210937,0.38282 z m 5.101562,-0.16407 v -1.36718 l 1.210938,-0.23438 v -8.16406 l -1.210938,-0.23438 v -1.375 h 4.703125 v 1.375 l -1.210937,0.23438 v 8.16406 l 1.210937,0.23438 v 1.36718 z m 10.992188,0.16407 q -1.65625,0 -2.882813,-0.6875 -1.226562,-0.69532 -1.898437,-1.96094 -0.664063,-1.27344 -0.664063,-3.00781 v -0.38282 q 0,-1.65625 0.640625,-2.92968 0.648438,-1.28125 1.84375,-2.00782 1.195313,-0.72656 2.84375,-0.72656 1.15625,0 2.164063,0.32813 1.015625,0.32812 1.8125,1 v 2.75 h -1.695313 l -0.234375,-1.72657 q -0.257812,-0.1875 -0.5625,-0.32031 -0.304687,-0.13281 -0.664062,-0.20312 -0.351563,-0.0703 -0.765625,-0.0703 -0.96875,0 -1.664063,0.47657 -0.695312,0.47656 -1.070312,1.35156 -0.367188,0.86719 -0.367188,2.0625 v 0.39844 q 0,1.19531 0.390625,2.07031 0.390625,0.875 1.109375,1.35937 0.71875,0.47657 1.703125,0.47657 0.492188,0 0.984375,-0.10938 0.5,-0.11719 0.90625,-0.29687 l 0.234375,-1.60157 h 1.695313 v 2.71875 q -0.664063,0.4375 -1.65625,0.74219 -0.992188,0.29688 -2.203125,0.29688 z m 10.117187,0 q -1.148437,0 -2.09375,-0.42969 -0.945312,-0.42969 -1.632812,-1.20313 -0.679688,-0.78125 -1.046875,-1.82812 -0.367188,-1.05469 -0.367188,-2.30469 v -0.17187 q 0,-1.24219 0.367188,-2.28907 0.367187,-1.05468 1.046875,-1.83593 0.679687,-0.78125 1.625,-1.21094 0.945312,-0.42969 2.09375,-0.42969 1.15625,0 2.109375,0.42969 0.953125,0.42969 1.640625,1.21094 0.6875,0.78125 1.054687,1.83593 0.375,1.04688 0.375,2.28907 v 0.17187 q 0,1.25 -0.375,2.30469 -0.367187,1.04687 -1.054687,1.82812 -0.6875,0.77344 -1.640625,1.20313 -0.945313,0.42969 -2.101563,0.42969 z m 0,-1.77344 q 0.96875,0 1.609375,-0.5 0.640625,-0.5 0.960938,-1.39844 0.328125,-0.89844 0.328125,-2.09375 v -0.1875 q 0,-1.17969 -0.328125,-2.07031 -0.328125,-0.89844 -0.976563,-1.39844 -0.640625,-0.5 -1.601562,-0.5 -0.953125,0 -1.585938,0.5 -0.632812,0.49219 -0.953125,1.38281 -0.3125,0.89063 -0.3125,2.08594 v 0.1875 q 0,1.19531 0.3125,2.09375 0.320313,0.89844 0.953125,1.39844 0.640625,0.5 1.59375,0.5 z m -1.359375,-10.64844 1.554688,-2.13281 h 2.414062 l 0.01563,0.0469 -2.15625,2.08594 h -1.765625 z m 7.445313,12.25781 v -1.36718 l 1.210937,-0.23438 v -8.16406 l -1.210937,-0.23438 v -1.375 h 1.210937 2.28125 1.375 v 1.375 l -1.375,0.23438 v 8.01562 h 3.210938 l 0.109375,-1.66406 h 1.742187 v 3.41406 z m 14.391388,0.16407 q -1.148438,0 -2.09375,-0.42969 -0.945313,-0.42969 -1.632813,-1.20313 -0.679687,-0.78125 -1.046875,-1.82812 -0.367187,-1.05469 -0.367187,-2.30469 v -0.17187 q 0,-1.24219 0.367187,-2.28907 0.367188,-1.05468 1.046875,-1.83593 0.679688,-0.78125 1.625,-1.21094 0.945313,-0.42969 2.09375,-0.42969 1.15625,0 2.109375,0.42969 0.953125,0.42969 1.640625,1.21094 0.6875,0.78125 1.054688,1.83593 0.375,1.04688 0.375,2.28907 v 0.17187 q 0,1.25 -0.375,2.30469 -0.367188,1.04687 -1.054688,1.82812 -0.6875,0.77344 -1.640625,1.20313 -0.945312,0.42969 -2.101562,0.42969 z m 0,-1.77344 q 0.96875,0 1.609375,-0.5 0.640625,-0.5 0.960937,-1.39844 0.328125,-0.89844 0.328125,-2.09375 v -0.1875 q 0,-1.17969 -0.328125,-2.07031 -0.328125,-0.89844 -0.976562,-1.39844 -0.640625,-0.5 -1.601563,-0.5 -0.953125,0 -1.585937,0.5 -0.632813,0.49219 -0.953125,1.38281 -0.3125,0.89063 -0.3125,2.08594 v 0.1875 q 0,1.19531 0.3125,2.09375 0.320312,0.89844 0.953125,1.39844 0.640625,0.5 1.59375,0.5 z m 11.539611,1.77344 q -1.695312,0 -2.890625,-0.70313 -1.195312,-0.70312 -1.835937,-1.95312 -0.632813,-1.25 -0.632813,-2.89844 v -0.39063 q 0,-1.70312 0.632813,-3 0.632812,-1.29687 1.789062,-2.02343 1.164063,-0.73438 2.75,-0.73438 1.226563,0 2.304688,0.33594 1.078125,0.33594 1.875,1.00781 v 2.52344 h -1.6875 l -0.320313,-1.52344 q -0.304687,-0.26562 -0.820312,-0.42187 -0.515625,-0.16407 -1.179688,-0.16407 -0.953125,0 -1.648437,0.50782 -0.6875,0.5 -1.054688,1.39843 -0.367187,0.89063 -0.367187,2.07813 v 0.40625 q 0,1.15625 0.359375,2.01562 0.367187,0.85157 1.070312,1.32032 0.703125,0.46875 1.726563,0.46875 0.601562,0 1.101562,-0.10938 0.507813,-0.11719 0.835938,-0.28125 v -1.92969 l -1.625,-0.125 v -1.60156 h 3.914062 v 4.60156 q -0.757812,0.53907 -1.828125,0.86719 -1.0625,0.32813 -2.46875,0.32813 z m 10.646149,0 q -1.148437,0 -2.09375,-0.42969 -0.945312,-0.42969 -1.632812,-1.20313 -0.679688,-0.78125 -1.046875,-1.82812 -0.367188,-1.05469 -0.367188,-2.30469 v -0.17187 q 0,-1.24219 0.367188,-2.28907 0.367187,-1.05468 1.046875,-1.83593 0.679687,-0.78125 1.625,-1.21094 0.945312,-0.42969 2.09375,-0.42969 1.156254,0 2.109374,0.42969 0.95313,0.42969 1.64063,1.21094 0.6875,0.78125 1.05468,1.83593 0.375,1.04688 0.375,2.28907 v 0.17187 q 0,1.25 -0.375,2.30469 -0.36718,1.04687 -1.05468,1.82812 -0.6875,0.77344 -1.64063,1.20313 -0.94531,0.42969 -2.101562,0.42969 z m 0,-1.77344 q 0.968752,0 1.609372,-0.5 0.64063,-0.5 0.96094,-1.39844 0.32813,-0.89844 0.32813,-2.09375 v -0.1875 q 0,-1.17969 -0.32813,-2.07031 -0.32812,-0.89844 -0.97656,-1.39844 -0.64063,-0.5 -1.601564,-0.5 -0.953125,0 -1.585938,0.5 -0.632812,0.49219 -0.953125,1.38281 -0.3125,0.89063 -0.3125,2.08594 v 0.1875 q 0,1.19531 0.3125,2.09375 0.320313,0.89844 0.953125,1.39844 0.640625,0.5 1.59375,0.5 z"
           id="text3"
           aria-label="PSICÓLOGO" /><path
           style="font-size:29.3333px;font-family:'Roboto Slab';-inkscape-font-specification:'Roboto Slab, @wght=900';font-variation-settings:'wght' 900;opacity:0.950139;fill:#ffffff;stroke:#372626;stroke-width:0.1"
           d="m 21.640847,145.90164 q -1.819009,0 -3.136716,-0.95963 -1.303384,-0.95964 -2.005206,-2.69271 -0.687499,-1.74739 -0.687499,-4.0677 v -0.30078 q 0,-2.42057 0.701822,-4.22526 0.701822,-1.81901 1.990883,-2.82161 1.303384,-1.01693 3.079424,-1.01693 1.231769,0 2.119789,0.51563 0.902343,0.5013 1.575519,1.41797 v -5.08463 l -2.177081,-0.45834 v -2.95051 h 2.177081 5.027338 v 18.94919 l 1.804686,0.45834 v 2.93619 h -6.158848 l -0.372395,-1.91927 q -0.701822,1.08854 -1.661456,1.66146 -0.959635,0.55859 -2.277341,0.55859 z m 1.561196,-3.85286 q 0.630207,0 1.174477,-0.24349 0.544271,-0.24349 0.902343,-0.73047 v -6.20181 q -0.358072,-0.58724 -0.88802,-0.88802 -0.515624,-0.31511 -1.160155,-0.31511 -0.859374,0 -1.389321,0.52995 -0.529947,0.52995 -0.773436,1.47526 -0.229167,0.94531 -0.229167,2.20573 v 0.30078 q 0,1.84765 0.515625,2.86458 0.515624,1.0026 1.847654,1.0026 z m 17.545552,3.85286 q -2.277341,0 -3.981766,-0.97396 -1.690103,-0.98828 -2.635414,-2.6927 -0.930988,-1.70443 -0.930988,-3.85286 v -0.52995 q 0,-2.36328 0.830728,-4.16796 0.830728,-1.81901 2.434893,-2.83594 1.604165,-1.03125 3.938797,-1.03125 2.105467,0 3.55208,0.81641 1.460935,0.80208 2.220049,2.3776 0.759114,1.5612 0.759114,3.85286 v 2.59245 h -8.522126 l -0.01432,0.10026 q 0.114584,0.73046 0.486979,1.30338 0.386718,0.55859 1.059895,0.88802 0.673176,0.32943 1.661456,0.32943 0.973957,0 1.904946,-0.21485 0.945311,-0.22916 1.990883,-0.71614 l 1.145832,3.03645 q -1.045572,0.74479 -2.549476,1.23177 -1.503905,0.48698 -3.351559,0.48698 z m -2.334633,-9.55337 h 3.938798 v -0.3724 q 0,-0.83073 -0.171875,-1.38932 -0.157552,-0.55859 -0.558593,-0.84505 -0.401041,-0.28646 -1.102863,-0.28646 -0.759114,0 -1.217447,0.3724 -0.44401,0.35807 -0.658853,1.0026 -0.200521,0.63021 -0.286458,1.44661 z m 27.442678,9.55337 q -2.979163,0 -5.313796,-1.20312 -2.334633,-1.20313 -3.666663,-3.48047 -1.332029,-2.29166 -1.332029,-5.55728 v -0.95964 q 0,-3.00781 1.217446,-5.31379 1.23177,-2.32031 3.494788,-3.6237 2.277341,-1.3177 5.399733,-1.3177 2.177081,0 4.139318,0.58724 1.976561,0.57291 3.666663,1.97656 v 5.37108 h -3.65234 l -0.501301,-3.07942 q -0.486979,-0.32943 -1.031249,-0.57292 -0.529947,-0.24349 -1.145832,-0.37239 -0.601562,-0.12891 -1.303384,-0.12891 -1.589842,0 -2.778643,0.75912 -1.1888,0.75911 -1.847654,2.20572 -0.64453,1.43229 -0.64453,3.48047 v 0.98828 q 0,1.91927 0.673176,3.3802 0.673176,1.44662 1.8763,2.26302 1.217446,0.81641 2.807288,0.81641 0.845051,0 1.718748,-0.17188 0.873697,-0.1862 1.690103,-0.48698 l 0.501301,-2.95052 h 3.666663 v 5.25651 q -1.246093,0.85937 -3.179684,1.5039 -1.933592,0.63021 -4.454422,0.63021 z m 14.48045,0 q -2.248696,0 -3.666663,-1.27474 -1.417967,-1.27473 -1.417967,-3.39452 0,-2.17708 1.747394,-3.56641 1.761717,-1.38932 5.313796,-1.38932 h 1.618488 v -0.91666 q 0,-0.93099 -0.529948,-1.57552 -0.529947,-0.65886 -1.675779,-0.65886 -0.486979,0 -0.916666,0.12891 -0.415364,0.11458 -0.759113,0.34375 l -0.34375,1.97656 h -3.537756 l -0.07161,-4.31119 q 1.317707,-0.58724 2.749997,-1.01693 1.446613,-0.42969 3.222653,-0.42969 3.165361,0 5.027338,1.46094 1.861977,1.44661 1.861977,4.13932 v 5.71484 q 0,0.32942 0,0.64453 0.01432,0.3151 0.07161,0.60156 l 1.67578,0.28646 v 2.93619 h -5.87239 q -0.186197,-0.25781 -0.401041,-0.6875 -0.214843,-0.42969 -0.300781,-0.85937 -0.701822,0.87369 -1.575519,1.36067 -0.873697,0.48698 -2.220049,0.48698 z m 1.546873,-3.55208 q 0.54427,0 1.08854,-0.21484 0.558594,-0.22917 0.959635,-0.67318 v -2.23437 h -1.561196 q -1.016926,0 -1.575519,0.44401 -0.544271,0.44401 -0.544271,1.17448 0,0.70182 0.458333,1.10286 0.458333,0.40104 1.174478,0.40104 z m 9.610666,3.2513 v -2.93619 l 1.833331,-0.45834 v -8.694 L 91.14988,133.054 v -2.95052 h 6.889315 l 0.157551,2.0625 q 0.759114,-1.11719 1.847654,-1.73307 1.08854,-0.61589 2.52083,-0.61589 1.44661,0 2.47786,0.63021 1.04557,0.61589 1.57552,1.89062 0.70182,-1.20312 1.80469,-1.86197 1.11718,-0.65886 2.62109,-0.65886 2.24869,0 3.53775,1.51823 1.28907,1.51823 1.28907,4.66927 v 6.20181 l 1.83333,0.45834 v 2.93619 h -8.32161 v -2.93619 l 1.47526,-0.45834 v -6.20181 q 0,-1.36068 -0.42969,-1.84766 -0.41536,-0.48698 -1.21744,-0.48698 -0.65886,0 -1.1888,0.25782 -0.52995,0.24349 -0.93099,0.71614 v 7.56249 l 1.28906,0.45834 v 2.93619 h -7.57682 v -2.93619 l 1.28907,-0.45834 v -6.20181 q 0,-1.36068 -0.41537,-1.84766 -0.41536,-0.48698 -1.24609,-0.48698 -0.644532,0 -1.174479,0.25782 -0.529947,0.24349 -0.930988,0.73046 v 7.54817 l 1.475258,0.45834 v 2.93619 z m 32.484341,0.30078 q -2.2487,0 -3.66666,-1.27474 -1.41797,-1.27473 -1.41797,-3.39452 0,-2.17708 1.74739,-3.56641 1.76172,-1.38932 5.3138,-1.38932 h 1.61849 v -0.91666 q 0,-0.93099 -0.52995,-1.57552 -0.52995,-0.65886 -1.67578,-0.65886 -0.48698,0 -0.91666,0.12891 -0.41537,0.11458 -0.75912,0.34375 l -0.34375,1.97656 h -3.53775 l -0.0716,-4.31119 q 1.31771,-0.58724 2.75,-1.01693 1.44661,-0.42969 3.22265,-0.42969 3.16536,0 5.02734,1.46094 1.86198,1.44661 1.86198,4.13932 v 5.71484 q 0,0.32942 0,0.64453 0.0143,0.3151 0.0716,0.60156 l 1.67578,0.28646 v 2.93619 h -5.87239 q -0.1862,-0.25781 -0.40104,-0.6875 -0.21484,-0.42969 -0.30078,-0.85937 -0.70182,0.87369 -1.57552,1.36067 -0.8737,0.48698 -2.22005,0.48698 z m 1.54687,-3.55208 q 0.54427,0 1.08854,-0.21484 0.5586,-0.22917 0.95964,-0.67318 v -2.23437 h -1.5612 q -1.01692,0 -1.57552,0.44401 -0.54427,0.44401 -0.54427,1.17448 0,0.70182 0.45834,1.10286 0.45833,0.40104 1.17447,0.40104 z m 10.39842,3.2513 v -2.93619 l 1.80469,-0.45834 v -8.694 l -2.14843,-0.45833 v -2.95052 h 6.88931 l 0.11458,1.89063 0.0287,0.38671 q 0.51562,-1.3177 1.27474,-1.93359 0.77343,-0.63021 1.91927,-0.63021 0.3151,0 0.74479,0.0573 0.42968,0.043 0.87369,0.17187 l -0.5013,4.61197 -2.14843,-0.10026 q -0.74479,-0.0286 -1.17448,0.17188 -0.41536,0.1862 -0.84505,0.63021 v 6.84634 l 1.80468,0.45834 v 2.93619 z m 19.03514,6.25911 q -1.21745,0 -2.77864,-0.30078 -1.5612,-0.30078 -2.75,-0.8737 l 0.80208,-3.46614 q 1.13151,0.44401 2.27735,0.67317 1.16015,0.24349 2.10546,0.24349 1.54687,0 2.26302,-0.85937 0.73047,-0.84505 0.73047,-2.32031 v -0.73047 q -0.64453,0.80208 -1.50391,1.24609 -0.84505,0.42969 -1.94791,0.42969 -1.89062,0 -3.23698,-0.95963 -1.34635,-0.95964 -2.06249,-2.69271 -0.70183,-1.74739 -0.70183,-4.0677 v -0.30078 q 0,-2.42057 0.70183,-4.22526 0.70182,-1.81901 2.0052,-2.82161 1.31771,-1.01693 3.13672,-1.01693 1.34635,0 2.29166,0.58724 0.94531,0.58724 1.61849,1.64714 l 0.3151,-1.94792 h 4.42578 v 14.8815 q 0,2.06249 -0.94531,3.60937 -0.93099,1.54687 -2.66406,2.40624 -1.71875,0.85938 -4.08203,0.85938 z m 0.67318,-9.81119 q 0.63021,0 1.14583,-0.20052 0.51562,-0.21484 0.83073,-0.64453 v -6.48827 q -0.31511,-0.51563 -0.83073,-0.77344 -0.51562,-0.27214 -1.14583,-0.27214 -0.90235,0 -1.44662,0.52995 -0.52994,0.51563 -0.77343,1.46094 -0.22917,0.94531 -0.22917,2.22005 v 0.30078 q 0,1.84765 0.52995,2.86458 0.52995,1.0026 1.91927,1.0026 z m 6.43098,-8.47916 -2.26302,-3.46614 h 4.61198 v 2.96484 z m 10.97134,12.33202 q -2.39192,0 -4.09635,-0.98828 -1.6901,-1.0026 -2.59244,-2.77864 -0.88802,-1.79036 -0.88802,-4.13932 v -0.28646 q 0,-2.32031 0.88802,-4.09635 0.90234,-1.77604 2.59244,-2.77864 1.6901,-1.01693 4.0677,-1.01693 2.39193,0 4.06771,1.00261 1.6901,1.0026 2.57812,2.77864 0.90234,1.77604 0.90234,4.11067 v 0.28646 q 0,2.33463 -0.90234,4.125 -0.88802,1.77604 -2.57812,2.77864 -1.67578,1.0026 -4.03906,1.0026 z m 0,-3.82421 q 0.91667,0 1.46094,-0.48698 0.55859,-0.5013 0.80208,-1.41797 0.25781,-0.91666 0.25781,-2.17708 v -0.28646 q 0,-1.21744 -0.25781,-2.11979 -0.24349,-0.91666 -0.80208,-1.41796 -0.5586,-0.51563 -1.48959,-0.51563 -0.91666,0 -1.47525,0.51563 -0.5586,0.5013 -0.80209,1.41796 -0.24349,0.90235 -0.24349,2.11979 v 0.28646 q 0,1.27474 0.24349,2.1914 0.24349,0.91667 0.80209,1.40365 0.55859,0.48698 1.5039,0.48698 z"
           id="text23"
           inkscape:label="text2"
           aria-label="de Camargo" /><path
           style="font-size:29.3333px;font-family:'Roboto Slab';-inkscape-font-specification:'Roboto Slab, @wght=900';font-variation-settings:'wght' 900;opacity:0.950139;fill:#ffffff;stroke:#372626;stroke-width:0.1"
           d="m 15.181221,117.48095 v -2.9362 l 2.148435,-0.45833 v -14.05076 l -2.148435,-0.458336 v -2.950517 h 2.148435 7.691397 l 5.041661,13.735663 h 0.08594 l 4.898431,-13.735663 h 9.72525 v 2.950517 l -2.162758,0.458336 v 14.05076 l 2.162758,0.45833 v 2.9362 h -9.338531 v -2.9362 l 2.248695,-0.45833 v -2.72135 l 0.114583,-9.81119 -0.08594,-0.0143 -5.901035,15.94139 h -3.953121 l -5.986972,-15.75519 -0.10026,0.0143 0.34375,8.93749 v 3.40885 l 2.42057,0.45833 v 2.9362 z m 30.536424,0 v -2.9362 l 1.819008,-0.45833 v -8.694 l -2.162758,-0.45833 v -2.95052 h 7.190096 v 12.10285 l 1.804685,0.45833 v 2.9362 z m 1.675779,-18.433573 v -3.910152 h 5.170567 v 3.910152 z M 62.87648,117.78173 q -2.305987,0 -3.967444,-1.01693 -1.661456,-1.01692 -2.549476,-2.79296 -0.88802,-1.77604 -0.88802,-4.05338 v -0.32943 q 0,-2.33463 0.916666,-4.11067 0.930989,-1.77604 2.578122,-2.77864 1.661456,-1.00261 3.867183,-1.00261 2.22005,0 3.795569,0.67318 1.589842,0.67318 2.506507,1.40364 l -0.08594,4.88411 h -3.738277 l -0.601562,-2.80729 q -0.243489,-0.24348 -0.658853,-0.40104 -0.401042,-0.15755 -0.673177,-0.15755 -1.074217,0 -1.704425,0.47266 -0.630207,0.45833 -0.902343,1.40364 -0.272135,0.94531 -0.272135,2.42057 v 0.32943 q 0,1.53255 0.358073,2.42057 0.372395,0.8737 0.930988,1.24609 0.558594,0.3724 1.145832,0.3724 0.902343,0 1.389322,-0.44401 0.501301,-0.45834 0.773436,-1.33203 h 4.210933 l 0.05729,0.0859 q -0.34375,1.84766 -1.074218,3.07943 -0.730468,1.21744 -2.033852,1.83333 -1.289061,0.60156 -3.380204,0.60156 z m 8.035146,-0.30078 v -2.9362 l 1.819008,-0.45833 V 98.546075 l -2.177081,-0.458332 v -2.950518 h 7.175773 v 8.765615 q 0.687499,-1.04557 1.718748,-1.61849 1.031249,-0.58724 2.391925,-0.58724 2.234372,0 3.595048,1.60417 1.360675,1.58984 1.360675,4.92708 v 5.85806 l 1.804686,0.45833 v 2.9362 h -8.307283 v -2.9362 l 1.475259,-0.45833 v -5.88671 q 0,-1.51823 -0.515624,-2.07682 -0.501302,-0.57292 -1.460936,-0.57292 -0.658854,0 -1.188801,0.22917 -0.529947,0.22917 -0.873697,0.73047 v 7.57681 l 1.475259,0.45833 v 2.9362 z m 26.225228,0.30078 q -2.277341,0 -3.981766,-0.97396 -1.690102,-0.98828 -2.635414,-2.6927 -0.930988,-1.70443 -0.930988,-3.85286 v -0.52995 q 0,-2.36328 0.830728,-4.16796 0.830728,-1.81901 2.434893,-2.83594 1.604165,-1.03125 3.938798,-1.03125 2.105466,0 3.552075,0.81641 1.46094,0.80208 2.22005,2.3776 0.75912,1.5612 0.75912,3.85286 v 2.59245 h -8.522128 l -0.01432,0.10026 q 0.114583,0.73046 0.486978,1.30338 0.386719,0.55859 1.059895,0.88802 0.673176,0.32943 1.661456,0.32943 0.973958,0 1.904946,-0.21485 0.945316,-0.22916 1.990886,-0.71614 l 1.14583,3.03645 q -1.04557,0.74479 -2.54948,1.23177 -1.503902,0.48698 -3.351556,0.48698 z m -2.334632,-9.55337 h 3.938797 v -0.3724 q 0,-0.83073 -0.171875,-1.38932 -0.157552,-0.55859 -0.558593,-0.84505 -0.401041,-0.28646 -1.102863,-0.28646 -0.759114,0 -1.217447,0.3724 -0.44401,0.35807 -0.658853,1.0026 -0.200521,0.63021 -0.286458,1.44661 z m 10.011708,9.25259 v -2.9362 l 1.83333,-0.45833 V 98.546075 l -2.17708,-0.458332 v -2.950518 h 7.20442 v 18.949195 l 1.81901,0.45833 v 2.9362 z"
           id="text22"
           inkscape:label="text1"
           aria-label="Michel" /><g
           id="g13"
           style="fill:#ffbf9e;fill-opacity:0.999999"><path
             d="m -5.6162414,133.23636 -0.04857,3.79885 -0.148592,20.82023 c 0.0037,0.70952 0.0073,1.41904 0.01096,2.12856 -0.07469,0.0783 -0.149379,0.15653 -0.22407,0.23479 l -0.468551,0.0489 c -0.01862,0.3374 -0.03724,0.6748 -0.05587,1.01219 l -1.126003,0.0375 -0.913749,0.0573 c -0.142538,0.043 -0.285074,0.0861 -0.42761,0.12911 -0.09834,0.14799 -0.196684,0.29599 -0.295026,0.44399 -0.07735,0.11619 -0.135775,0.20395 -0.232057,0.34858 -0.196203,0.1094 -0.315228,0.17576 -0.4728836,0.26367 -0.184548,0.0303 -0.369326,0.0607 -0.553545,0.0909 -0.01141,0.33972 -0.02282,0.67944 -0.03424,1.01916 l -0.0327,2.5667 c 0,0 0.06141,0.7964 0.09212,1.1946 l 1.4495286,0.0984 c 0.202908,-0.003 13.452539,-0.19071 13.452539,-0.19071 0,0 0.609655,-0.3583 0.914486,-0.53746 -0.0037,-0.39591 -0.01105,-1.18771 -0.01105,-1.18771 l 0.04971,-2.1379 c 0,0 -0.0074,-0.79922 -0.01105,-1.19877 -0.414623,-0.0416 -0.829297,-0.0833 -1.243994,-0.12494 0.01004,-0.21996 0.02009,-0.43992 0.03013,-0.65983 -0.150335,-0.1169 -0.300709,-0.23383 -0.451063,-0.35074 -0.549575,0.01 -1.09915,0.0199 -1.648725,0.0298 l -0.80471,-0.0186 c -0.02289,-0.34203 -0.04579,-0.68405 -0.06868,-1.02607 0.03015,-7.75615 0.09046,-23.26844 0.09046,-23.26844 0.0095,-0.31811 -0.04748,-3.14013 -0.07317,-4.48558 -0.02569,-1.34546 -0.01149,-1.29919 -0.15128399,-1.42309 -0.139795,-0.1239 -0.828732,-0.11905 -1.642667,-0.10667 -0.81393501,0.0124 -2.11139901,0.0843 -3.09958301,0.0896 -0.255988,0.001 -0.570733,-0.0315 -0.753654,0.14761 -0.142499,0.13951 0.0026,0.43335 -0.12741,0.58454 -0.17865,0.20769 -0.595291,0.0803 -0.767823,0.29311 -0.271688,0.3351 -0.172947,0.72433 -0.201604,1.27841 z"
             style="opacity:1;mix-blend-mode:normal;fill:#ffbf9e;fill-opacity:0.999999;stroke:#372626;stroke-width:0.1;stroke-opacity:1"
             id="path1"
             sodipodi:nodetypes="cccccccccccccccccccccccccccccczzzsassc" /><path
             style="opacity:1;mix-blend-mode:normal;fill:#ffbf9e;fill-opacity:0.999999;stroke:#372626;stroke-width:0.1;stroke-opacity:1"
             d="m 66.435847,38.241297 c -0.475572,4.011253 -1.426913,12.035407 -4.915385,17.129483 -3.488471,5.094077 -9.516942,7.262264 -12.528503,8.208949 -3.011561,0.946686 -3.007451,0.672317 -3.003341,0.397948 0.0041,-0.27437 0.0082,-0.548739 0.02195,-4.814805 0.01373,-4.266067 0.03709,-12.523744 0.394003,-16.69901 0.356913,-4.175266 1.047353,-4.267947 1.534635,-4.429092 0.487281,-0.161146 0.771354,-0.390737 1.06245,-0.583188 0.291095,-0.192451 0.589176,-0.347737 0.741006,-0.644772 0.15183,-0.297036 0.15739,-0.73578 0.146386,-1.52452 -0.011,-0.78874 -0.03857,-1.927378 -0.161043,-2.533028 -0.122474,-0.605649 -0.339849,-0.67824 -0.557227,-0.750831 -4.723886,0.0249 -9.447744,0.0498 -11.952678,0.06027 -2.504935,0.01047 -2.790883,0.0065 -2.959648,0.06507 -0.168765,0.05855 -0.220343,0.179591 -0.271922,0.300637 -0.02191,0.604628 -0.04383,1.209257 -0.05142,1.903729 -0.0076,0.694472 -8.56e-4,1.478789 0.241889,1.938258 0.242745,0.459469 0.721501,0.594091 1.019267,0.804234 0.297767,0.210142 0.414428,0.495522 0.649763,0.649523 0.235334,0.154 0.586864,0.175915 0.927503,0.215037 0.340638,0.03912 0.666937,0.09523 0.863029,0.259418 0.196092,0.164185 0.261974,0.436442 0.390353,0.641718 0.128378,0.205276 0.31925,0.343568 0.421582,0.578214 0.102331,0.234646 0.116121,0.565646 0.09577,4.551606 -0.02035,3.985961 -0.07504,11.652713 -0.114988,15.679847 -0.03995,4.027133 -0.06552,4.466319 -0.35038,4.639223 -0.284858,0.172905 -0.821296,0.07635 -1.663284,-0.08368 -0.841987,-0.160031 -1.985097,-0.382738 -4.866386,-1.78449 -2.881288,-1.401751 -7.509469,-3.987656 -10.19123,-8.053833 -2.68176,-4.066177 -3.442583,-9.65222 -3.879332,-13.529425 -0.436749,-3.877205 -0.551293,-6.059284 -1.137898,-7.234909 -0.586604,-1.175625 -1.645253,-1.344765 -3.356776,-1.43302 -1.711522,-0.08825 -4.07591,-0.09562 -5.4091017,-0.06247 -1.3331917,0.03314 -1.6351862,0.106804 -1.7861829,0.534014 -0.1509967,0.42721 -0.1509954,1.207972 -0.1348463,2.068787 0.016149,0.860815 0.048446,1.801684 0.3099375,2.327492 0.2614913,0.525808 0.7427565,0.63443 1.2797492,0.729735 0.5369926,0.09531 1.0892508,0.170112 1.5319422,0.340515 0.4426914,0.170402 0.7650092,0.434937 0.9988173,0.69168 0.2338077,0.256743 0.3829847,0.512339 0.4699827,2.593683 0.087,2.081344 0.121359,6.216768 1.622276,10.417802 1.500917,4.201034 4.469283,8.575199 7.92742,11.774538 3.458137,3.199339 7.406046,5.223852 10.607495,6.383314 3.201448,1.159463 5.656436,1.453875 6.907311,1.972913 1.250875,0.519038 1.297638,1.262703 1.318389,5.099366 0.02075,3.836664 0.01549,10.766327 0.01469,14.585918 -8.04e-4,3.81959 0.0029,4.529105 -0.03267,4.922996 -0.03552,0.393891 -0.110209,0.472158 -0.225647,0.519436 -0.115438,0.04728 -0.271618,0.06357 -0.359023,0.240413 -0.0874,0.176846 -0.106028,0.514239 -0.303005,0.689179 -0.196978,0.174941 -0.572312,0.187427 -0.912273,0.203221 -0.339961,0.01579 -0.644541,0.03489 -0.868102,0.06596 -0.223562,0.03107 -0.366096,0.0741 -0.486535,0.16962 -0.120439,0.09551 -0.218782,0.243513 -0.306629,0.375608 -0.08785,0.132095 -0.14627,0.219855 -0.292512,0.346869 -0.146243,0.127014 -0.265268,0.19338 -0.43637,0.252488 -0.171102,0.05911 -0.35588,0.08946 -0.453696,0.274446 -0.09782,0.184988 -0.10923,0.52471 -0.120386,1.12235 -0.01116,0.59765 -0.02206,1.45321 -0.03296,2.30878 0.03071,0.3982 0.06141,0.7964 0.318357,1.0119 0.256944,0.2155 0.740111,0.2483 1.083156,0.26326 0.343046,0.015 9.108495,-0.1093 13.592675,-0.17287 0.304829,-0.17915 0.609653,-0.3583 0.760228,-0.64584 0.150575,-0.28753 0.146891,-0.68343 0.143208,-1.07933 0.01657,-0.71263 0.03314,-1.42527 0.04971,-2.1379 -0.0037,-0.399589 -0.0074,-0.799219 -0.21652,-1.019814 -0.209153,-0.220594 -0.623827,-0.262241 -0.826153,-0.393048 -0.202327,-0.130806 -0.192283,-0.350765 -0.26243,-0.519173 -0.07015,-0.168407 -0.22052,-0.285335 -0.570484,-0.33882 -0.349964,-0.05348 -0.89954,-0.04354 -1.449115,-0.0336 -0.268237,-0.0062 -0.536474,-0.01239 -0.682039,-0.186503 -0.145564,-0.174109 -0.168458,-0.516132 -0.164828,-4.565217 0.0036,-4.049084 0.03378,-11.80523 0.06394,-19.561376 0.01893,-0.636224 0.03787,-1.272449 2.48171,-2.128374 2.443843,-0.855925 7.312597,-1.93155 11.782205,-4.732314 4.469609,-2.800763 8.540072,-7.326665 10.792264,-12.296981 2.252191,-4.970317 2.684431,-10.364094 3.045341,-13.23219 0.36091,-2.868096 0.64713,-3.168601 0.950185,-3.327995 0.303055,-0.159393 0.622942,-0.177673 0.922578,-0.207002 0.299636,-0.02933 0.579014,-0.0697 0.867603,-0.213202 0.288588,-0.143497 0.586382,-0.390111 0.785858,-0.646685 0.199477,-0.256573 0.300628,-0.523091 0.325149,-1.582703 0.02452,-1.059612 0.04852,-0.206276 0.01365,-1.526072 -0.03488,-1.319796 -0.03469,-1.310611 -0.125651,-1.477944 -0.09096,-0.167333 -0.267723,-0.240759 -0.444493,-0.314186 -2.767431,-0.002 -5.534863,-0.0039 -7.092287,0.151422 -1.557424,0.155356 -1.904842,0.468034 -2.210579,0.832246 -0.305738,0.364212 -0.569797,0.779959 -0.701826,0.987832 -0.132029,0.207873 -0.132055,0.208012 -0.607628,4.219264 z"
             id="path3"
             sodipodi:nodetypes="ssscscccccccccczzzccccccccccccccczzzccccssssscccccccccccszcccccccccccczzczzzsccccccccssss"
             transform="translate(-72.327193,63.138826)"
             inkscape:label="path3" /><path
             d="m -55.755929,133.23636 0.04857,3.79885 0.148592,20.82023 c -0.0037,0.70952 -0.0073,1.41904 -0.01096,2.12856 0.07469,0.0783 0.149379,0.15653 0.22407,0.23479 l 0.468551,0.0489 c 0.01862,0.3374 0.03724,0.6748 0.05587,1.01219 l 1.126003,0.0375 0.913749,0.0573 c 0.142538,0.043 0.285074,0.0861 0.42761,0.12911 0.09834,0.14799 0.196684,0.29599 0.295026,0.44399 0.07735,0.11619 0.135775,0.20395 0.232057,0.34858 0.196203,0.1094 0.315228,0.17576 0.472884,0.26367 0.184548,0.0303 0.369326,0.0607 0.553545,0.0909 0.01141,0.33972 0.02282,0.67944 0.03424,1.01916 l 0.0327,2.5667 c 0,0 -0.06141,0.7964 -0.09212,1.1946 l -1.449529,0.0984 c -0.202908,-0.003 -13.452538,-0.19071 -13.452538,-0.19071 0,0 -0.609655,-0.3583 -0.914486,-0.53746 0.0037,-0.39591 0.01105,-1.18771 0.01105,-1.18771 l -0.04971,-2.1379 c 0,0 0.0074,-0.79922 0.01105,-1.19877 0.414623,-0.0416 0.829297,-0.0833 1.243994,-0.12494 -0.01004,-0.21996 -0.02009,-0.43992 -0.03013,-0.65983 0.150335,-0.1169 0.300709,-0.23383 0.451063,-0.35074 0.549575,0.01 1.09915,0.0199 1.648725,0.0298 l 0.80471,-0.0186 c 0.02289,-0.34203 0.04579,-0.68405 0.06868,-1.02607 -0.03015,-7.75615 -0.09046,-23.26844 -0.09046,-23.26844 -0.0095,-0.31811 0.04748,-3.14013 0.07317,-4.48558 0.02569,-1.34546 0.01149,-1.29919 0.151284,-1.42309 0.139795,-0.1239 0.828731,-0.11905 1.642666,-0.10667 0.813935,0.0124 2.111399,0.0843 3.099583,0.0896 0.255988,0.001 0.570733,-0.0315 0.753654,0.14761 0.142499,0.13951 -0.0026,0.43335 0.12741,0.58454 0.17865,0.20769 0.595291,0.0803 0.767823,0.29311 0.271688,0.3351 0.172947,0.72433 0.201604,1.27841 z"
             style="opacity:1;mix-blend-mode:normal;fill:#ffbf9e;fill-opacity:0.999999;stroke:#372626;stroke-width:0.1;stroke-opacity:1"
             id="path13"
             sodipodi:nodetypes="cccccccccccccccccccccccccccccczzzsassc" /></g></g></g></g></svg>
